/* XPM */
static char *iphone_8_red_back__1___1_1706042613[] = {
/* columns rows colors chars-per-pixel */
"64 64 189 2 ",
"   c #0E251D",
".  c #2E0C27",
"X  c #002027",
"o  c #0C2521",
"O  c #1F2A2C",
"+  c #3E2D37",
"@  c #4C141F",
"#  c #7E060E",
"$  c #7B090E",
"%  c #770A0D",
"&  c #6F0F11",
"*  c #740D10",
"=  c #7D0A11",
"-  c #6A181E",
";  c #43281F",
":  c #602817",
">  c #600F20",
",  c #472A2F",
"<  c #64232B",
"1  c #42594F",
"2  c #860006",
"3  c #890006",
"4  c #85030D",
"5  c #8C010D",
"6  c #940007",
"7  c #93010D",
"8  c #9B010C",
"9  c #840511",
"0  c #8D0311",
"q  c #8F0618",
"w  c #940111",
"e  c #9A0112",
"r  c #9D0913",
"t  c #9D0418",
"y  c #8B111E",
"u  c #9F1918",
"i  c #9F171B",
"p  c #A60006",
"a  c #A4000D",
"s  c #AB010D",
"d  c #A8090E",
"f  c #A30213",
"g  c #AA0314",
"h  c #A50914",
"j  c #AA0A16",
"k  c #A40718",
"l  c #AC051A",
"z  c #A30A1B",
"x  c #AC0C1A",
"c  c #B10012",
"v  c #B20B1C",
"b  c #B8091A",
"n  c #A6151E",
"m  c #AC111D",
"M  c #B6141F",
"N  c #A50C20",
"B  c #B50F23",
"V  c #BB0B23",
"C  c #B80626",
"Z  c #A71323",
"A  c #AC1326",
"S  c #AD1A23",
"D  c #AD182B",
"F  c #B41323",
"G  c #B91425",
"H  c #B41B26",
"J  c #B91827",
"K  c #B4142A",
"L  c #BB162A",
"P  c #B51B2A",
"I  c #BC1C2C",
"U  c #A91431",
"Y  c #BC1D32",
"T  c #99282D",
"R  c #972936",
"E  c #A2272A",
"W  c #B5222C",
"Q  c #BB212C",
"!  c #AE243B",
"~  c #B42131",
"^  c #BC2332",
"/  c #B02832",
"(  c #BD2B34",
")  c #B52F38",
"_  c #B92638",
"`  c #BC343C",
"'  c #C00016",
"]  c #CD091F",
"[  c #C2121D",
"{  c #C30E25",
"}  c #C31124",
"|  c #C21C27",
" . c #C4142B",
".. c #CC142C",
"X. c #C31C2D",
"o. c #C61631",
"O. c #C81731",
"+. c #C41E33",
"@. c #CB1B33",
"#. c #D41A33",
"$. c #D51E3C",
"%. c #C12026",
"&. c #C52334",
"*. c #CA2436",
"=. c #CC2738",
"-. c #C42C3A",
";. c #CD293A",
":. c #C3263B",
">. c #D42439",
",. c #D02B3C",
"<. c #C1313A",
"1. c #BC2E48",
"2. c #B53D49",
"3. c #D22F40",
"4. c #DB2740",
"5. c #D53041",
"6. c #D13F4A",
"7. c #B04646",
"8. c #BC485D",
"9. c #C24549",
"0. c #CD4655",
"q. c #CC4857",
"w. c #CE4A5A",
"e. c #C44857",
"r. c #D24C5C",
"t. c #D24558",
"y. c #C45657",
"u. c #D94360",
"i. c #D65767",
"p. c #C86778",
"a. c #C96872",
"s. c #DB717D",
"d. c #EF6F7E",
"f. c #D4807E",
"g. c #D67A85",
"h. c #D67A85",
"j. c #E37787",
"k. c #819191",
"l. c #B3AAA3",
"z. c #CE8386",
"x. c #CE848B",
"c. c #CB898A",
"v. c #D18589",
"b. c #DD818C",
"n. c #DC8685",
"m. c #D68A92",
"M. c #DC8B92",
"N. c #DC8E9A",
"B. c #D7969E",
"V. c #D69998",
"C. c #E5818D",
"Z. c #E18391",
"A. c #E88D9E",
"S. c #E89AA2",
"D. c #D1A2AC",
"F. c #FFA5AE",
"G. c #E3B0AF",
"H. c #EAB1A0",
"J. c #EBA9B1",
"K. c #FEB9BE",
"L. c #F5C7CC",
"P. c #EAD7D3",
"I. c #E9D9D5",
"U. c #F2D2D3",
"Y. c #F7DFDF",
"T. c #F4DCD0",
"R. c #ECE3DC",
"E. c #F4E6DD",
"W. c #F6E0D5",
"Q. c #FFDBE0",
"!. c #DEF9F2",
"~. c #EEEEE6",
"^. c #F4E3E2",
"/. c #F9E4E3",
"(. c #F1EBE5",
"). c #F4EFE9",
"_. c #FFEDEE",
"`. c #FBE9E7",
"'. c #F6F1EA",
"]. c #FFF0ED",
"[. c #EEFFFD",
"{. c #EFFAF4",
"}. c #FCF3F4",
"|. c #F6FEF7",
" X c #FCFDF6",
".X c #F3F6FB",
"XX c #FDF5FB",
"oX c #F5FEFD",
"OX c #FFFFFF",
/* pixels */
"OXOXOXOXOXOXOXOXOXOXOXOXOXOXOXOXOXOXOXOXOXoXOXOX XOX XOXOX XOXOX XOX XOXOX XOXOXoX.XOXOXOXXXOXoXOXOXOXOXOXOXOXOXOXOXOXOXOXOXOXOX",
"OXOXOXOXOXOXOXOXOXOXOXOXOXOXOXOX.XOXOXOXOXOXOXXXoXOXoXOXoXOXOXoXOXOXOXOXOXOXOXOXOXOXOXoX|.OXoXOXOXOXOXOXOXOXOXOXOXOXOXOXOXOXOXOX",
"OXOXOXOXOXOXOXOXOXOXOXOXOXOXOXOX XOX X.X.XOXOXoXOXOXOXOXOXOXOXOXOXOXOXOXOXOXOXXX.XOXoXoXoXOXXXXXOXOXOXOXOXOXOXOXOXOXOXOXOXOXOXOX",
"OXOXOXOXOXOXOXOXOXOXOXOXOXOXOXOXOX.X XOXOX XoXOX X X X X X X X X|.|.|.|.|.|.|.|.OXOXOXXXOXOXOXXXOXOXOXOXOXOXOXOXOXOXOXOXOXOXOXOX",
"OXOXOXOXOXOXOXOXOXOXOXOXOXOXOXOXOXOXOXOXXXOXXX}.OXOX XOX XOXOX X XXXOX XOXXXXX X}.OXXXXXOXOXoX[.OXOXOXOXOXOXOXOXOXOXOXOXOXOXOXOX",
"OXOXOXOXOXOXOXOXOXOXOXOXOXOXOXOXXXOXXX.XoXOXoX|.OXOXOXOXOXOXOXOXOXOXOXOXOXOXOXOX{.oXoXOXOXoXoXOXOXOXOXOXOXOXOXOXOXOXOXOXOXOXOXOX",
"OXOXOXOXOXOXOXOXOXOXOXOXOXOXOXOXOXOXOXOXoX'.E.T.U.P.U.U.U.U.U.U.P.P.P.P.P.P.P.P.T.E. XOXoX.XXXXXOXOXOXOXOXOXOXOXOXOXOXOXOXOXOXOX",
"OXOXOXOXOXOXOXOXOXOXOXOXOXOXOXOXoX{..XOXL.p.! F H H P P W W Q Q I I I Q Q Q I I U 8.J.}.oXOXOXOXOXOXOXOXOXOXOXOXOXOXOXOXOXOXOXOX",
"OXOXOXOXOXOXOXOXOXOXOXOXOXOXOXOX XoX[.^.u.b r ..V o.G I ^ =.@.+.&.&.&.&.X.&.&.G g p H F.oXoXOX XOXOXOXOXOXOXOXOXOXOXOXOXOXOXOXOX",
"OXOXOXOXOXOXOXOXOXOXOXOXOXOXOXOXOXoXOXG.:.z , , T #.L 7.) #.4.-.*.*.*.*.=.;.+.M f s j j.|.oXOX XOXOXOXOXOXOXOXOXOXOXOXOXOXOXOXOX",
"OXOXOXOXOXOXOXOXOXOXOXOXOXOXOXOXOX.X Xn.G T   X : I / H.y.*.P ` &.=.&.&.,.=.L g 8 s j e.}.OXOX XOXOXOXOXOXOXOXOXOXOXOXOXOXOXOXOX",
"OXOXOXOXOXOXOXOXOXOXOXOXOXOXOXOXOXOX}.h.G W @ . E X.^ 9.5.@.,.@.&.*.&.&.,.+.x a f c g e.].OXOX|.OXOXOXOXOXOXOXOXOXOXOXOXOXOXOXOX",
"OXOXOXOXOXOXOXOXOXOXOXOXOXOXOXOXOXOX Xx.L G Z U  .I &.V >.=.=...&.=.&.=.;.G f f k s g r./.OXOX.XOXOXOXOXOXOXOXOXOXOXOXOXOXOXOXOX",
"OXOXOXOXOXOXOXOXOXOXOXOXOXOXOXOX|.OXoXN.Y s [ | L ~ Q -.W ( H 6.=.&.&.=.X.x a g k p s i.I.XXOXOXOXOXOXOXOXOXOXOXOXOXOXOXOXOXOXOX",
"OXOXOXOXOXOXOXOXOXOXOXOXOXOXOXOX|.OXOXA.^ d [ m G } *.J @.>.*.G &.&.&.Q v f f g k s g w.I.OXXXOXOXOXOXOXOXOXOXOXOXOXOXOXOXOXOXOX",
"OXOXOXOXOXOXOXOXOXOXOXOXOXOXOXOXOX X XC.J v @.U W } P <...| ` #.&.&.&.L f f j a f c j e.R.OXXXOXOXOXOXOXOXOXOXOXOXOXOXOXOXOXOXOX",
"OXOXOXOXOXOXOXOXOXOXOXOXOXOXOXOXOXOX|.Z.O.x F G J S I $.o.~ <.&.&.+.%.z 5 C l a f a j r.`.OXOXOXOXOXOXOXOXOXOXOXOXOXOXOXOXOXOXOX",
"OXOXOXOXOXOXOXOXOXOXOXOXOXOXOXOXOXOX|.b.O.x F G J &.G I X.>.} X.^ >.b a k f g f f a h 0.^.OXoXOXOXOXOXOXOXOXOXOXOXOXOXOXOXOXOXOX",
"OXOXOXOXOXOXOXOXOXOXOXOXOXOXOXOXOX X Xh.@.j H F M [ | ( P #.O.*.i.Y g s v f g r f s g 0.^.OXOX|.OXOXOXOXOXOXOXOXOXOXOXOXOXOXOXOX",
"OXOXOXOXOXOXOXOXOXOXOXOXOXOXOXOXOX.XOXh.@.h F B M ..X.n J P 2.a.J.y g g g f f e f a f 0.Y.OXOXOXOXOXOXOXOXOXOXOXOXOXOXOXOXOXOXOX",
"OXOXOXOXOXOXOXOXOXOXOXOXOXOXOXOXOX.X|.h.@.h H B Y l P :.B s.]. Xl.- r f f f g f f a k t.^.OXOXOXOXOXOXOXOXOXOXOXOXOXOXOXOXOXOXOX",
"OXOXOXOXOXOXOXOXOXOXOXOXOXOXOXOXOX|.OXh.@.x F B K +.S I C S.oX!.1 < w a g 8 l f f a h 0.^.OXOXOXOXOXOXOXOXOXOXOXOXOXOXOXOXOXOXOX",
"OXOXOXOXOXOXOXOXOXOXOXOXOXOXOXOXOXOXOXb.@.m A F A { H ^ C j..Xk.o < t a h 7 f f f a h 0.^.OXOX XOXOXOXOXOXOXOXOXOXOXOXOXOXOXOXOX",
"OXOXOXOXOXOXOXOXOXOXOXOXOXOXOXOXOXOX XZ. .x x G S ] Q i L 3.D., O > l c 8 e t f e 8 h q.Q.OXOXOXOXOXOXOXOXOXOXOXOXOXOXOXOXOXOXOX",
"OXOXOXOXOXOXOXOXOXOXOXOXOXOXOXOXOXOX.XM.+.v G F B J G G X.F k 8 e t e f t e f t t 8 f t.^.OXOXOXOXOXOXOXOXOXOXOXOXOXOXOXOXOXOXOX",
"OXOXOXOXOXOXOXOXOXOXOXOXOXOXOXOXOXOX XM.+.j M F F G G I I B e e e t e e e e e e f 8 r t.~.OXOX XOXOXOXOXOXOXOXOXOXOXOXOXOXOXOXOX",
"OXOXOXOXOXOXOXOXOXOXOXOXOXOXOXOXOXOX XM.+.v G F G F L &.L k 8 e e e e e e e e e e 7 h r.(.OXOXOXOXOXOXOXOXOXOXOXOXOXOXOXOXOXOXOX",
"OXOXOXOXOXOXOXOXOXOXOXOXOXOXOXOXOXOX XM.+.v G F J F I I x e e e e e e e e e e e t 7 r r.(.OXOX|.OXOXOXOXOXOXOXOXOXOXOXOXOXOXOXOX",
"OXOXOXOXOXOXOXOXOXOXOXOXOXOXOXOXOXOX XM.+.v G F G G I F e w t 7 e e e e e e e e t 6 t r.).OXOXOXOXOXOXOXOXOXOXOXOXOXOXOXOXOXOXOX",
"OXOXOXOXOXOXOXOXOXOXOXOXOXOXOXOXoXOX XM.+.v B F G L F k 7 e t w w e e e e e e e e 7 r r.).OXOX|.OXOXOXOXOXOXOXOXOXOXOXOXOXOXOXOX",
"OXOXOXOXOXOXOXOXOXOXOXOXOXOXOXOXOXOX|.M.+.j v F F F x e w e w e w t e e w e w e e 6 r u.).OXOXOXOXOXOXOXOXOXOXOXOXOXOXOXOXOXOXOX",
"OXOXOXOXOXOXOXOXOXOXOXOXOXOXOXOXOXXXOXM.+.g B F B B t w t w 7 t e w w w w w w w t 3 r r.).OXOX XOXOXOXOXOXOXOXOXOXOXOXOXOXOXOXOX",
"OXOXOXOXOXOXOXOXOXOXOXOXOXOXOXOX|.OX XM. .g v v z z e e 8 w w e w w w w w e w w e 3 e r.).OXOX XOXOXOXOXOXOXOXOXOXOXOXOXOXOXOXOX",
"OXOXOXOXOXOXOXOXOXOXOXOXOXOXOXOXOXOXOXM.L g v l z f e 7 w e e e w w w w w w w w e 3 r r.).OXOXOXOXOXOXOXOXOXOXOXOXOXOXOXOXOXOXOX",
"OXOXOXOXOXOXOXOXOXOXOXOXOXOXOXOXOXOX XM.L f l l f e 7 e w e w w w w w w w w w w w 3 e r.).OXOXOXOXOXOXOXOXOXOXOXOXOXOXOXOXOXOXOX",
"OXOXOXOXOXOXOXOXOXOXOXOXOXOXOXOXoXOX XM.L 8 f f e w e 7 w e w w w w w 0 w w w w w 3 r r.'.oXOX|.OXOXOXOXOXOXOXOXOXOXOXOXOXOXOXOX",
"OXOXOXOXOXOXOXOXOXOXOXOXOXOXOXOXOXXXOXm.K 8 f t e w w w w w w 7 0 w w w w w w w e 5 w w.(.OXOX XOXOXOXOXOXOXOXOXOXOXOXOXOXOXOXOX",
"OXOXOXOXOXOXOXOXOXOXOXOXOXOXOXOXoXOX XM.F 8 f w e e e e w w w 7 w w 7 w w 7 7 0 e 3 r r.).OXOXOXOXOXOXOXOXOXOXOXOXOXOXOXOXOXOXOX",
"OXOXOXOXOXOXOXOXOXOXOXOXOXOXOXOXOXOX Xm.K 7 e w w w w w w w w w 7 w w 0 w w w 0 e 3 w r.).OXOX XOXOXOXOXOXOXOXOXOXOXOXOXOXOXOXOX",
"OXOXOXOXOXOXOXOXOXOXOXOXOXOXOXOXOXOXOXm.K 7 e w 7 w w w w 0 w w w 5 7 w 5 5 w 7 e 3 e r.~.OXOXOXOXOXOXOXOXOXOXOXOXOXOXOXOXOXOXOX",
"OXOXOXOXOXOXOXOXOXOXOXOXOXOXOXOXOXoX XZ.A 3 e e w w 0 w w w w q 0 0 w 5 0 w 0 0 0 3 w w.).OXOXOXOXOXOXOXOXOXOXOXOXOXOXOXOXOXOXOX",
"OXOXOXOXOXOXOXOXOXOXOXOXOXOXOXOXOXoXOXZ.A 3 w w 8 e e w w 0 0 0 5 w 7 w 5 w 7 0 0 3 w r.).OXOX|.OXOXOXOXOXOXOXOXOXOXOXOXOXOXOXOX",
"OXOXOXOXOXOXOXOXOXOXOXOXOXOXOXOXOXoXOXZ.A 3 e w w 0 0 e w w t e 0 5 0 7 w 7 w 7 0 2 r w.(.OXOXOXOXOXOXOXOXOXOXOXOXOXOXOXOXOXOXOX",
"OXOXOXOXOXOXOXOXOXOXOXOXOXOXOXOXXXOX XZ.A 2 e w 9 0 0 0 0 w 0 w 9 9 5 0 5 w 7 0 0 2 7 w.(.OXOX XOXOXOXOXOXOXOXOXOXOXOXOXOXOXOXOX",
"OXOXOXOXOXOXOXOXOXOXOXOXOXOXOXOXOXoXOXZ.A 3 e w 8 e e w 9 = * & % $ 4 4 5 5 5 5 0 2 7 r.).OXOXOXOXOXOXOXOXOXOXOXOXOXOXOXOXOXOXOX",
"OXOXOXOXOXOXOXOXOXOXOXOXOXOXOXOXOXOX XZ.A 3 e w w w 7 0 9 = * & % $ 4 4 4 5 5 4 5 2 7 w.(.OXOX XOXOXOXOXOXOXOXOXOXOXOXOXOXOXOXOX",
"OXOXOXOXOXOXOXOXOXOXOXOXOXOXOXOXOXOX XZ.A 3 w w 0 0 0 0 0 0 9 9 $ $ 5 5 5 5 5 5 5 2 7 w.).OXOXOXOXOXOXOXOXOXOXOXOXOXOXOXOXOXOXOX",
"OXOXOXOXOXOXOXOXOXOXOXOXOXOXOXOXOXoXOXZ.A 3 e w w w w w w 9 4 = $ 4 5 5 7 7 5 5 5 2 7 w.).OXOX|.OXOXOXOXOXOXOXOXOXOXOXOXOXOXOXOX",
"OXOXOXOXOXOXOXOXOXOXOXOXOXOXOXOXoXOX XM.N 7 w 5 w 0 w 5 5 5 4 4 4 4 5 4 5 7 5 7 5 3 6 t.).OXOX XOXOXOXOXOXOXOXOXOXOXOXOXOXOXOXOX",
"OXOXOXOXOXOXOXOXOXOXOXOXOXOXOXOXoXOXXXM.N 3 7 0 5 w w 0 0 4 5 4 4 4 4 5 5 5 5 5 0 3 5 w.).OXOX.XOXOXOXOXOXOXOXOXOXOXOXOXOXOXOXOX",
"OXOXOXOXOXOXOXOXOXOXOXOXOXOXOXOXoXOX}.N.N 7 7 w 7 w 7 0 0 5 4 4 4 4 5 5 5 5 5 5 0 3 7 i.'.oXOXOXOXOXOXOXOXOXOXOXOXOXOXOXOXOXOXOX",
"OXOXOXOXOXOXOXOXOXOXOXOXOXOXOXOXOXOX XN.A 7 e 7 w 7 w 0 0 5 9 4 4 5 0 5 5 5 5 5 0 3 7 r.'.OXOXOXOXOXOXOXOXOXOXOXOXOXOXOXOXOXOXOX",
"OXOXOXOXOXOXOXOXOXOXOXOXOXOXOXOXoXOX Xv.A 3 t 7 w 7 w w 0 0 0 0 5 0 5 0 0 7 0 5 0 3 7 w.~.OXOX XOXOXOXOXOXOXOXOXOXOXOXOXOXOXOXOX",
"OXOXOXOXOXOXOXOXOXOXOXOXOXOXOXOXOXXXOXv.m 3 t e e w e w w w 0 0 0 0 7 w w 7 w 0 w 5 6 q.~.OXOX|.OXOXOXOXOXOXOXOXOXOXOXOXOXOXOXOX",
"OXOXOXOXOXOXOXOXOXOXOXOXOXOXOXOXoXOX|.S.D 6 w t w e w e e e e e w 0 w w w w w w e 5 r i. XoXOX.XOXOXOXOXOXOXOXOXOXOXOXOXOXOXOXOX",
"OXOXOXOXOXOXOXOXOXOXOXOXOXOXOXOXoXOXOXK._ r 6 k e e e e e e e e w e e w e e w w w 7 m j. XoXOXOXOXOXOXOXOXOXOXOXOXOXOXOXOXOXOXOX",
"OXOXOXOXOXOXOXOXOXOXOXOXOXOXOXOXoXoX X_.B.R 3 s 8 6 6 7 6 7 8 7 6 7 7 6 6 6 6 6 g q a.Q.OXOXOX|.OXOXOXOXOXOXOXOXOXOXOXOXOXOXOXOX",
"OXOXOXOXOXOXOXOXOXOXOXOXOXOXOXOXOXXXOXOX XL.V.z.z.z.z.v.z.v.v.v.v.v.v.x.z.z.z.z.c.D._.|.{.oXOXOXOXOXOXOXOXOXOXOXOXOXOXOXOXOXOXOX",
"OXOXOXOXOXOXOXOXOXOXOXOXOXOXOXOXXXOXOXoXoXoXOX XOXXXXXXX XOXOXOXOXOXXXXXXXXXXX X XOXoXoXoXOXOX}.OXOXOXOXOXOXOXOXOXOXOXOXOXOXOXOX",
"OXOXOXOXOXOXOXOXOXOXOXOXOXOXOXOXOXOXOXXXXXOXOXOXoXOXoXOXoXOXOXOXOXoXOXoXoXOXoXOXOXXX.XOXOXOX.X XOXOXOXOXOXOXOXOXOXOXOXOXOXOXOXOX",
"OXOXOXOXOXOXOXOXOXOXOXOXOXOXOXOXOX|.OXOXOXXXXXXXOXOXOXOXOXOXOXOXOXOXOXOXOXOXOXOXXXOXXXOXOX X X|.OXOXOXOXOXOXOXOXOXOXOXOXOXOXOXOX",
"OXOXOXOXOXOXOXOXOXOXOXOXOXOXOXOX X|.OX X.X|.OXoX XOXOX X X XOX XOXOX XOXOX X XOX.XOXOX X XOX X|.OXOXOXOXOXOXOXOXOXOXOXOXOXOXOXOX",
"OXOXOXOXOXOXOXOXOXOXOXOXOXOXOXOXOXOXOXOXOXoXOX|.OXOXOXOXOXOXOXOXOX XOX XOXOXOXOXoXOXoXoXOXOXOXOXOXOXOXOXOXOXOXOXOXOXOXOXOXOXOXOX",
"OXOXOXOXOXOXOXOXOXOXOXOXOXOXOXOXXXOXOXOXOXOXOXOXOXOXOXOXOXOXOXOXOXOXOXOXOXOXOXOXOXOXOXOXOXOXOXXXOXOXOXOXOXOXOXOXOXOXOXOXOXOXOXOX"
};