/* XPM */
static char *_650616233b045dcc7823f4b810342271ywSn0D4I5qE0apW[] = {
/* columns rows colors chars-per-pixel */
"64 64 252 2 ",
"   c #040403",
".  c #0A0302",
"X  c #050806",
"o  c #0A0A05",
"O  c #050609",
"+  c #050909",
"@  c #0B0B0B",
"#  c #0A070A",
"$  c #130301",
"%  c #120A05",
"&  c #140C0B",
"*  c #180908",
"=  c #0D120B",
"-  c #13120D",
";  c #1A140C",
":  c #0D0D11",
">  c #130D13",
",  c #190D10",
"<  c #0D1212",
"1  c #141314",
"2  c #1B1514",
"3  c #1B1A15",
"4  c #15141A",
"5  c #1A161C",
"6  c #1B1B1D",
"7  c #161A17",
"8  c #281509",
"9  c #231B1B",
"0  c #271916",
"q  c #351B15",
"w  c #2E0D05",
"e  c #1E211C",
"r  c #29241C",
"t  c #36271C",
"y  c #35230D",
"u  c #1D1C22",
"i  c #1B1826",
"p  c #211E25",
"a  c #241E28",
"s  c #301F27",
"d  c #1E2327",
"f  c #232126",
"g  c #2B2323",
"h  c #25232A",
"j  c #29252D",
"k  c #2C292E",
"l  c #2A2A27",
"z  c #3B2E2B",
"x  c #352925",
"c  c #3B322D",
"v  c #373328",
"b  c #2D2A32",
"n  c #2A2733",
"m  c #312C34",
"M  c #322E39",
"N  c #392D34",
"B  c #2D323A",
"V  c #333235",
"C  c #3B3332",
"Z  c #35323B",
"A  c #3B353C",
"S  c #3B3A3E",
"D  c #393C38",
"F  c #29322F",
"G  c #4D130F",
"H  c #720D10",
"J  c #45241C",
"K  c #4F3110",
"L  c #64371A",
"P  c #452924",
"I  c #552C27",
"U  c #483429",
"Y  c #56372A",
"T  c #463937",
"R  c #583A34",
"E  c #752B28",
"W  c #68372A",
"Q  c #653B38",
"!  c #723C30",
"~  c #39433C",
"^  c #714817",
"/  c #4A453A",
"(  c #58463A",
")  c #504D31",
"_  c #674737",
"`  c #764539",
"'  c #6D502B",
"]  c #7C682A",
"[  c #7B683A",
"{  c #69531B",
"}  c #3A3641",
"|  c #3C3B43",
" . c #3A3947",
".. c #2D3245",
"X. c #413D44",
"o. c #433E4A",
"O. c #473943",
"+. c #6D3E42",
"@. c #3D4349",
"#. c #44424B",
"$. c #4A454D",
"%. c #494647",
"&. c #544C44",
"*. c #574A49",
"=. c #5B5349",
"-. c #4A4552",
";. c #4C4A53",
":. c #4A4856",
">. c #544C57",
",. c #4F5559",
"<. c #54525C",
"1. c #5A5555",
"2. c #674945",
"3. c #794B45",
"4. c #67554B",
"5. c #765647",
"6. c #665856",
"7. c #765854",
"8. c #6C4E50",
"9. c #6B6459",
"0. c #786759",
"q. c #74694B",
"w. c #5C5B6C",
"e. c #585665",
"r. c #525066",
"t. c #645B67",
"y. c #6B5E6C",
"u. c #5B6270",
"i. c #696568",
"p. c #766766",
"a. c #7A7468",
"s. c #666577",
"d. c #736C72",
"f. c #787476",
"g. c #6B7372",
"h. c #980807",
"j. c #900F0C",
"k. c #A40A0E",
"l. c #8D2E2F",
"z. c #AE3434",
"x. c #86561C",
"c. c #816D2B",
"v. c #887537",
"b. c #907535",
"n. c #8F5D2E",
"m. c #8A3E41",
"M. c #885849",
"N. c #895C55",
"B. c #8F554C",
"V. c #AF544F",
"C. c #836A4A",
"Z. c #8C7A46",
"A. c #876758",
"S. c #97675A",
"D. c #877555",
"F. c #94784D",
"G. c #886B65",
"H. c #956965",
"J. c #86766A",
"K. c #987769",
"L. c #887A77",
"P. c #997977",
"I. c #826F74",
"U. c #A7756A",
"Y. c #A97B77",
"T. c #B3776D",
"R. c #A66358",
"E. c #C0504C",
"W. c #7C857C",
"Q. c #938450",
"!. c #87847C",
"~. c #98857A",
"^. c #968466",
"/. c #A7867A",
"(. c #B5837B",
"). c #A68A6F",
"_. c #A08443",
"`. c #C1867E",
"'. c #767686",
"]. c #5B7A8E",
"[. c #877C83",
"{. c #977E81",
"}. c #738892",
"|. c #5C90B1",
" X c #6E98B2",
".X c #70A3C2",
"XX c #898687",
"oX c #958B8B",
"OX c #998987",
"+X c #96968B",
"@X c #938C96",
"#X c #9A9796",
"$X c #8B8F95",
"%X c #A68A85",
"&X c #BA8A83",
"*X c #A9958B",
"=X c #B6968B",
"-X c #A69695",
";X c #B89C95",
":X c #B18E92",
">X c #97A69D",
",X c #B9A49A",
"<X c #ADA698",
"1X c #9498A7",
"2X c #A59DA2",
"3X c #B39EAB",
"4X c #95A6B1",
"5X c #A7A8A9",
"6X c #BCACA3",
"7X c #B6A9A8",
"8X c #BEB5B2",
"9X c #B6B6B8",
"0X c #B1B2AF",
"qX c #D29C95",
"wX c #C7928A",
"eX c #C6A69A",
"rX c #D6A49C",
"tX c #C2ADA3",
"yX c #C6A8A6",
"uX c #D5ABA9",
"iX c #C4B4AC",
"pX c #C9B3A9",
"aX c #DAB5AB",
"sX c #C2B6B3",
"dX c #C8BAB5",
"fX c #D9B8B6",
"gX c #C5AFB1",
"hX c #E4BAB7",
"jX c #E7B3AB",
"kX c #C69FA2",
"lX c #B7C4BB",
"zX c #C8C5BC",
"xX c #D2C1B8",
"cX c #E7C4BC",
"vX c #B3B6C2",
"bX c #87ABC5",
"nX c #D0BDC4",
"mX c #CAC8C5",
"MX c #D7CAC8",
"NX c #CDD2CC",
"BX c #D5D4CD",
"VX c #D9D7D6",
"CX c #D0CDD2",
"ZX c #E6C9C5",
"AX c #E6D8D7",
"SX c #EFD2CD",
"DX c #D5E2DC",
"FX c #DDE2CE",
"GX c #E6E5DE",
"HX c #DBDDE4",
"JX c #D9E4E5",
"KX c #E5E6E8",
/* pixels */
"&./ ( =.4.( 6.6.4.*.t.s , T 0 $ . =.tXtXiX6XmXDXJXJXJXJXJXJXVXNX8XiXdXpX,X~.a.=   o # . .   =     . . X X X X     + + X X . . . ",
"/ / &.=.6.4.6.4.*.T 6.g 0 C 0 , . =.6XtXiX6XmXDXJXJXJXHXHXVXVXNX8XsXpX,X*X~.a.; o o . * .   =       X X X X X X   + + X X X . . ",
"&./ &.&.4.6.6.6.6.*.p.c , 0 , % . 6.tXtXdX6XzXDXDXJXJXVXVXVXBXBXMXMXfXuX;X%X0.o   - . * . . o   X o # @ # X O O O + +   X X   . ",
"1.%.&.&.6.6.4.9.4.*.9.c % . , % . 9.pXtXdX6XzXJXDXJXHXVXCXBXBXMXAXSXZXhXaXeXJ.t . * % . . %   X X X + @ + + O O O O X   X X   . ",
"T / &.=.9.=.&.&.=.*.6.T 0 0 t ; . 9.dXtXpX6XzXKXDXJXAXVXMXMXZXZXSXZXhXhXjXaX,XL.0 . $ . $ , . o X X X X + + + + O O     X       ",
"6 C T C ( / T v T / &.&.t v / r . 9.dXtXtX,XzXGXVXVXVXMXnXZXZXZXZXZXhXjXuXrXeXyXJ.. . % # * * .       X   X + + O               ",
"p C l v C r v v r c T =.t t ) v . 9.dXtXtX6XzXVXVXVXMXfXfXfXZXZXcXcXhXjXqXwX&XeXpXc . & & & * .     X X     O O O       X       ",
"A %.x / &.3 v / / %.T 6.x v / t . 9.dXtXtX6XzXBXVXBXMXfXuXfXhXhXfXfXuXrXqXqX&X;XdXp.. . - - o o X X X X         O     X X       ",
"N c x x x x T T &.v *.%.c =.=.v . 9.dX6XpXtXdXVXAXmXMXgXuXfXhXhXfXhXaXrXqXqX(.=XpX~.  = 6 3 o - o X X     + +   +     + X     X ",
"x x t t t t v v T g %.T ; g c r . 0.xXtXtX6X8XmXBXAXgX,XuXuXhXcXfXcXaXaXeX=X(.=X;XJ.. X = o   1 @ o     X       O O   X       X ",
"t t 8 8 8 y t x x c 6.6.g - 3 % . p.xXeXtX6XsXmXBXAX7X;XfXhXuXuXuXuX=X;X=X=X(.P.%XL.%     = - - o X     + X   + O O O X       o ",
"K K K U U U U U T U 1.XXXXL.L.6.t L.dXeXpXtXzXMXBXVX;Xp.P J J Y N.Q w 8 8 U 7.P./.7.% 9 l 3 = - - 1 @   X + O @ O + +       X @ ",
"' [ [ q.C.C.D.q.0.0.p.oX#XoX+Xf.9.*XdXtXpX6XzXmXVXmX*.s * $ w $ P.I $ $ . $ $ I Q Q x 0 3 o - ; 6 k f X   + X O O + + X X X o @ ",
"] [ ] ] [ [ D.D.0.J.!.oXXXf.XX!.L.*XtX,XpX6XzXBXNXmX*.0 0 8 $ q hX+.$ $ % % * 2.Q G.8.0 % l / r 3 C f     +     O O X     X o o ",
"] ] ] v.v.Z.Z.C.q.J.L.oX#X#X#XoXJ.*X,X;XtX,XMXBXBXmXf.g 0 0 * 7.hXH.q * . $ t H.H.3.P 8 t c / e - l 3   X @               # . . ",
"] c.] c.v.Z.F.q._ 4.0.9.9.a.!.oX!.<XtX,XtX,XzXNXVXVXoX2.P q ( %XuX&X2.t 8 q R N.3.Q R U T x D v - g 2 . @ -               # . . ",
"] ] c.v.v.Z.D.^.0.=.T c / / ) a.!.+X,X,X6X7XzXBXVXAX;XP.H.U.(.&XjX&XH.U.B.` m.M.B.N.R 8 x g v r $ c 0 % 9 o 2   .         X X   ",
"c.c.v.v.v.Z.Q.^.a.=.=.6.9.=.) ) 9.+XiX6X6XiXMXNXBXAXyXH.T.wXwXB.N.W B.T.R.R.B.B.M.G.0.6.i./ x c T *.; ; r ; .     . .         @ ",
"] v.c.v.] Q.Q.).~.p.OX-X-XOXJ.) 4.*XpX,X,X6XzXzXGXVXgXP.Y.wXqX3.w w I T.T.R.R.N.5.G.~.#X+X-X!.T 9.6.; ; r 2 . % . . .   o o     ",
"] b.] v.Q.Q.[ D.J.G.-XOXOX-X*X0.0.*XeX,X,X,XzXNXNXAX7X%XY.&XN.I ` W G L B.U.U.S.A.P.OX#X#X!.f.oXa.9.; . g 0 . . . . . # .   . o ",
"v.Q.v.Z.Z.Q.' y ( 7.OX*X*X~.G.5.J.=X,X=X,X<XmXVXHXmXy.{.kXH.G W w G K w W wXU.A.2.a.XX#X2X;.1.2Xf.1.3 % *.f.6.T , . . .     - o ",
"F.v.' { L F.D.K y P 7.:X:X8.8 y q.=X,X=X6X6XNXNXVXXXO.L.kXN.Q S.H.N.S.! ! H.H.2.T p.#X#X5Xg.g.XXf.1.- o x OXL.p.4.0 . . . . @   ",
"S.M.L K K F.).C.( R 2.%X*X7.w y Y ~.=X*X6X7X9X5X'.w.>.p.%XP.(.S.N.` ! B.S.M.A.J U L.#X#X5Xf.i.5Xi.D o . * I.L.p.p.6.&.C 9 .   o ",
"N.S.` K M.^.K.K.2.4.4.%X;X~.U q U ~.*XOXoXd.s.,.w.t.-.1.{.P.U.U.M.M.B.S.S._ R t 0 1.XX5X#Xd.f.#Xi.f = o % 1.4.x *.p.I.a.9.l   o ",
"B.M.' W M.C.K.).2.( *.OX-XL.4.6.f.L.f.1.#.-.w.u.r.s.e.O.p.H.Y.qXwX`.(.U.3.Y R 0 0 C | >.$.>.d.@Xg.d < X . % 0 x z z T *.c r o o ",
"x.^ ^ ^ ' ' 5.0.4.4.6.p.L.L.oX[.i.<.| } @.r.w.-.w.r.e.>.+.7.H.T.T.S.N.M.W R U 8 0 S Z Z n o.t.f.f.B + @ @ . . 0 0 0 % . % o o o ",
"x.x.^ ^ ' 5._ 2.4.d.i.y.[.s.y.e.w.w.w.s.u.u.s.r.w.w.r.$.T 7.3.` M.` M.` I _ P 0 j m n } M j A >.w.w.b 1   > & & 0 % & c &.3 o   ",
"b.b.x.^ n.^.D.J.p.f.i.s.s.e.r.'.'.s.s.s.s.u.s.w.e.t.<.>.*.7.2.I I W ! Y I R r 2 a } o.-.-.o.#.#.| ,.<.<.1 . . . 9 c 1.f.1.  . @ ",
"x.^ K K { C.J.J.6.j  .s.u.'.s.s.s.w.r.e.e.r.e.>.e.<.e.t.T P 7.Q I W J J R t 0 g j } o.o.-.-.<.<.w.-.#.<.X.# . . . g *.i.g   O   ",
"b.K K K K D.!.*.k j e.e.e.w.e.r.-.-.:.:.@. .o.O.t.t.;.j : & *.8.I Y J J U % 2 A } } } o.#.M | <.<.w.e.;.;.f 1 1 1 o   2   @ 6 : ",
"_.K K K Y J.L.>.e.i.<.b #.#.;.e.t.<.-.;.;.;.>.$.t.>.d   O & g 8.Q Q R Y 0 . % f m -.>. . .} #.#.;.<.>.;.e.S = o = @ @ 7 1 @ # @ ",
"_.K ' ) =.!.f.$X:.,.u b Z V @.$.o.o.#.;.;.$.$.O.-.> O i u 6 2 6.L.0.p.*.* ; > @ 4 h }  .-.Z ;.e.t.w.r.-.| #.u @ X - &   : : O : ",
"F.{ q.) W.}.4Xu.@. .i i n b S | | | | $.$.$.$.A p h b | j f h A 2X2X2Xp   5 Z h 5 1 i Z Z Z -.<.>.e.M  . .i | : @ # . . X + @ + ",
"^.^.q.=.>X1X}.u.....i 4 a b Z b V Z S $.#.S X.| X.| m b b Z b a [.5Xs.1 4 f b | | S | $.X.Z $.;.>.#.j n h h >.4   . % * & o + O ",
"/.~.J.&.5XvX'.....n 4 5 p g k f k b m S Z b M b m b b h b Z Z u i.5XZ 4 u j u | Z m Z | n p m Z X.h f n n | <.k # % * & o o + + ",
"%XOXL.d.XXHXe.B B i 1 6 9 r c C | o.o.$.;.<.<.#.-.#.;.#.#.| o.Z ;.$Xf b i b b Z | | #.$.A m #.$.#.u 6 6 Z | #.1.% % % % & = - 1 ",
"~.L.p.d.XX5Xn n Z 4 > 2 2 g c A A } Z | o.o.#.Z -.| $.X.| M } b Z i.j b u Z | | o.#.#.#.m b X.$.h & k V #.| V >.& % . . .       ",
"9.OX#XL.d.A A | h 1 1 1 6 g a a M M M } } b M b } M | | Z | o.m f ;.Z u j | | ;.$.#.#.X.n j } S f 1 V Z Z @.;.>.D C x x c C V V ",
"a.6X!.OX9.*.>.j 6 : 1 4 u a n -.-.r.w.s.s.s.'.f.f.;.Z Z b Z Z h f S Z 4 b Z S | X.| | S h p m b & 6 #.#.#.,.<.| d.d.f.XXoX#X#X2X",
"9.6X9.9.1.c 9 1 f @ : 4 i i -.3X1XvXnXvXvXVXHXnXKX'.j b b } Z j f f b u j b S j m m m b u u j p & C A V ;.;.;.S f.XX-X0X8X9X5X#X",
"+XFX!.9.*.g & 9 3 + 4 4 4 i ..@X@X1X1X@X@XvXCX9XCX'.S b } Z n j u h u p m b f u h h h b b u 1 5 > f S ;.;.;.<.M >.2XmX7X2X#X#XXX",
"GX<X6.1./ p g 2 @   < < 4 u i o.o.-.-.-.>.>.e.e.<.-.| | Z h a n p h 4 6 Z m h k j m V k u i 6 5 5 A -.<.r.,.>.o.m oX7X-X#XoXoXoX",
"BXi.k j X.5 1 7 - - = o 6 1 @ b b ;.>.>.w.<.;.;.-.o.} } | S n u 5 u 4 h X.Z p b #.S Z S Z S m 6 @ S ;.>.<.#.} } ;.@X-XOXOX[.[.oX",
"[.O.m p X.h O 6 @   - r = o l V | ;.o.Z Z } o.| #.| Z b M Z Z m 6 4 u Z #.Z p j X.V S | b f j h h | o.o.-.;.<.t.$.I.-XL.L.P.{.OX",
"L.T T A b j : : 1 & - %   o r ~ $.| b b j j Z Z b b b b b b M Z k 5 m X.Z b h h S k b b 1 @ 6 f j j Z }  .-.>.-.m 6.7X{.G.%X*XOX",
"yX2.x C f u + + @ . % ; % - = D V b b Z m Z } a b j j b Z M b b m p S #.m b f u k j k h 6 u f 6 1 5 | <.<.<.-.A O.T *X*XP.%X*X%X",
"uXK.U x k d + : # & *.6.. 6 f 6 h k f f h k j 4 u h b b b n b Z h h X.A b b 5 5 : 6 h f 4 1 1 7   @ V #.-.;.$.*.*.x 8.%X/.=X%X/.",
"&X&X8.U x 7 <   @.2XmXd.. k d d 4 1 > k X.k p j h b Z m b b b b h m Z u f k > u u 1 O # @ O   X . 9 | | | Z j T O.T R %X/.=X/.H.",
"(.S.2.R t o 7 ,.lXNX9Xf.< d F n h h k b j h j m b b j j j j h p p 6 6 5 5 5 5 4 > j > 1 > o @   . T 5 p b j ;.6.1.8.8.H.(.&X(.S.",
"T.M.Y P / c +X$X>XlXlX$Xe l d d k j j j h h h j k j h h h h p 6 7 1 1 1 > 1 > > 2 5 # . . . . . $ &.N C V ;.t.L.oX%XP.Y.(.(.wXT.",
"U.B.I Y T a.mX+X>X9X0X+Xf j h b j h h j j j j j h f p f h h p 6 7 7 1 1 1 > > > , 0 T p.;X%X7.J.P 4.*.z *.f.-XsX6XyX;X=X&X(.wXwX",
"S.M.W R R 7XzX+X}.5XlX+Xk m m p m b b b j f u u f f p p f h f f u 6 6 7 7 1 1 > , p.AXSXZXSXhX;XeX%XL.p.oX5X7X-X*X=X%X(.(.T.(.wX",
"S.` _ P OXMXmX0Xi.>XNX$Xh j O.A k b b j p p f h f h h p u u p h f e 6 3 7 1 1 , . ~.ZXcXuXY.S.(.aXeX=XpXOX*X%X*X/.P.A.N.H.U.Y.Y.",
"S.` Q R fXAXmXmX5XXX}.g.F k A m k b j p 6 u h b f h f p 6 5 u f e 6 7 7 3 3 2 ; r tXyXH.3.U.rXjXwX/.K.;X~./.J.G.K.A.5.3.S.Y.K.P.",
"` _ I 2.yXAXCXVXmX5X5X5X@.l k O.| S m p 5 5 u u h f p p p u u p d 6 3 6 6 r 6 2 0 &.* J Y.SXjXT.M.C.K.A./.=XK.5.5.5.` _ A./.P.K.",
"_ Y Q R G.nXMXBXsXmXmXlX~ D k k Z V b h p h h h h p p h j j h f f 6 6 6 f f 6 3 , $ U ZXuXU.B.U.).).A.R G.eX5.J Y R R U 8.L.I.I.",
"_ Y G J +.kXSXSXMXgXsX8X%.F A j b b b k h h f p f f f f h h p p p p u u f h u 2 - 0 0 0.H.K.eXeXU._ 7.Y ( 2.U q P P t R i.d.#X2X",
"W W E m.S.qXhXZXuXuXfXsX1.V A m j k j j h h h p h h h h h h f p p p p p h h u 4 2 2 , $ *X=XA._ _ 0.0.q U U 8 x q z z 1.$X1XvX4X",
"E l.l.l.H E E E l.m.B.7.T C T N h h j j j h h h h h h h h h p p 5 5 5 5 u p u 4 @ 2 . * x 8 $ 0.%XG.%XOXU 8 t z &.C g <.1X4X4X4X",
"H H H H l.V.V.l.H H G G R T O.A j h h j j h h h f p p p p p u u 5 5 1 > 4 6 i 5 : @ 1 0 . r L.,XJ.6XsXxX<XOXoX7XdX#Xe.e.$X1X XbX",
"j.j.k.k.z.V.V.z.j.j.H H Q z N o.m j h j j j h h f p p p p p u 6 9 6 4 1 4 5 5 4 6 @ 5 . . C oXg T iX8XsX8XdXsXsX8XmX9X$X4X4X X X",
"j.h.k.h.h.j.j.j.h.h.j.H Q x n | Z b j j k j h h h f p p p p u 6 6 6 3 5 7 4 1 @ > > > 2 . % 2 . T 8X7X8XsXsX7XsX5X9X9X}.}. X X.X",
"h.h.k.h.k.j.j.h.k.k.j.H Q C n B | m j j k j h h h f p p p u u 3 6 3 7 1 1 1 > > 4 > > # 9 * . % / dXsX8X7XsX8X8X8X9X9X}.}. X|.|.",
"h.h.k.h.k.j.j.h.k.k.h.H R C n n | m j j k j h h f p p p u u 6 4 6 3 1 - 1 2 5 5 & & & & 9 & 2 . %.dX8XsXsXsX8XsX0X0XvX}.]. X|.|."
};
