/* XPM */
static char *a5b6daa81c684d9bb3690a57aaaf775a93RirtcdjBtoFKkH[] = {
/* columns rows colors chars-per-pixel */
"64 64 256 2 ",
"   c #111012",
".  c #13161C",
"X  c #191818",
"o  c #271D19",
"O  c #19231C",
"+  c #26251E",
"@  c #34291D",
"#  c #151720",
"$  c #161A23",
"%  c #191C24",
"&  c #1B1E2A",
"*  c #1B2627",
"=  c #1C222C",
"-  c #193529",
";  c #1E2432",
":  c #272826",
">  c #23252A",
",  c #342B25",
"<  c #2B3427",
"1  c #37372B",
"2  c #252833",
"3  c #242A34",
"4  c #242C3B",
"5  c #293636",
"6  c #2A323C",
"7  c #363738",
"8  c #43332A",
"9  c #553A2E",
"0  c #473C35",
"q  c #3A481A",
"w  c #194536",
"e  c #3B4328",
"r  c #294836",
"t  c #3A4636",
"y  c #29543D",
"u  c #34673B",
"i  c #42492C",
"p  c #5F5F2B",
"a  c #464838",
"s  c #56473B",
"d  c #4A553A",
"f  c #525631",
"g  c #63472E",
"h  c #694A3A",
"j  c #2B3444",
"k  c #2A344E",
"l  c #2D3848",
"z  c #353B47",
"x  c #353C55",
"c  c #613B48",
"v  c #1B5045",
"b  c #394848",
"n  c #285746",
"m  c #29544D",
"M  c #365647",
"N  c #3A4657",
"B  c #276749",
"V  c #386749",
"C  c #2A695A",
"Z  c #366A57",
"A  c #307351",
"S  c #38785B",
"D  c #374C71",
"F  c #2C7666",
"G  c #317367",
"H  c #377966",
"J  c #494947",
"K  c #554C47",
"L  c #4A5447",
"P  c #565648",
"I  c #5A5C4B",
"U  c #454C55",
"Y  c #584751",
"T  c #495556",
"R  c #575657",
"E  c #5C5B53",
"W  c #684E46",
"Q  c #67574B",
"!  c #77584A",
"~  c #655C53",
"^  c #765C54",
"/  c #4D6C4E",
"(  c #5A6356",
")  c #45755C",
"_  c #6D6E52",
"`  c #676659",
"'  c #64645B",
"]  c #77675A",
"[  c #565B65",
"{  c #495773",
"}  c #605F61",
"|  c #5D6568",
" . c #50716D",
".. c #666665",
"X. c #6C6A63",
"o. c #6B6B6C",
"O. c #756D66",
"+. c #68756A",
"@. c #77756A",
"#. c #696C73",
"$. c #736A73",
"%. c #6D7476",
"&. c #737374",
"*. c #787A76",
"=. c #74757B",
"-. c #7B7B7C",
";. c #963D39",
":. c #936331",
">. c #875A4F",
",. c #A35A54",
"<. c #876659",
"1. c #906A55",
"2. c #867669",
"3. c #91706A",
"4. c #97746A",
"5. c #847C76",
"6. c #A57C70",
"7. c #CC7951",
"8. c #3D8367",
"9. c #3B8577",
"0. c #568C58",
"q. c #6D9756",
"w. c #458567",
"e. c #568C6D",
"r. c #43887A",
"t. c #499579",
"y. c #6C8E6E",
"u. c #788579",
"i. c #6EA76F",
"p. c #9E9C57",
"a. c #B1B051",
"s. c #8A8F6E",
"d. c #87867C",
"f. c #8A847C",
"g. c #96877A",
"h. c #97927B",
"j. c #A78578",
"k. c #B19176",
"l. c #AFAA74",
"z. c #DD8C59",
"x. c #DF915E",
"c. c #E0925D",
"v. c #CDB94A",
"b. c #C6B55A",
"n. c #D69166",
"m. c #E29563",
"M. c #CBAC6B",
"N. c #E6A06E",
"B. c #EAA979",
"V. c #455589",
"C. c #485A95",
"Z. c #576887",
"A. c #556F8F",
"S. c #777B82",
"D. c #7A7C83",
"F. c #6C7990",
"G. c #657898",
"H. c #576DA7",
"J. c #6578B0",
"K. c #8C7E86",
"L. c #488D82",
"P. c #49958A",
"I. c #569B85",
"U. c #53968D",
"Y. c #7A8687",
"T. c #6F918E",
"R. c #58A186",
"E. c #5CA58C",
"W. c #57A397",
"Q. c #64A48B",
"!. c #68A995",
"~. c #76AC92",
"^. c #5D8BA8",
"/. c #7888A6",
"(. c #728FB4",
"). c #5DA9A2",
"_. c #72AAA7",
"`. c #6498C7",
"'. c #71A6CC",
"]. c #68AAD4",
"[. c #78B4D8",
"{. c #838483",
"}. c #878785",
"|. c #8B8A83",
" X c #84858A",
".X c #8B8C8B",
"XX c #938C87",
"oX c #8C938A",
"OX c #95928D",
"+X c #99958B",
"@X c #858993",
"#X c #8B8D93",
"$X c #8A9396",
"%X c #939394",
"&X c #979996",
"*X c #9B9A95",
"=X c #93959C",
"-X c #9C9D9B",
";X c #AF948D",
":X c #A59B89",
">X c #A39C96",
",X c #9CA29D",
"<X c #8CB195",
"1X c #A3A39D",
"2X c #AAA698",
"3X c #ADB092",
"4X c #8795AD",
"5X c #959BA3",
"6X c #9B9DA3",
"7X c #9DA4A6",
"8X c #93ADAF",
"9X c #A3A4A3",
"0X c #A8A8A3",
"qX c #ABAAA3",
"wX c #A2A5AB",
"eX c #A5ABAA",
"rX c #ABADAB",
"tX c #B2ADA9",
"yX c #ABB1AB",
"uX c #B7B5AA",
"iX c #A6A9B1",
"pX c #ACAEB3",
"aX c #ACB3B7",
"sX c #B3B4B4",
"dX c #B3B5BC",
"fX c #B8BAB8",
"gX c #C39988",
"hX c #C6B19C",
"jX c #C4B2A7",
"kX c #C4BCBA",
"lX c #B8C498",
"zX c #95C1B8",
"xX c #B6C5B4",
"cX c #C5CB99",
"vX c #D1D4AF",
"bX c #C7C6B7",
"nX c #DFE2B3",
"mX c #8CA6C9",
"MX c #95B1D1",
"NX c #B8BCC3",
"BX c #A8B8D5",
"VX c #91BEE3",
"CX c #ADC6CB",
"ZX c #BEC2C7",
"AX c #A0C7E5",
"SX c #C7C7C8",
"DX c #D1CFCD",
"FX c #D4D3C7",
"GX c #C8CCD3",
"HX c #CED0D5",
"JX c #D4D6DA",
"KX c #D5D6DA",
"LX c #D6D9DD",
"PX c #CBD7E7",
"IX c #DADDE1",
"UX c #DEE0E4",
/* pixels */
"AXAXAXVX[.].].`.].].].].[.VXZXGXVX[.].^.u.h.2X2XqXfXxXxXSXNXdX$Xu.=.Y.pX-Xf.O.I E +.fXJXJXkXsXsXsX2XXXf.:Xk.z.B.B.B.B.B.c.x.z.z.",
"].'.`.`.].].].[.[.[.[.[.[.VXGXGXVX[.(.| I ( @.@.d.2XuXfXxXNXdX$X-.#.Y.dX*Xf.X.d a a eXLXSX*.' O.O._ d f ~ >.7.N.B.B.B.N.c.x.c.x.",
"A.Y.-.Y.T.A.^.(.(.'.[.[.[.MXGXZX_./.}.X.' E ' @.d.1XqXqXrXNXdXrXpXY.@XNX*XOX@.d d t qXLXfXd a _ I a i 1 e g 7.c.B.B.B.m.x.x.m.c.",
"P ' ' ' L 1 L L T |  .A.A./.GXNX+.I X.+.' I L @.+X1X1X1X7XdXpX}.|.$XaXSX}.d.X.a e 1 eXLXaXa d ' I 1 1 1 a 1 >.7.m.B.N.c.x.x.x.x.",
"K I P I a 1 e 1 0 i e 1 < ..GXrXd e ' ' ' ' a I @.XX1X1X&XaX7X' P P {.eX*.@.' t + t eXLXrXI I ' ' a 1 L u.E ' 6.z.N.m.z.c.c.x.m.",
"P ' P L a t 1 a a a P < : ..GX-X< 1 E ' @.@.P a a ' |.OX.XaX5XE d i i +.' ' P t 1 a eXIXpXu.u.d.}.+.L *.,X&X9XqXgXn.n.z.z.z.z.N.",
"a I a t a a 1 L P a O.7 < +.GX#X< < E @.XXXXI d a P ( @.{.aX=XP d a i ' P a t < 1 t 7XIX9X+.1XfXfXyXy.,X7XyXyXkXkXhXhXn.7.7.7.n.",
"a I 1 : < 1 1 I P J |.J 1 =.GX.Xt J +.OXsXfXrXyXsX*.L O..X=X*.P I a e ' a i 1 < + 7 7XIX&X..sXHXDXGX8XfXaXsXyXbXSXuXkXj.! >.>.M.",
"d I t * * < 1 P s P +XE }.aXHXSXfXNXGXJXLXIXLXHXJXoXL X.*.] Q P I a i a 1 i a 1 : < ,XLXoX+.fXHXDXHXfXfX7XyXeXfXbXuXuXg.I P Q l.",
"f p ( Z n M i P P I |.E NXHXHXJXJXJXLXIXUXIXLXpXSX9XE @.*.Q ! Q d a <.<.1 L L t 1 1 -XLX}...yXfXSXGXxXfX,X7XyXfXfXuX2Xd.@.~ ! M.",
"d I l.3Xy.t i P I P @.J 9XSXSX%X9XGXSXfXeXsX6X6X#X%X*.u.Y.] >.@.L a 2.4.0 ..d t d a ,XJX-.( 7X7XsXZXSXfXfXeXrXkXtXtX2X|.@.~ ] M.",
"d I l.l._ 1 d I O.E *.K -X6X6XD. X#XD.&.o.| R &....X|.e.T.K.K.-X*.X.@.2.0 ~ d i f d ,XJX&.' eXeXyXxXSXfXsXrX0XsXsXtXqXXXO.~ ] l.",
"i f ' < , a ) / *.X.5.K -.o.R %X%X{.-.&.&...o..XJ %X*XT.'.'.4X%XOX....2.0 P d q q f 1XHX..' sXyXpXsXxXfXfXyX9X,XrXtX2Xf.E P Q 2.",
"e i +.< X t S w.u.O.@.J {.{.o.-X-X%X&X6X%X=XD. XK.pXaXmX`.`.(.<XzXu.' @.s 0 f q q f 1XSX' X.sXsXsXyXsXxXSXsX0X,XqXtX>X5.I P Q @.",
"e a  .5 X w B w.oX@.' a -XpXSXHXGXZXJXLXJXJXZXGXIXJXMX(.H.^._.xXxX<Xd.2.Q 1 q q q i -XSXI ..yXsXaXeXyXfXSXsX,X9X0XqX>Xf.' P Q 2.",
"T %. .- - w B S T.*.' L fXIXLXGXLXZX9XsXdX XdXJXLXHXY.b 7 L.R.M b ~.oX1.s t e q i a &XZXI +.eXsXsXrXrXsXfX0X&X%X1X0X>Xf.O.Q Q 5.",
"b Y.T - - B B A e.=.#...sXSXrXpXpXdX-. X#.o.rXLXJXJX5X^ h +.t o o 5 u.1.p / f d P P &XfXP {.rX9X,XyXsX9X,X,X,X%X1X2X>Xf.5.~ Q 5.",
", Y N 5 r y S B ) %.P 9 *X XK &.=X-X=X.X..&.6XIXJXHX=X<.1.I @ 9 9 @ ' p.b.p.p d ( E *XsXE &XsX7X$XeXsX,X,X,X1X&X*XOXXXf.f.~ ~ f.",
"b , : , t y B S S +.8 @ }..X..o.{.%XpXeX9XfXSXLXJXHX;X^ ! K 8 8 0 0 P _ v.b.q.d ( X.9XsX&.*XsXyXeX0XyXyXrX0X%XOX|.d.XX|.f.~ X.K.",
"b : X + 1 t B A S I o o *.sXsXpXdXGXGXNXJXJXJXJXJXHXg.Q h ] W W W Q ] / a.a.i./ ' ..7X9X&. X&X,X9X-X9XrXuXrXOX|.|.d.XXXX|.X.@.~ ",
"7 + O y  ./ A B / f     &.JXLXJXfXwXdXsXpX#XrXJXJXHXOX%.W 4.<.<.<.4.g.0.a.q.i.y.I I %X.X( Y.OXqX9X$X-X&X-X*Xd.f.|.f.f.5.@.5.o.R ",
"J : - ) Q.~.w.B u f     o.JXJXJXsX.X XpXwX-.9XLXLXJXOX#.' g.4.>.4.j.h.0.p./ i.i.I P %X}.R g.a.3XrX&X,X%X*X*XXX|.f.@.5.~ K O.R 7 ",
"R - - V e.Q.e.S B i X @ 2.JXJXJX9X#X-.=XNXrXNXLXLXGX5.| ' g.1.! <.j.s.i.i./ 0.i.P 8 {.{.[ ] :.k.yX0X0X0XqX1X>X|.O.@.f.Q , E 0 , ",
"Z.m - r ) e.w.S A d X 8 2.JXJXLXpXeXSXSXGXdXNXJXLXHXf.~ J ' ^ ^ <.2.i.i.i.u V q.I , -.o.R J 7 @.rXqX1X1X>XOXf.@.X.@.f.~ 8 s 7 9 ",
"G.{ < < V S w.A A ) r , 2.JXJXJXJXJXLXLXHXSXSXGXHXJX+XK a K ~ 2.] Q i.i.0.) 0.0.@.a Y.+.L K J @.1X1X*X.X@.E I I ~ d.|.Q 9 9 s h ",
"G.{ : < V S S B B ) / e ] JXLXIXLXLXLXJXDXDXLXJXDXfX@.a T +.s a s ] 3XhX:Xy.0.i.y.) Q.I.t.e. .y.oXT.T.T.y.( / _ _ OX+X^ g ! ! h ",
"oXF.r r V S Z B ) +.L t ( |.&XeX;Xj.;Xk.p.b.bXHX;XQ J @.~.r.t 8 K %.<XvXhX2./ 0.V S I.R.I.I.I.R.Q.Q.Q.!.!.Q.R.Q.Q.<X<Xu.oXkX<.h ",
"l.u.M 5 y V n n  .T T t t t J ( W ;.,.<.g 7.bXSX4.+.E.~.U.G Z )  .r.9.r.!.T.M V y S I.E.I.I.R.E.E.!.E.R.I.I.I.I.I.I.I.8XLXkX<.h ",
"b.0./ 5 5 r w n N k l L L 5 7 b a ;.,.] 9 :.bXZXd.Q.9.P.r.G G F C C 9.9.9.W.L.u M H I.E.E.R.R.E.E.Q.~.<X3X~.E.I.I.Q.CXPXHXuX! 9 ",
"p./ ) b 7 5 - v j 4 4 3 6 z z M t ;.>.<.g 1.SXGX!.G H 9.P.9.m v G F G U.U.W.).e.' w.I.E.!.E.E.E.~.<XlXvXvXlX~.!.!.CXPXBXMX4X[ j ",
"d y M M b b : 6 4 = = 4 j x x b t >.>.! 9 {.ZXCXr.H G F 9.C v C G 9.G P.).).).U.' w.I.E.!.E.Q.<XlXcXlXlXvXvXlX!.zXPXBXmXMX(.G.D ",
"i e y M U R 5 j 2 & & 4 j x x U K 1.>.W R #XNX_.9.H G F H  .H v F 9.P.P.W.U.P.U.t.w.t.E.<X<X3XcXcXqXF.G./.uXlX<XCXBXBXmXMX(.(.H.",
":.f n M b | b 6 = & $ ; j x x U %.o.Y R #.wX7XU.9.L.H 9.L.T.G v 9.W.).).W.P.P.W.W.r.t.~.lXvXcXcX3XA.C.C.C.G.3XxXmX(.mXmXBXmX(.4X",
"p e V M b | b 4 & & $ = j x k N G.T R R Y.wX$XL.L.9.L.L.L.T.F B F _.8X).).W.W.W.W.t.t.~.cXnXvXcXY.C.C.C.C.C. XbXmX(.(.mXBXMXmXMX",
"$ - / _ b | N 2 & % . $ 2 j j k D ..R O.eXrX!.U.P.L.r.F  .T.9.F H _.ZX_.).W.W.W.W.U.t.R.3XvXnX3XG.G./.4X4XG./.dXmX(.G.(.BXdX;X;X",
"$ O p p 7 | U ; & $ . $ & ; ; & R tXOX%X%X,X!.W.r.C Z C T.$X9.F 9._.NX4XP.P.P.P.P.W.t.I.~.cXnXbX5X4X/.G.G./.5XaXmXmX(.BXkXg.^ ] ",
"= X X O 5 | U ; & .     . $ & $ K jX+X X{.Y.r.G w n #.) $X=Xr.F H 7XpX$XL.U.P.P.P.W.I.t.E.3XnXvX4XC.V.V.V.V.4XNXMXBXBXSXg.K | @X",
"> X   * 7 [ N ; & .       # & % s g.5..X$X .C n w m o.=.5XiXT.9.U.pXiX$X .W.W.P.P.P.W.t.I.~.cXbX(.H.C.C.C.C./.8XmX(.4X|.J x Z.$.",
"7 . X 3 - U z ; $       . # & X , ' 7X%XY.H G v w b o. X6XdX7XT.5XdXpX6X) H U.P.P.P.W.t.t.R.3XvX4XJ.H.H.H.J.4X4X^.G.#.$.U N { Y ",
"| j 3 l * b j = $ . . . . 2 4 % o 1 }.2X>X .v w w b &.=XwXdXNXaXdXNXaXwX .C H L.L.P.U.t.8.t.i.lX8X(.J.J.J.(.uX$XA.{ { #.{ { V.N ",
"N 4 6 z * N 4 = $ . . $ $ ; 4 % X 0 XX6.;Xe.w - w U %XwXpXdXdXdXNXNXdXpXY.C C r.P.L. .) 8.8.t.<XuX(.J.J./.eXcXoX{ D { F.Z.Z.Z.D ",
"4 ; j b 5 z & 2 & . $ $ $ & 2 $ X 7 3.6.j.u.C v v T =XiXiXpXpXaXaXdXdXdXT.G m C Z ( j.u.8.8.8.y.3XyX5X5XyXlXl.y.Y.F.@X/.A.A.A.A.",
"3 4 N U U z & 2 % . $ = & & 2 % X , ] 3.6.%.F C C #.7XwX7XwXiXiXiXiXaXaX$XG C C r W k.u.H 8.8.w.s.lXcXlX3Xi.w.w.iXiX4X/.A.A.A.A.",
"; 4 U U U j & & $ $ $ $ $ % : X X , ^ <.4.( C F Z =.6X5X5X6X7X7X7XwXiXpX$X . .G b ! j.d.S H H H w.l.l.i.e.H H e.aX8XG.Z.V.D D V.",
"& 4 N N l 4 % & $ % = = = % : X X : 8 1 K K b C Z S.5X5X=X=X5X5X5X6XeXpX6X#XY.C 7 >.j.@.S S S S S 0.0.S H H 8.I.aX4XZ.D D D D { ",
"# 4 U U U 3 & $ $ > 3 3 3 3 6 . X : : > 7 ~ &.T Z D.=X=X$X$X=X=X=X6XwXiXwXwX$X7 1 <.6.' r Z S S S S S S H 8.w.I.iX/.C.D D D D { ",
". 3 N U R s 7 = = 3 6 j 4 4 j $ X o : > J &.-.R J -.#X$X@X@X#X#X$X5X6XiXwXiX*Xs 1 >.6.Q : J ( / Z A S S 8.w.8.T.8XZ.D D D x x D ",
". = 7 R E W K 2 = 3 4 l l 4 4 = X o , > R .X}...J -.@X@X@X@X@X@X#X=X5XiXwXwX1Xp 1 <.6.Q 7 J I I t M V A S S H T.5X{ l l j k x U ",
"$ = a ..~ R R 3 & 2 4 l N 4 4 4 X o , > K %X*Xo.7 =. X X@X X X X@X=X5XwXwXiX1Xp.K 1.6.] I K E ' ' ~ ( t / ) S T.$XN l 6 2 > 4 b ",
". z *.f.3.h O.z $ = 3 j x 4 l l % , , > U *X*X} 7 -.-.S.D.D.Y.Y. X#X=X6XiXwXeXs.] 1.4.O.X.O.O.O.O.O.' 8 ' X.' $X@XN l 6 2 > 2 z ",
". 6 &.f.3.>.5.T $ = 3 j N j l N : 8 1 > U -X-XJ J Y.-.%.#.=.D.D.D.@X#X$XiX6X$Xe.O.4.3.Q ~ ~ ~ ' O.O.P 1 O.5.2.%XY.x l 6 4 2 2 7 ",
"X 5 o.] >.<.&.[ % * ; l N j l N 7 E J > J -X1XJ R =XD.o...%.S.S.S. X@X X7X$XY.U.*.4.<.0 1 1 , , 1 0 , , a Q ~ #XD.N z j 4 2 > 7 ",
"X J {.J 9 ^ o.[ > % = j N j l N [ o.z > z *.}.U #.=XS.o.o.%.=.-.=.D.$XS.=X7X7X!.5.4.2.O.' P K a 0 7 , + @ @ 1  XY.N N j 6 3 > > ",
"5 R f.E 9 5..Xo.7 = = 6 N j l N U J 5 2 7 R ..K D.=X=.%.#.%.=.S.S.=.=XS.%.5X#X*.3.3.XX*X*XOXOX|.f.5.X.~ P K K #XY.N N l j 2 * > ",
"7 o.1XOX2.tXqX*Xo.= = 4 N j l N [ J : 5 7 R ..o.9X@XD.=.&.=.=.S.D.D.S.=X=.&.*.3.4.3.OX>X1X0X0X>X>X2X*X*X+X+XOX6X#XT N l 6 3 > > ",
": K }.OX>XsXsXfX-X4 = 4 N l l N #.*.5 5 5 &.{.-.=X X=.=.=.=.S.D.S.=.%.#.&.XXtX6.4.3.>XtXtXuXtXqXtXtXqX1X1X2XqX9X-X[ N l 6 2 > > ",
"7 J R E R E O.5.*.2 = 3 N j l N %.>X7 5 5 1XuXqX-X}.-.-.S.S.S.D.S.S.=.&.1XbXbX6.<.<.XX-X-X1X0X0XqXqXqX0X1XtXtXrX9X..x l 6 3 5 3 ",
"5.5.5.5.*.&.X.~ R 2 = 3 N j j N | -.7 : 5 sXSXqXuX2Xf.O.X.&.&.&.&.@.d.3XFXFXtX3.<.] .X%X%X%X%X%XOX%X%X*X%X1X9X9X0X#.x l 6 5 K 7 ",
"OXOXOXOXOXOXOXXX|.U = 4 N j j z [ E 7 > 2 &.*...2XtX2X+X2._ _ h.h.:XjXbXFXFX;X3.<.5.>X*X%XOX.X.X.X X X.X.X}..X9X-X#.x l 6 7 R z ",
"OXOXOXOXXXOXOXXXOXR ; 2 U 6 6 6 [ OXJ % 7 o.o.E 2XqX2X2X:Xh.h.3XuXuXuXbXFXjX;X4.! >XkXsXuX0X1XqX9X>X*X*X%XOX%X9X9X#.l l 6 z | 7 ",
"*X*X*XOX|.OX>X2X2XE 3 6 N 3 = = R >X..> K -X*XX.2X2X2X2X2X:X:X:XuXbXbXbXvXbXbX<.^ fXSXSXDXSXkXbXbXfXuXsXtX0X9XrX0X| j l 6 J ..z ",
"*X>X>X>X:X2X2X2X>XR = 2 7 * . * &.$XR > R >X-XO.2X2X:X:X+Xh.h.s.h.:XuXbXvXFXjXQ J ..o.f.*X1XsXSXSXDXDXSXSXSXsXrX0X#.j l 6 R o.z ",
"2X2X>X+X+X+XOXOXOXR = 4 b $ . J 5XA.T > Y 3.5.Y.=X,X:X:X:Xh.s.] ] s.h.2XuXbXqX@.X...E E E J E X.o.5..X*XqXfXsXqX1X[ 6 6 4 ..*.z ",
"|.|.f.f.|.XX.XXX.XU ; 6 4   > -.5XZ.T 5 c >.O.^.A./.3X:X:Xh.2.Q _ _ _ 2.h.:X2XOXXXXX|.}.5.&.X.' R J J J K E ..%XOXU 4 4 3 &.{.J "
};