/* XPM */
static char *Screen_Shot_2021_08_28_at_16_33_34_1022x675__1_1706094934[] = {
/* columns rows colors chars-per-pixel */
"64 64 256 2 ",
"   c #17191D",
".  c #281E1F",
"X  c #2D211C",
"o  c #171D26",
"O  c #271F21",
"+  c #3E1B25",
"@  c #1D232B",
"#  c #2B2323",
"$  c #272628",
"%  c #372927",
"&  c #342C2B",
"*  c #2F2F34",
"=  c #372D34",
"-  c #383536",
";  c #502F1D",
":  c #4A292A",
">  c #592220",
",  c #48332B",
"<  c #573729",
"1  c #5B3C2C",
"2  c #443533",
"3  c #473A37",
"4  c #4C3A34",
"5  c #553C35",
"6  c #673C27",
"7  c #6C362D",
"8  c #344F3F",
"9  c #4F463B",
"0  c #594339",
"q  c #6A432D",
"w  c #794429",
"e  c #644432",
"r  c #6A4937",
"t  c #754C36",
"y  c #6A533D",
"u  c #78533C",
"i  c #2F3847",
"p  c #22395C",
"a  c #463E42",
"s  c #573E52",
"d  c #354C52",
"f  c #334F6A",
"g  c #494847",
"h  c #594945",
"j  c #58564B",
"k  c #4B5053",
"l  c #595A54",
"z  c #644B45",
"x  c #70474C",
"c  c #69534A",
"v  c #795747",
"b  c #675B54",
"n  c #775C55",
"m  c #5C6457",
"M  c #73634D",
"N  c #676358",
"B  c #76655A",
"V  c #595C67",
"C  c #735770",
"Z  c #55686F",
"A  c #796864",
"S  c #73706C",
"D  c #667877",
"F  c #EF1928",
"G  c #EF2A2B",
"H  c #874A2A",
"J  c #95562B",
"K  c #8C4E30",
"L  c #855639",
"P  c #985936",
"I  c #AC562B",
"U  c #A25D37",
"Y  c #83603C",
"T  c #9B643C",
"R  c #A9673A",
"E  c #B46C32",
"W  c #B46B39",
"Q  c #D65634",
"!  c #C67732",
"~  c #92315A",
"^  c #C2304D",
"/  c #865C46",
"(  c #8D5D47",
")  c #88624A",
"_  c #8A634D",
"`  c #97684A",
"'  c #886758",
"]  c #976C56",
"[  c #947153",
"{  c #967458",
"}  c #9B735B",
"|  c #A76A46",
" . c #AD6D4C",
".. c #AB7248",
"X. c #B77748",
"o. c #A3745A",
"O. c #A97858",
"+. c #B57B57",
"@. c #9F4E65",
"#. c #866B65",
"$. c #8F6D6B",
"%. c #897569",
"&. c #987665",
"*. c #9B7C6C",
"=. c #8A7873",
"-. c #997C75",
";. c #A37C64",
":. c #A67C67",
">. c #AE7B6E",
",. c #ED4E4C",
"<. c #C37A45",
"1. c #C77D59",
"2. c #DC7765",
"3. c #788874",
"4. c #D5853A",
"5. c #E3913B",
"6. c #9D805E",
"7. c #B2825B",
"8. c #BA8359",
"9. c #8D8575",
"0. c #9A8478",
"q. c #A88369",
"w. c #AB836C",
"e. c #B78869",
"r. c #A38474",
"t. c #A98777",
"y. c #A4847B",
"u. c #AB8B7C",
"i. c #B58C76",
"p. c #B09477",
"a. c #B9937A",
"s. c #CA834A",
"d. c #D48948",
"f. c #DB904A",
"g. c #C88857",
"h. c #D18C54",
"j. c #D9945A",
"k. c #E89746",
"l. c #E69649",
"z. c #E49A57",
"x. c #EFA558",
"c. c #C78C64",
"v. c #CB8B6C",
"b. c #C9936A",
"n. c #D79865",
"m. c #C29374",
"M. c #C79979",
"N. c #D59B76",
"B. c #E69B6C",
"V. c #D2A077",
"C. c #D8A37A",
"Z. c #EAA567",
"A. c #F4AF6D",
"S. c #E3A978",
"D. c #3F7E91",
"F. c #6B5C87",
"G. c #697484",
"H. c #86598E",
"J. c #907090",
"K. c #AD739A",
"L. c #33839D",
"P. c #76868C",
"I. c #6899AB",
"U. c #5BA7C5",
"Y. c #67B2CD",
"T. c #78C1D8",
"R. c #998985",
"E. c #948E90",
"W. c #989B94",
"Q. c #A68A84",
"!. c #AB8C82",
"~. c #B38E84",
"^. c #AA9487",
"/. c #B89886",
"(. c #BC9D8C",
"). c #A79399",
"_. c #B59D93",
"`. c #9BA59C",
"'. c #BBA48B",
"]. c #AAA797",
"[. c #B9A597",
"{. c #9693A2",
"}. c #A997A3",
"|. c #92ACB3",
" X c #ACAAA5",
".X c #B8A8A2",
"XX c #B5ACBB",
"oX c #C39C86",
"OX c #CA968D",
"+X c #C3A28D",
"@X c #CAA489",
"#X c #D7A887",
"$X c #DEB38B",
"%X c #C7A896",
"&X c #CBAB94",
"*X c #C5AB9B",
"=X c #D3AC93",
"-X c #D6AE97",
";X c #CBB29B",
":X c #D4B29B",
">X c #DAB599",
",X c #E0AB83",
"<X c #E7B589",
"1X c #E6BA95",
"2X c #CAB5A7",
"3X c #CEB5AD",
"4X c #D7BBA7",
"5X c #C9BAB3",
"6X c #E2BDA4",
"7X c #EFC399",
"8X c #DBC1AB",
"9X c #CCC2B6",
"0X c #DBC4B4",
"qX c #D9C7B9",
"wX c #E8C5A9",
"eX c #F1CBA7",
"rX c #F4D0AB",
"tX c #E6CAB7",
"yX c #ECD1BC",
"uX c #F2D2B6",
"iX c #96BBC7",
"pX c #B3B4CA",
"aX c #C8BDD3",
"sX c #A5C7D2",
"dX c #BACFE0",
"fX c #BDD2E2",
"gX c #D2CBCA",
"hX c #DCD3C9",
"jX c #DBD8DB",
"kX c #E1CEC1",
"lX c #E6D4C5",
"zX c #F3DAC5",
"xX c #E3DBD3",
"cX c #DCE0DF",
"vX c #F8E1CC",
"bX c #E8E2DD",
"nX c #F6E6D8",
"mX c #C8D9E5",
"MX c #D9DEE3",
"NX c #E1DCE1",
"BX c #D5E1E9",
"VX c #DAE5EA",
"CX c #DEE6E9",
"ZX c #E7E7E4",
"AX c #E4EBED",
"SX c #ECEDEB",
"DX c #F3EDE7",
"FX c #EDF0EE",
"GX c #F4F2EE",
"HX c #F9F1EA",
"JX c #E8EEF0",
"KX c #ECF1F1",
"LX c #F5F4F2",
"PX c #F9F6F3",
"IX c #FAF8F6",
"UX c #F9F9F8",
/* pixels */
"` u B b l e.S.l.Q M./ 3X6X1XoX&.9.'.9X;X9XKXJXJXJXCXAXVXBXBXVXBXBXBXmXBXmXmXmXmXfXmXfXfXdXdXdXfXmXdXtXN.z.C.8.o.7./ &X6X@Xv ;.' ",
"/ c c b l B C.j.I a.' 6X6X-X=X>.%.B R.].9XKXKXJXJXAXAXAXAXVXVXVXVXBXBXBXmXBXmXmXmXmXfXfXfXdXdXfXgX[.>Xj.n.<Xe.6.q.] :X6X#X/ / &.",
"u y j N N B q.C.1.~.$.4X4X>X4Xm.6.' 9.0.5XKXJXJXJXAXAXAXAXAXAXVXVXVXBXBXBXBXmXmXmXmXmXBXCXBXBXmXgX+Xb.h.S.b.:.} O.o.>X4XoXt _ >.",
"P u M j N l N &X<X2.=.3X/.=X>X#Xe.*.^.0.9XJXJXJXJXAXAXAXVXAXVXAXVXBXBXVXBXVXBXBXBXmXmXSXLXLXSXVXjX@X8.n.@X .` w.q.( &XwXi.r &.' ",
"t y M m N B N 0.1X2.>.:X=.{ -X>X/.#.0.0.9XKXJXAXAXAXCXCXAXVXAXVXVXMXAXMXVXBXVXBXBXVXLXGXGXSXGXSXbX$Xg.7Xq.7._ a.m./ ;X*X] t / n ",
"< , h M l M N N N.>.1.&X-.c =X@X[ v [ 6.2XKXCXjXJXAXJXCXCXBXNXAXDXDXDXjXVXVXBXBXAXLXUXGXSXDXFXFXyXV.n.7X'.M.] p.a.( %X*.' r r } ",
"J ; 9 j N l N j $.a.] J.u.v +X>X7...6.q.5XJXZXcXKXJXJXCXCXOX^ ,.,.,.,.2XKXJXVXAXLXUXUXGXDXZXbXZX;Xj.$XwX=XV.[ (.e.L w.] } u / ' ",
"E I 6 9 B M m N N %.' R.0.v t.4XM...7.p.gXKXZXcXKXJXJXUXUX3XF F G F ^ pXZXZXVXJXGXPXIXUXGXDXDXxXV.n.eX>X;X@X} /.{ u x ;.&.t v u ",
"I E J q M B m S b b { R.#._ *.4XV.7.7.6.hXFXbXjXJXLXPXPXPXaX^ G ,.F ~ pXjXjXBXZXFXLXLXLXLXGXLXbXN.S.eX>X&X&X] a.e.u ' >.] t 6 ( ",
"E E E J 0 M N N A l A %X&.| i.4X$Xc.7.e.9X9X;X[.NXPXPXPXPXkXK.,.,XG ~ pXBXjXjXcXZXSXLXLXGXGXGXHX$X7X<Xb.&X=X] (.p.v &.:.] 0 e e ",
"H I ! E H 9 m N N b j *X>.^ /.:XwXM.T 7.;X0X;X*XNXUXPXDXPXNXK.,.,.,.J.pXMXMXZXNXcXCXSXZXDXGXGXxX<XeXuXe.(.=X] (.*.r ' ;.} r < < ",
"w 6 E ! E w l M m j j %.>.-.(.%XuX;X6.b.M.9X9X8XDXUXPXDXPXjXK.2.F 2.J.pXZXZXZXNXbXZXZXbXLXPXbX#X<XrXuXm.(.:Xo._.0.u _ ] ] r : q ",
"6 w H 4.! J e N N 9 g m ` Q.J./.qXtXp.;Xq.8XhX3X3XxXIXIXPXjXK.B.G B.H.dXAXAXSXNXSXFXLXPXUXUXtXb.j.7XyXV.oX>Xo./.u./ _ ` _ < q q ",
"; w w I f.E J y N m l m z %.R.'.hXqX;XqXa.2XqX4XOXgXDXIXPXjXK.OX~ N.H.aXSXSXSXSXIXUXPXPXLXLXlXn.n.<XuX#X@X4X:.[.^.z / / < < q 5 ",
"; 6 w H R 4.! J M j k g g b >.&X8X8X;XhX2XqX9X3X+X3XxXIXPXjXK.#XF.N.H.aXGXGXKXPXIXLXHXDXDXZX8Xs.n.C.uXV.+X4Xw.y.*.0 6 1 6 6 < 4 ",
"6 ; 6 H H 4.4.E Y j j g g b u.&X8X;X;XxXhXqXqX3X-XtXHXPXDXMXJ.#XH.OXH.gXSXSXSXPXbX;XhXZXbXxXV.s.1X<XuXV.oX8Xw.R.u.r < < 6 5 e 5 ",
"6 6 ; w J J ! 5.E u N l g N 9.=X%X'.>XhXhXhXhX4X=X4XPXUXPXNXK.=XH.N.J.aXSXFXSXGXkX+X%X2X.X[.j.j.eX<XrXC.oX0X$.0.!.r < q < , 5 4 ",
"; 6 w ; w J J 5.4.R M l l B ^.=X;X'.8XqXhXxXhX8X=X4XDXPXUXNXK.#XH.B.H.aXDXFXGXDX:X+X+X+X'.M.j.<XeX<XuX$X+X*Xv R.:.1 q 0 , 5 2 % ",
"J J H 6 6 w J W f.d.J j j M %.+X;X'.$X2XqXxXhX8X-X-XxXLXLXNX{.,X@.m.J.aXGXLXLXxXb.(.a.*.p.p.M.7XeX<XrX,X/.y.z -.' 6 r 2 - - % # ",
"! ! J H 7 6 H J X.f.! t 9 [ ` q.0.0.<X'.qXqXqX;X4X-XkXLXLXMX{.#X@.v.C XX3XhXxXzXC.w.&.$.*.u.M.S.rX1XrX,X*.$.z %.$.0 2 - * @ O e ",
"5.4.4.E w w q H J s.5.E r [ X.o.6.p.1X'.qXyX9X8X>X>X5XPXPXNX{.N.C v.C }.4X3XtX6XS.u././.(.(.oXS.rX<XeXm.$.B #.: % O , c &   % q ",
"k.5.5.! E w w w J R d.4.J ` .._ /.V.8X%XhXxXqX8X@X4X4XLXUXNXJ.#XC >.C [.tXwX6XS.1X%X*X;X2X2X=X<XeX7X>X} v ' v v r < 1 >.M , e t ",
"x.x.k.5.! J H H H J R d.E 8.s.` @Xe.;X[.8X0XqX2Xa.=X*XDXGXqXE.OXC e.C }.5X4X-XS.6X%X*X3X2X4X4X<XeX7XV.) #.' 7 | | U K v.q.e 0 M ",
"k.k.5.x.5.4.E H w 6 6 w t W <./ M.e.&X%X.X'.'.;X=X>X%XZXDXyX5X4X~.OX~.3X6XwX=X,X6X*.(.2X3X2X4X1XeXS.} / 0 7 | b.v.1.| b.q.0 0 ) ",
"d.k.A.A.x.k.5.! H . . ; q L T t 8.O./.'.2X:X4X8X=X>X/.xXDXnXnXuX1X1X1X1X<X1XN.,X4X{ r.^._./.&X1X#Xt.w._ 7 | v.+.| U K >./ 0 x :.",
"f.k.A.x.A.x.k.! ! ; ; H T t < q 8.../.[.[.'.0X8X=X>XoXlXHXnXeX1XuXlXlX6X6XlX<X,X^.o.$.*.u._.*X<X7.:.e.1 K v.+.P U K H ( / x :.M.",
"W z.A.x.j.z.x.l.4.< % & y ` 1 L g.8.Q.(.[.^.0X8X=X-Xi.0XDXeX<XuXvXyXlXzXzXzX1X=Xy.;.~.[.2X2X>X#X7.*.a.K 1.+.P U K H K o.u :.i.oX",
"4.l.n.s.z.x.A.A.5.H - & - v J ..M.O.i./.*X%X0X8X-X-Xe.2XyX1XrXnXDXtXuXlXlXwX#X~.0.u.+X[.*XoX&Xc.] { i.1.1.| U J w K W  ._ e.i.oX",
"l.x...< s.A.Z.Z.f.E q 9 , 9 t [ >Xq.w.p.*X;X0X8X-X=Xi./.@XwXnXDXnXtX4XtXqXyXm.' _ p.5X.X_.m.e.8.) } V.c.R U P 7 P W <.O.} e.:.M.",
"l.h.O./ q.:.:.h.z.g.Y y 5 r y v &XO.@X[.[.^.0X8X:X=Xe.M.&XkXnXvXzX6X4XkXlXkXi.x / _.gXgX2Xb.g.7._ ) / r 1 7 w U <.R 8.q.:.7.o.e.",
"l.j.p.=._.G.C g.A.V.` ..e 0 9 j +Xi.i.9X[.u.2XtX6X&Xe.$X>XwXuXvXtX-XN.tXkX1X;.5 9 [.|.dX9Xn.c...L T R T q 6 U <.X. .n.'.w.o.] w.",
"f.1.i.y.oXS k ` Z.e.Y 7.u L y ) a.;.[ [.*Xy.2X0X6X=Xm.OXoX=XzXHXzX6X-XtXtX6Xo.5 c 5XiXT.|.c.8.8.8.z.x.! H 7 <.+.1.a.oX*Xw.` v :.",
"z.d.` w 8.b.y E j.y u ..` 8.O.8.W Y { ;X[.Q.5XkX4X=Xm.i.q.[.nXnXzXtX4XkXkX6Xo.5 %.5XsXY.U...8.V.A.A.5.! L H X.N.a.p.].*Xu.9 # ' ",
"l.h.P 6 d.h.y ..j.e e 7.` a.b.g.y y O.V.'.%X4XqX>X$XM.M.6.^.tXuXuX:XoXtXtXS.+.;.p.2XiXY.U.o.c.Z.x.4.E 7.X.` e.@X'.3.c ].u.* . c ",
"z.j.T w d.h.r E b.u q T u p.m.7.m 8 9 7.e.&X4X0XoX=XM.a./.9XzXDXuX>X#XtXwX#XX.M.].2XsXY.I.v L +.g.X.4.$XC.8.p.[.].8 , '.u.3 X c ",
"z.g.u 6 d.n.q R j.L w J q ) 7.b.p.m d j t.-XtX4X/.=Xe.*.y.;XnXvXzXtXtX0X8XN.g.=Xu..XsXY.Y.D / +.S.7X7XvX<X6.3.B ].k 0 [.p.0 % ' ",
"j.g.L 7 d.j.q 8.n.u 6 L e v O.O.p.].3.3.$.%X0X4X=X=X>.w.y._.yXuXuX0X0XyXqX+.>.*.%.^. X0.9.%.) ] 8XzXvXnX>X6.S N ].V 5 [.^.z 3 &.",
"z.n.P w d.8.0 W C.L q T 0 _ 7.q.q p.'.;X&.*XkXqX&X@Xm.' 6.+XzXnXuX=XV.tX[.] 0.$.=.^.B k V m D @XeXnXvXrXq.6.9.N  Xm 4 ^.^.j 0 r.",
"z.n.| 6 h.g.e R n.q L [ t ` e.'.y M 6.9X:.4XxX0X&X@Xm._ ` &XnXnXyX4X&X8X0.6.P.9.9.^.Z 3.I.I.P.:X7XuXuX$X[ '.9.N  Xm , ^._.c 0 ' ",
"z.+.` H j.h.e 8.c.1 ) O.u ] O.p.y 6.3.9Xu.qXjX[./.oXm.e.7.;XyXuXuXtXtXqX%.3.9.A %.E.P.I.Y.U.P.>X>XS.>X7X..;XW.N `.3.l R._.c 1 _ ",
"j.X.` L n.h.0 X.N.q / o.L ` 7.+X[ 6.6.9X0.qXhX].u./.M.i.O.@XrXzXwX:X;X4X*.t.r.' M R.{.Y.Y.U.P.a.:.C.<X7X..%XW.N  XP.A R.^.b 4 r ",
"z.Z.` P j.s.q s.N.6 ( o./ [ e.;X6.9.A 9X0.9XhXp.[ t.i.o.[ ;XnXHXwX@Xm.>Xp.p.S 9 c ^.|.|.`.`.W.p.] M.$XwXO.*XW.b  XP.N R.y.b # 2 ",
"j.n.] T j.g.1 X.g.1 ) ` ) } e.;X[ 6.A [.r.2X4X^.&.' ) O.:.0.tXvXuX>X&X>X&.{ h . - R.W.].b.V. X/.$.m.$XwX .;XW.l ].3.g 9.u.n # 4 ",
"j.B.` T Z.8., +.b.< ` / ) ] a.:X6.3.9.2X9.8X0X*Xa.u.z &.q.A %XuXuXtXtX4X' v , - = 9.|.|.'.'.|._.&.e.=XeX .%XW.j W.3.& =.u.A # 2 ",
"j.g.` T n.7.0 8.c.< ) { ` [ p.;X6.%.S 9X6.8XtX*X^.+X` } B 9.&X1X#X=X:XQ.j z v 0 4 E.|.|.P.P.J.+X-Xi.@X7X .*X`.l ].D 2 -.y.B = 5 ",
"j.e.) ..n...0 X.O.: ) ` _ [ 7.'.[ %.%.2Xt.4XtX[.!.y.c ) n ' +.c.m.m.b.q.b c } v z E.9.M l v | oX-X>.i.7X..%X`.l E.D 2 %.^.#.2 4 ",
"g.6.v R C.7.< 8.e.< [ _ [ _ e.M.B 3.%.*Xt.8X2X(.~.%.$ , B %.b.C.$Xa.+.@X#.' / n c R.E.D.L.Z  .~.m.&.6.wX| '.|.k 9.3.& %./.%.% % ",
"j.b.u R S.7.0 s.e.1 O.) _ ) p.M.{ A %.[.r.qX5X'.a.%.$ c B 9.N.-X1XoX+./.%.B n b n R.W.U.L.V #.>.` &.] 1X[ '.`.k W.D $ #.!.%.- % ",
"h.c.L ..S.O.0 8.7., } L _ _ i.M.[ S 9.[.0.hXkX+X!.%.= v n D /.@X1X=Xb.(.=.n c b n A G.D.Z i Z u.o.:.n 1Xo.(.`.l `.G.& A u.=.2 # ",
"h.h.u ..A.6.0 s.` ; O./ ) v 6.r.' B 9.].u.hXhX%X!.=.2 L a k n ' $.R.%.%.b n c b b S G.Z f g k C ] ] v #X` ~.`.l `.D = A 0.=.4 # ",
"h.j.u ..Z.6.9 h.] < O.v 1 1 6.%.B A 9.].0.hXqX(.Q.%.4 5 2 i x r A S h A g h n c b A G.D.d 7 k a / 7 / N.L i.`.l W.D & A -.=.2 X ",
"d.c.t W Z.[ q h.T , { v 6 q q.{ B %.9.^.0.0X2X9.0.$.9 h g + 7 v =.C x #.A G.J.J.>.n G.I.f 7 x n / / c v.L u. Xm W.D $ n -.#.2 # ",
"X.g.t X.Z.` q d.L 1 ] v u v $.*.R.[.[.r.;.=X_.#.=.n 3 Q.=.a 7 n ^.-.x -.J.F.f s #.a V P.s + + ~ J.).=.~.7 t. XV ).D * A -.A 3 O ",
"W X.u X.z.` r d.) 4 4 & & * i k S B 9.*.&.+X_.#.n c n _.J.$.#.B =.%.7 >.OXy.&.$.+.P L z > > > + -.XX Xu.r :. XV W.G.* b &.#.3 O ",
"<.1.L X.Z.T y T , X % < = f V k v 3 b 0.u.2X2X^.R.R.=._.~.n A J.).R.&.P P R K U K H 7 r #.$.C z n }.}.&.e #.[.0.].P.$ j $.#.4 & ",
"<.X.w W j.u r u < ,   , s F.Z p v 5 g B ^._._.(.*X*X_.3X%Xn k .X.X.X~.h 2 : : < > < < 2 + : x 5 5 }.E.x 5 v &.M.u.=.$ c %.b 3 O ",
"W X.P P 4.u q q < ,   X g Z f p c 4 $ - R.).)._..X_.].2X.X#.V .X.X_.~.A $ a a & # a a * O O $ x s ).E.n 5 h n w.h N * 9 c B 9 # ",
"X.<.<.<.<.u q e % .   . - f p p v a h u./.+X!.*.u././.K./.w.J._..Xy.>.$.b b z a 4 3 3 a $ O 3 n n {.{.n 4 h ' w.2 g * & z A 3 . ",
"W <.8.4.<.t 0 , 2 & & * * i i d S A $.&.} &.n v o.>.i.m.m./.(.%X%X+X/.~./.~.~.i.>.o._ a # = 4 ' ' i p h 5 x n w.- - * $ n 0.g . ",
"X.<.4.s.E q < % X $ O O @ @ @ * k A n n c u ` o.e.e.m.i.i.i.oXoXOX+X+X(.+XoXoX/.oXa.>.' 3 , : / ' o @ c ' c c w.3 * * $ v ^.4 . ",
"W X.! <.T , % O         o o i a - c x c r / ( o.:.o.>.>.>.~.~.~.~.i.~.~.~.~.!.~.!.t.>.&.n r , : 2 @ i C :.0.$.#.3 * - & c Q.0 # ",
"| W X.X.q O       o o   o $ : = $ h n h 4 ( ] @.o.:.>.:.>.u.u.t.t.t.u.u.Q.Q.Q.>.u.Q.Q.y.:.] v 4 = @ * A *.~.!.r.%.n %.c c *.5 # ",
"U X.W W 6 : : % $   O # = * O O O 5 x 5 5 | o.o.o.:.:.;.:.y.!.u.>.u.t.t.t.r.K.r.>.Q.Q.Q.-.$.' 4 2 o i =.-.r.*.0.0.$.#.c 5 n 4 # ",
"U W | R q 7 7 , 9 r y u , @ O # o 5 4 5 v o.O.] ] :.:.;.&.t.u.>.>.t.y.y.>.y.r.0.-.>.-.>.*.-.&.n s * * V A $.#.#.' #.' #.z h 5 2 "
};