/* XPM */
static char *Flag_of_Cuba_svg__2_1706041740[] = {
/* columns rows colors chars-per-pixel */
"64 64 195 2 ",
"   c #57215B",
".  c #002B97",
"X  c #032A8D",
"o  c #002A8F",
"O  c #D11411",
"+  c #422368",
"@  c #002C98",
"#  c #042A8D",
"$  c #CE1513",
"%  c #CC1514",
"&  c #292676",
"*  c #002B96",
"=  c #C81517",
"-  c #D11412",
";  c #BE161D",
":  c #162882",
">  c #002B94",
",  c #CB1515",
"<  c #D5140F",
"1  c #AC1828",
"2  c #06298B",
"3  c #002A91",
"4  c #022A8E",
"5  c #C71517",
"6  c #D8140D",
"7  c #971A34",
"8  c #002B92",
"9  c #012A8E",
"0  c #DA130C",
"q  c #7F1D43",
"w  c #652052",
"e  c #C91516",
"r  c #D7140E",
"t  c #4C2262",
"y  c #CA1516",
"u  c #CC1515",
"i  c #D01412",
"p  c #342570",
"a  c #CF1513",
"s  c #C51619",
"d  c #1F277D",
"f  c #002B95",
"g  c #052B8E",
"h  c #022C90",
"j  c #032C90",
"k  c #D31410",
"l  c #B51722",
"z  c #0D2987",
"x  c #00228E",
"c  c #001F88",
"v  c #00208A",
"b  c #9E172D",
"n  c #3254A5",
"m  c #385BAA",
"M  c #3656A5",
"N  c #3758A7",
"B  c #C91819",
"V  c #CE0A07",
"C  c #E56864",
"Z  c white",
"A  c #CA1819",
"S  c #C50102",
"D  c #E17C7C",
"F  c #FDFBFB",
"G  c #FEFEFE",
"H  c #CB1818",
"J  c #C70505",
"K  c #E89A9A",
"L  c #FEFAFA",
"P  c #CB1616",
"I  c #C90B0B",
"U  c #EFB7B7",
"Y  c #CB1717",
"T  c #CA1212",
"R  c #F5D1D1",
"E  c #FEFBFB",
"W  c #CC1818",
"Q  c #C90E0E",
"!  c #CF2626",
"~  c #FAE7E7",
"^  c #FEFCFC",
"/  c #CC1919",
"(  c #C80909",
")  c #D33B3B",
"_  c #FEF9F9",
"`  c #FEFDFD",
"'  c #CB1414",
"]  c #CB1313",
"[  c #CC1A1A",
"{  c #C80505",
"}  c #D95353",
"|  c #FFFEFE",
" . c #CE2323",
".. c #C70303",
"X. c #DF6F6F",
"o. c #CA0F0F",
"O. c #D12F2F",
"+. c #DC6161",
"@. c #C90A0A",
"#. c #CC1717",
"$. c #E68D8D",
"%. c #D64848",
"&. c #E99D9D",
"*. c #C80606",
"=. c #C80808",
"-. c #ECAAAA",
";. c #FCF8F9",
":. c #FBFCFD",
">. c #DC6464",
",. c #F4CECE",
"<. c #CA1010",
"1. c #F1C4C5",
"2. c #E38383",
"3. c #FCF2F2",
"4. c #C80F0F",
"5. c #D42321",
"6. c #B2A4BF",
"7. c #91ACD8",
"8. c #9CA9D0",
"9. c #99AAD2",
"0. c #CC1C1C",
"q. c #C80707",
"w. c #EBA4A4",
"e. c #CA1718",
"r. c #D0120F",
"t. c #A1081B",
"y. c #001A80",
"u. c #001C8B",
"i. c #001B86",
"p. c #001B87",
"a. c #C60000",
"s. c #F1C2C2",
"d. c #D64545",
"f. c #C50000",
"g. c #C81618",
"h. c #DB1710",
"j. c #A31D31",
"k. c #032D92",
"l. c #022E92",
"z. c #062D90",
"x. c #042D91",
"c. c #CA1111",
"v. c #D74C4C",
"b. c #DA5959",
"n. c #DB5F5F",
"m. c #E89999",
"M. c #D85151",
"N. c #DB5C5C",
"B. c #DC6262",
"V. c #CF2525",
"C. c #881C3D",
"Z. c #012A8F",
"A. c #DD6666",
"S. c #DB130C",
"D. c #6F1F4C",
"F. c #C70202",
"G. c #E99E9E",
"H. c #FDF8F8",
"J. c #FDF6F6",
"K. c #D9140D",
"L. c #55215C",
"P. c #002C99",
"I. c #CA1313",
"U. c #F8E0E0",
"Y. c #DF7070",
"T. c #C70404",
"R. c #CA1515",
"E. c #D41410",
"W. c #452366",
"Q. c #EEB3B3",
"!. c #F2C5C5",
"~. c #D74B4B",
"^. c #F8DEDE",
"/. c #DF6D6D",
"(. c #E79494",
"). c #D74A4A",
"_. c #F6D6D6",
"`. c #E68E8E",
"'. c #EFB5B5",
"]. c #052D90",
"[. c #DF6E6E",
"{. c #F5D4D4",
"}. c #F9E6E6",
"|. c #ECA8A8",
" X c #ECABAB",
".X c #D33737",
"XX c #FBEEEE",
"oX c #D02C2C",
"OX c #D42421",
"+X c #E89696",
"@X c #E17979",
"#X c #D95454",
"$X c #CD1C1C",
"%X c #CF2929",
"&X c #D02A2A",
/* pixels */
"  . X o o o o o o o o o o o o o o o o o o o o o o o o o o o o o o o o o o o o o o o o o o o o o o o o o o o o o o o o o o o o o ",
"O + @ # o o o o o o o o o o o o o o o o o o o o o o o o o o o o o o o o o o o o o o o o o o o o o o o o o o o o o o o o o o o o ",
"$ % & * # o o o o o o o o o o o o o o o o o o o o o o o o o o o o o o o o o o o o o o o o o o o o o o o o o o o o o o o o o o o ",
"= - ; : > X o o o o o o o o o o o o o o o o o o o o o o o o o o o o o o o o o o o o o o o o o o o o o o o o o o o o o o o o o o ",
", = < 1 2 3 4 o o o o o o o o o o o o o o o o o o o o o o o o o o o o o o o o o o o o o o o o o o o o o o o o o o o o o o o o o ",
", , 5 6 7 8 o 9 o o o o o o o o o o o o o o o o o o o o o o o o o o o o o o o o o o o o o o o o o o o o o o o o o o o o o o o o ",
", , , 5 0 q * 4 o o o o o o o o o o o o o o o o o o o o o o o o o o o o o o o o o o o o o o o o o o o o o o o o o o o o o o o o ",
", , , , = 0 w @ X o o o o o o o o o o o o o o o o o o o o o o o o o o o o o o o o o o o o o o o o o o o o o o o o o o o o o o o ",
", , , , , e r t @ # o o o o o o o o o o o o o o o o o o o o o o o o o o o o o o o o o o o o o o o o o o o o o o o o o o o o o o ",
", , , , , y u i p . # o o o o o o o o o o o o o o o o o o o o o o o o o o o o o o o o o o o o o o o o o o o o o o o o o o o o o ",
", , , , , , e a s d f g h j j j j j j j j j j j j j j j j j j j j j j j j j j j j j j j j j j j j j j j j j j j j j j j j j j j ",
", , , , , , , = k l z x c v v v v v v v v v v v v v v v v v v v v v v v v v v v v v v v v v v v v v v v v v v v v v v v v v v v ",
", , , , , , , , 5 r b n m M N N N N N N N N N N N N N N N N N N N N N N N N N N N N N N N N N N N N N N N N N N N N N N N N N N ",
", , , , , , , , , B V C Z Z Z Z Z Z Z Z Z Z Z Z Z Z Z Z Z Z Z Z Z Z Z Z Z Z Z Z Z Z Z Z Z Z Z Z Z Z Z Z Z Z Z Z Z Z Z Z Z Z Z Z ",
", , , , , , , , , , A S D Z F G G G G G G G G G G G G G G G G G G G G G G G G G G G G G G G G G G G G G G G G G G G G G G G G G ",
", , , , , , , , , , , H J K Z L Z Z Z Z Z Z Z Z Z Z Z Z Z Z Z Z Z Z Z Z Z Z Z Z Z Z Z Z Z Z Z Z Z Z Z Z Z Z Z Z Z Z Z Z Z Z Z Z ",
", , , , , , , , , , , P P I U Z L Z Z Z Z Z Z Z Z Z Z Z Z Z Z Z Z Z Z Z Z Z Z Z Z Z Z Z Z Z Z Z Z Z Z Z Z Z Z Z Z Z Z Z Z Z Z Z ",
", , , , , , , , , , , , Y T P R Z E Z Z Z Z Z Z Z Z Z Z Z Z Z Z Z Z Z Z Z Z Z Z Z Z Z Z Z Z Z Z Z Z Z Z Z Z Z Z Z Z Z Z Z Z Z Z ",
", , , , , , , , , , , , , W Q ! ~ Z ^ Z Z Z Z Z Z Z Z Z Z Z Z Z Z Z Z Z Z Z Z Z Z Z Z Z Z Z Z Z Z Z Z Z Z Z Z Z Z Z Z Z Z Z Z Z ",
", , , , , , , , , P , , , , / ( ) _ Z ` Z Z Z Z Z Z Z Z Z Z Z Z Z Z Z Z Z Z Z Z Z Z Z Z Z Z Z Z Z Z Z Z Z Z Z Z Z Z Z Z Z Z Z Z ",
", , , , , , , , ' ] , , , , , [ { } Z Z | Z Z Z Z Z Z Z Z Z Z Z Z Z Z Z Z Z Z Z Z Z Z Z Z Z Z Z Z Z Z Z Z Z Z Z Z Z Z Z Z Z Z Z ",
", , , , , , , ' /  .] , , , , , [ ..X.Z ` Z Z Z Z Z Z Z Z Z Z Z Z Z Z Z Z Z Z Z Z Z Z Z Z Z Z Z Z Z Z Z Z Z Z Z Z Z Z Z Z Z Z Z ",
", , , , , , P o.O.+.@.#., , , , , / ..$.Z E Z Z Z Z Z Z Z Z Z Z Z Z Z Z Z Z Z Z Z Z Z Z Z Z Z Z Z Z Z Z Z Z Z Z Z Z Z Z Z Z Z Z ",
", , , , , , Y ( %.&.*.W , , , , , P Y =.-.Z ;.:.:.:.:.:.:.:.:.:.:.:.:.:.:.:.:.:.:.:.:.:.:.:.:.:.:.:.:.:.:.:.:.:.:.:.:.:.:.:.:.:.",
", , , , , , W J >.,.( Y , , , , , , P ' <.1.Z Z Z Z Z Z Z Z Z Z Z Z Z Z Z Z Z Z Z Z Z Z Z Z Z Z Z Z Z Z Z Z Z Z Z Z Z Z Z Z Z Z ",
", , , , , , / ..2.3.P ] P , , , , , , #.4.5.6.7.8.9.9.9.9.9.9.9.9.9.9.9.9.9.9.9.9.9.9.9.9.9.9.9.9.9.9.9.9.9.9.9.9.9.9.9.9.9.9.9.",
", , , , Y W 0.q.w.Z O.T [ W P , , , , , e.r.t.y.u.i.p.p.p.p.p.p.p.p.p.p.p.p.p.p.p.p.p.p.p.p.p.p.p.p.p.p.p.p.p.p.p.p.p.p.p.p.p.p.",
", , , P @.*.( a.s.Z d.f.@.*.T P , , , , , g.h.j.k.l.z.x.x.x.x.x.x.x.x.x.x.x.x.x.x.x.x.x.x.x.x.x.x.x.x.x.x.x.x.x.x.x.x.x.x.x.x.x.",
", , P c.v.+.b.n.~ Z m.M.N.B.V.c.P , , , , , 5 0 C.f 9 Z.o o o o o o o o o o o o o o o o o o o o o o o o o o o o o o o o o o o o ",
", , W ( A.Z Z Z Z | Z Z Z R P , P , , , , , , 5 S.D.@ X o o o o o o o o o o o o o o o o o o o o o o o o o o o o o o o o o o o o ",
", , , W F.G.Z H.Z Z ^ Z J.O.I #., , , , , , , , = K.L.P.X o o o o o o o o o o o o o o o o o o o o o o o o o o o o o o o o o o o ",
", , , P I.[ U.Z ` Z ^ Z Y.T./ , , , , , , , , , R.y E.W.f 4 o o o o o o o o o o o o o o o o o o o o o o o o o o o o o o o o o o ",
", , , , / =.v.Z Z ^ Z Q.( #., , , , , , , , , , R.y E.W.f 4 o o o o o o o o o o o o o o o o o o o o o o o o o o o o o o o o o o ",
", , , , , W =.!.Z L Z ~.=.W , , , , , , , , , , = K.L.P.X o o o o o o o o o o o o o o o o o o o o o o o o o o o o o o o o o o o ",
", , , , P ' / ^.Z H.Z /.*.W , , , , , , , , , 5 S.D.@ X o o o o o o o o o o o o o o o o o o o o o o o o o o o o o o o o o o o o ",
", , , , P o.O.J.Z Z Z (.T./ , , , , , , , , 5 0 C.f 9 Z.o o o o o o o o o o o o o o o o o o o o o o o o o o o o o o o o o o o o ",
", , , , W ( ).Z _.`.Z '.( W , , , , , , , g.h.j.k.l.].x.x.x.x.x.x.x.x.x.x.x.x.x.x.x.x.x.x.x.x.x.x.x.x.x.x.x.x.x.x.x.x.x.x.x.x.x.",
", , , , / J [.Z M.a.{.}.c., , , , , , , e.r.t.y.u.i.p.p.p.p.p.p.p.p.p.p.p.p.p.p.p.p.p.p.p.p.p.p.p.p.p.p.p.p.p.p.p.p.p.p.p.p.p.p.",
", , , , / a.|. X..<..XXXoXo.P , , , , #.4.OX6.7.8.9.9.9.9.9.9.9.9.9.9.9.9.9.9.9.9.9.9.9.9.9.9.9.9.9.9.9.9.9.9.9.9.9.9.9.9.9.9.9.",
", , , , , T +XV.<.[ ..@X#X=.#., , , P ' <.1.Z Z Z Z Z Z Z Z Z Z Z Z Z Z Z Z Z Z Z Z Z Z Z Z Z Z Z Z Z Z Z Z Z Z Z Z Z Z Z Z Z Z ",
", , , , ] $X%X<.Y , ' / &Xc.P , , P Y =.-.Z ;.:.:.:.:.:.:.:.:.:.:.:.:.:.:.:.:.:.:.:.:.:.:.:.:.:.:.:.:.:.:.:.:.:.:.:.:.:.:.:.:.:.",
", , , , , ' T P , , , , c.P , , , / ..$.Z E Z Z Z Z Z Z Z Z Z Z Z Z Z Z Z Z Z Z Z Z Z Z Z Z Z Z Z Z Z Z Z Z Z Z Z Z Z Z Z Z Z Z ",
", , , , , , P , , , , , P , , , [ ..X.Z ` Z Z Z Z Z Z Z Z Z Z Z Z Z Z Z Z Z Z Z Z Z Z Z Z Z Z Z Z Z Z Z Z Z Z Z Z Z Z Z Z Z Z Z ",
", , , , , , , , , , , , , , , [ { } Z Z | Z Z Z Z Z Z Z Z Z Z Z Z Z Z Z Z Z Z Z Z Z Z Z Z Z Z Z Z Z Z Z Z Z Z Z Z Z Z Z Z Z Z Z ",
", , , , , , , , , , , , , , / ( ) _ Z ` Z Z Z Z Z Z Z Z Z Z Z Z Z Z Z Z Z Z Z Z Z Z Z Z Z Z Z Z Z Z Z Z Z Z Z Z Z Z Z Z Z Z Z Z ",
", , , , , , , , , , , , , W Q ! ~ Z ^ Z Z Z Z Z Z Z Z Z Z Z Z Z Z Z Z Z Z Z Z Z Z Z Z Z Z Z Z Z Z Z Z Z Z Z Z Z Z Z Z Z Z Z Z Z ",
", , , , , , , , , , , , Y T P R Z E Z Z Z Z Z Z Z Z Z Z Z Z Z Z Z Z Z Z Z Z Z Z Z Z Z Z Z Z Z Z Z Z Z Z Z Z Z Z Z Z Z Z Z Z Z Z ",
", , , , , , , , , , , P P I U Z L Z Z Z Z Z Z Z Z Z Z Z Z Z Z Z Z Z Z Z Z Z Z Z Z Z Z Z Z Z Z Z Z Z Z Z Z Z Z Z Z Z Z Z Z Z Z Z ",
", , , , , , , , , , , H J K Z L Z Z Z Z Z Z Z Z Z Z Z Z Z Z Z Z Z Z Z Z Z Z Z Z Z Z Z Z Z Z Z Z Z Z Z Z Z Z Z Z Z Z Z Z Z Z Z Z ",
", , , , , , , , , , A S D Z F G G G G G G G G G G G G G G G G G G G G G G G G G G G G G G G G G G G G G G G G G G G G G G G G G ",
", , , , , , , , , B V C Z Z Z Z Z Z Z Z Z Z Z Z Z Z Z Z Z Z Z Z Z Z Z Z Z Z Z Z Z Z Z Z Z Z Z Z Z Z Z Z Z Z Z Z Z Z Z Z Z Z Z Z ",
", , , , , , , , 5 r b n m M N N N N N N N N N N N N N N N N N N N N N N N N N N N N N N N N N N N N N N N N N N N N N N N N N N ",
", , , , , , , = k l z x c v v v v v v v v v v v v v v v v v v v v v v v v v v v v v v v v v v v v v v v v v v v v v v v v v v v ",
", , , , , , e a s d f g h j j j j j j j j j j j j j j j j j j j j j j j j j j j j j j j j j j j j j j j j j j j j j j j j j j j ",
", , , , , y u i p . # o o o o o o o o o o o o o o o o o o o o o o o o o o o o o o o o o o o o o o o o o o o o o o o o o o o o o ",
", , , , , e r t @ # o o o o o o o o o o o o o o o o o o o o o o o o o o o o o o o o o o o o o o o o o o o o o o o o o o o o o o ",
", , , , = 0 w @ X o o o o o o o o o o o o o o o o o o o o o o o o o o o o o o o o o o o o o o o o o o o o o o o o o o o o o o o ",
", , , 5 0 q * 4 o o o o o o o o o o o o o o o o o o o o o o o o o o o o o o o o o o o o o o o o o o o o o o o o o o o o o o o o ",
", , 5 6 7 8 o 9 o o o o o o o o o o o o o o o o o o o o o o o o o o o o o o o o o o o o o o o o o o o o o o o o o o o o o o o o ",
", = < 1 2 3 4 o o o o o o o o o o o o o o o o o o o o o o o o o o o o o o o o o o o o o o o o o o o o o o o o o o o o o o o o o ",
"= - ; : > X o o o o o o o o o o o o o o o o o o o o o o o o o o o o o o o o o o o o o o o o o o o o o o o o o o o o o o o o o o ",
"$ % & * # o o o o o o o o o o o o o o o o o o o o o o o o o o o o o o o o o o o o o o o o o o o o o o o o o o o o o o o o o o o ",
"O + @ # o o o o o o o o o o o o o o o o o o o o o o o o o o o o o o o o o o o o o o o o o o o o o o o o o o o o o o o o o o o o ",
"  . X o o o o o o o o o o o o o o o o o o o o o o o o o o o o o o o o o o o o o o o o o o o o o o o o o o o o o o o o o o o o o "
};