/* XPM */
static char *_76_1766969_karl_marx_smoking_a_fatty_sticker_portrait_of__1_1706041293[] = {
/* columns rows colors chars-per-pixel */
"64 64 238 2 ",
"   c #3A1E05",
".  c #392E30",
"X  c #3B2107",
"o  c #44280D",
"O  c #462C14",
"+  c #4C331C",
"@  c #4C3116",
"#  c #54371B",
"$  c #4D3624",
"%  c #543B23",
"&  c #5D3F25",
"*  c #473A3C",
"=  c #5C442C",
"-  c #58412C",
";  c #5D4836",
":  c #4E433A",
">  c #63472B",
",  c #634B34",
"<  c #644E39",
"1  c #664B39",
"2  c #66503D",
"3  c #6B523B",
"4  c #6E5035",
"5  c #74583D",
"6  c #745538",
"7  c #794B30",
"8  c #4A3D41",
"9  c #47444C",
"0  c #4A4B58",
"q  c #525254",
"w  c #59585B",
"e  c #544C4F",
"r  c #6C5642",
"t  c #6B5648",
"y  c #765B46",
"u  c #695C59",
"i  c #70554F",
"p  c #7B624B",
"a  c #786148",
"s  c #66635A",
"d  c #7C6652",
"f  c #7D6A55",
"g  c #786657",
"h  c #5B5A65",
"j  c #495067",
"k  c #605E61",
"l  c #656364",
"z  c #6B686A",
"x  c #776C67",
"c  c #6E6B71",
"v  c #78767B",
"b  c #716D74",
"n  c #875B37",
"m  c #945C37",
"M  c #966239",
"N  c #9A622E",
"B  c #A6673D",
"V  c #83664A",
"C  c #836B55",
"Z  c #826E5C",
"A  c #886A59",
"S  c #8D7255",
"D  c #8D735C",
"F  c #86745A",
"G  c #94785C",
"H  c #96785B",
"J  c #946B4F",
"K  c #B77348",
"L  c #A97353",
"P  c #857363",
"I  c #8C7562",
"U  c #8C7A6A",
"Y  c #8D7865",
"T  c #947B64",
"R  c #9A7E64",
"E  c #957E6A",
"W  c #877C71",
"Q  c #A77866",
"!  c #815741",
"~  c #CB7B44",
"^  c #D27C49",
"/  c #B2875E",
"(  c #96816D",
")  c #9C836C",
"_  c #998366",
"`  c #9C8673",
"'  c #9D8A7A",
"]  c #988374",
"[  c #8F8377",
"{  c #A4886D",
"}  c #A68668",
"|  c #B58D67",
" . c #B5906C",
".. c #A48B74",
"X. c #A48E79",
"o. c #AA8E77",
"O. c #AD9175",
"+. c #A6917C",
"@. c #AB937C",
"#. c #B2957B",
"$. c #B99778",
"%. c #DA8959",
"&. c #E4874C",
"*. c #E98C53",
"=. c #EB945A",
"-. c #F4965C",
";. c #F69657",
":. c #D58C64",
">. c #C99568",
",. c #C59D78",
"<. c #D5956D",
"1. c #EC9C6B",
"2. c #E69767",
"3. c #F49B63",
"4. c #F39E6A",
"5. c #F89B66",
"6. c #E79E72",
"7. c #F29F70",
"8. c #CAA47E",
"9. c #DBA378",
"0. c #EBA06C",
"q. c #F4A36D",
"w. c #F8A269",
"e. c #ECA373",
"r. c #EBA579",
"t. c #EAAA7D",
"y. c #E7A878",
"u. c #F4A473",
"i. c #F6A67A",
"p. c #F4AC7C",
"a. c #F9A776",
"s. c #7F7E83",
"d. c #827F87",
"f. c #908E95",
"g. c #AD9682",
"h. c #AF9986",
"j. c #AA988A",
"k. c #B39A82",
"l. c #BB9E82",
"z. c #B49D89",
"x. c #B39F90",
"c. c #BDA186",
"v. c #BDA38C",
"b. c #B6A08B",
"n. c #BBA99B",
"m. c #B8A596",
"M. c #9C99A1",
"N. c #A09EA8",
"B. c #BCB0A3",
"V. c #C3A383",
"C. c #C9A683",
"Z. c #C3A68B",
"A. c #C5A98D",
"S. c #CBAB8C",
"D. c #CCA987",
"F. c #D4AB85",
"G. c #D7AB87",
"H. c #DBB28B",
"J. c #D5B08B",
"K. c #C4AB93",
"L. c #CAAE93",
"P. c #C3AE9B",
"I. c #CEB195",
"U. c #CCB39B",
"Y. c #C5B09D",
"T. c #D5B495",
"R. c #DAB693",
"E. c #D2B69B",
"W. c #D4B99E",
"Q. c #DCBB9B",
"!. c #DCB997",
"~. c #E8AA85",
"^. c #F5AB82",
"/. c #FAAE85",
"(. c #F9AF88",
"). c #E3B38B",
"_. c #F4B28B",
"`. c #FBB48C",
"'. c #F8B286",
"]. c #E3BB96",
"[. c #E2BE9B",
"{. c #E9BF97",
"}. c #FBB691",
"|. c #FAB994",
" X c #FABD9A",
".X c #F6B996",
"XX c #CAB5A3",
"oX c #C8B6A9",
"OX c #D4BBA3",
"+X c #DBBEA3",
"@X c #D2BDAC",
"#X c #CABCB3",
"$X c #C2AFA1",
"%X c #E8C39E",
"&X c #FAC39E",
"*X c #DBC0A6",
"=X c #DBC3AB",
"-X c #D5C1AD",
";X c #CEC2BB",
":X c #DAC5B2",
">X c #D7C6B8",
",X c #E4C3A4",
"<X c #EDC9A6",
"1X c #E2C6AB",
"2X c #E5C9AE",
"3X c #EACAAD",
"4X c #EAC6A4",
"5X c #F7C9A7",
"6X c #FBD1AE",
"7X c #E5CCB4",
"8X c #EACEB2",
"9X c #E4CEB8",
"0X c #EDD1B6",
"qX c #EED3BA",
"wX c #E5D1BD",
"eX c #F3D4B5",
"rX c #F2D6BA",
"tX c #F4D9BE",
"yX c #FAD7B8",
"uX c #D8CCC5",
"iX c #DDD2CD",
"pX c #DED7D4",
"aX c #E5D5C9",
"sX c #F6DBC1",
"dX c #E3D9D5",
"fX c #E3D9D5",
"gX c #E9E1DD",
"hX c #E4E4E4",
"jX c #EDE6E3",
"kX c #ECECEC",
"lX c #EFE9E7",
"zX c #F3EEEC",
"xX c #F0E9E6",
"cX c #F6F6F6",
"vX c #F9F5F5",
"bX c #FDFDFD",
"nX c #F8F8F8",
"mX c #F4F0EF",
/* pixels */
"cXcXcXcXnXcXcXcXcXcXcXcXcXcXnXcXcXcXcXcXcXcXcXcXcXcXnXcXcXcXcXcXcXcXcXcXcXcXcXcXcXcXcXcXcXcXcXcXcXcXcXcXcXnXcXcXcXcXcXcXcXcXcXnX",
"cXcXcXcXcXcXcXcXnXcXcXnXcXcXcXcXcXcXcXnXcXcXcXcXcXcXcXcXcXcXcXcXcXcXcXcXcXcXcXcXcXcXcXcXcXcXcXcXcXcXcXcXcXcXcXcXnXcXcXnXcXcXcXcX",
"nXcXcXcXcXcXcXnXcXcXcXcXcXnXcXcXcXcXcXcXcXnXcXcXcXcXcXcXcXcXcXcXcXcXcXcXcXcXcXcXcXcXcXcXcXcXcXcXcXcXcXcXcXcXnXcXcXcXcXcXnXcXcXcX",
"cXcXcXcXcXcXcXcXcXcXcXcXcXcXcXcXnXcXcXcXcXcXcXcXcXcXcXnXvXbXbXbXbXbXbXbXbXnXcXcXcXcXcXcXcXcXcXcXcXcXcXcXcXcXcXcXcXcXcXcXcXcXcXcX",
"cXcXcXcXnXcXcXcXcXcXcXcXcXcXcXcXcXcXcXcXcXcXcXbXbXbXbXbXbXbXbXbXbXbXbXbXbXbXbXbXbXbXcXcXcXnXcXcXcXcXcXcXcXcXcXcXcXcXcXcXcXcXcXcX",
"cXcXcXcXcXcXcXcXcXnXcXcXcXcXcXnXcXcXcXcXnXbXbXbXbXbXbXbXbXbXcXcXzXzXcXcXnXbXbXbXbXbXbXcXcXkXcXcXcXcXcXcXcXcXcXcXcXnXcXcXcXcXnXcX",
"cXnXcXcXcXcXnXcXcXcXcXcXcXcXcXcXcXcXcXbXbXbXbXbXbXbXcXgXaX#X@X@XXX:X@X$X@XuXjXbXbXbXbXbXbXbXcXcXcXcXcXcXcXcXcXcXcXcXcXcXcXcXcXcX",
"cXcXcXcXcXcXcXcXcXcXcXcXnXcXcXcXcXnXbXbXbXbXzXdXaXuX-X:X:X=X=X1X=X+X=X9X=XL.XX-XuXfXbXbXbXbXbXbXcXcXcXcXcXcXcXcXcXcXcXnXcXcXcXcX",
"cXcXcXcXcXcXcXcXcXcXcXcXcXcXcXcXbXbXbXbXbXfXXXK.*X:XwXtX9X7X0X2X1X@X3X8XqXwX=X=XU.OXuXgXnXbXbXbXnXmXcXcXcXcXcXcXcXnXcXcXcXcXcXcX",
"cXcXnXcXcXcXcXcXcXcXcXcXcXcXcXbXbXbXbXbXaXP.=X9X9XwXwXsXqX0X0XqXqXqXsXeXeXsX8X8X1XOXOX+X-XgXbXbXbXbXcXmXnXcXcXcXcXcXcXnXcXcXcXcX",
"cXcXcXcXcXcXcXcXnXcXcXcXcXnXbXbXbXnXkXwXXX1X9X:X7XwXqX0X0X2X2X2X8X8X8X8X2X3X8X8X2X7X=XI.v.P.;XcXbXbXbXcXkXnXcXcXcXcXcXcXcXcXnXcX",
"cXcXcXcXcXnXcXcXcXcXcXcXnXbXbXbXbXmX>XU.*X8X9X1X:XqXqX0X1XW.W.W.I.T.W.OXW.W.E.U.I.W.*XE.K.v.z.oXkXbXbXnXcXcXcXcXcXcXcXcXcXcXcXcX",
"nXcXcXcXcXcXcXcXcXcXcXbXbXbXbXbXfXOXn.2XqX0XqX0XqXtXqX0X*Xv.#.O.$.,.8.F.F.J.8.$.l.l.$.v.*XL.#.h.n.jXbXbXbXmXmXcXcXcXcXcXcXcXnXcX",
"cXcXcXcXcXcXcXcXcXcXcXbXbXbXvX#XY.W.<XqX0XqXqXqXtXsXqX1X,.| >.0.0.i.t.y.t.y.e.9.9.,. ._ ) K.*Xv.o.n.mXbXbXbXkXcXcXcXcXcXcXcXcXcX",
"cXcXcXnXcXcXcXcXcXcXnXbXbXvXuXP.*X3XeXrXqXqX3X0XrXtX3XH.0.0.;.w.a.p._._._.t.t.t.r.t.9.>.| _ v.E.z.{ @XvXbXbXcXkXnXnXcXcXcXcXcXcX",
"cXcXcXcXcXcXcXcXcXcXbXbXbXvXoXOX3XeXeXtXqX0X0XqX0X3X).y.w.w.w.p.'.|.|.&X{._.'._.(.^.p.e.2.>._ 8.c.k.@.uXbXbXbXkXcXcXcXnXcXcXcXcX",
"cXcXcXcXcXnXcXcXcXbXbXbXbXjXXX*XeXsXtX0XqXqXeX0X2X,Xy.y.w.w.q.'.&X6X6X X X}. X X X|._.^.1.=.| Q l.v.b.n.vXbXbXkXmXcXcXcXcXcXcXcX",
"cXnXcXcXcXcXcXcXbXbXbXbXzX-X,X8XrXtXeXqX0XtX8X8X3X].y.q.q.p.q.p.&X6X6X5X}.}. X X|.}.`.`.q.;.=.L T O.c.z.gXbXbXbXkXnXcXcXcXcXcXcX",
"cXcXcXnXcXcXcXcXbXbXbXxXoXOX2X0XrXeXrX8XtXqX2XqX8X,X).y.q.t.p.p.`.5X6X X}.`.`.`.`.}.`.(.a.-.;.K a +...( ;XbXbXbXkXcXcXcXcXnXcXcX",
"cXcXcXcXcXnXcXnXbXbXcXoXXX7X8XeXrXeXqXqX0X=X0XtXrX3X].~.y.q.q.q.`.5X6X5X}.}.`.(.`._.}._.i.3.;.^ n P #.R ' vXbXbXkXmXnXcXcXcXcXcX",
"cXcXcXcXcXcXnXbXbXbXiXU.2X9XrXyXyXrXrX0X8X8X0XqXeX9XH.y.r.e.4.4.p. X5X5X X}.(.^.^.^.p.^.7.-.^ ^ m ; Z +.F dXbXbXcXkXnXcXcXcXcXcX",
"nXcXcXcXcXcXbXbXbXbXuX=X9X0XtXtXeXeX0X8XeXqX0XqXeX0XT.9.e.1.q.4.w.}.5X5X&X}.(.i.u.e.r.r.5.^ ;.*.M r ` +.I uXbXbXmXkXnXcXcXcXcXcX",
"cXcXcXcXcXbXbXbXbXpX@X>X9X0XtXtXtXrXeXeXeXrXtXrXtXtXE.G.e.0.7.u.5./.}.5X X}.(.i.u.i.^.^.7.5.5.^ B V k.O.Z dXbXbXkXkXnXcXcXcXcXnX",
"cXcXcXcXcXbXbXbXiXY.:XwX9XqXtXtXrX0XrXyXyXtXtXqXtXeX1X).0.3.3.4.3.5.`.5X}.`.(.^.i.^.(././.7.7.2.K ! ..} I jXbXbXcXkXnXcXcXcXcXcX",
"cXcXnXcXbXbXbXcXoX>XaX9X9X0XtXrX8X8XrXyXeXqXqXqXtXqX8X).7.-.-.5.3.5.(.6X X(./.`./.a.^.}.(.^.2.^ m 5 S G D dXbXbXkXkXnXcXcXcXcXcX",
"cXcXcXcXbXbXbXdXXX9X7X7X8X8XrX0X3X3XrXeX8X7X7X0XqXrX%X9.1.-.-.3.w./.(.o.y 7 n K :.7.7.^.}.^ 7 $ . : x f D uXbXbXcXkXnXcXcXcXnXcX",
"cXcXcXcXbXbXbX#XXX9X7X2X8X8XqX9X:X9XqX8X<X2X8X0X8X7X!.y.i.7.a./.~.k.A 8 8 8 8 8 8 ! m L D e 0 h u q q 0 q #XbXbXcXkXcXcXcXcXcXcX",
"cXcXcXnXbXbXvX#X=X3X3X,X:X:X:X:XoX:X7X8X,X1X7X2X=X0XW.#.j.Q x k k 8 8 s.s.c h w h 8 j h j k b s.w s l 0 9 iXbXbXnXkXcXcXnXcXcXcX",
"nXcXcXnXbXbXxXP.+X,X1X,X@XOX-X=XB.W.:X9X+X=X=X=X3X8Xk 0 j 0 8 * 0 w b M.f.c h w u q 8 e . b N.d.w s s q : z.vXbXbXkXkXcXcXcXcXcX",
"cXcXcXnXbXbXmXn.T.R.,XW.A.n.I.T.j.b.U.-Xn.-XW.Q.*XY.9 i Q >.1.J 9 l v M.s.b l k z w k :.. h M.M.x s s q u D dXbXbXcXkXnXcXcXcXcX",
"cXcXcXnXbXbXcXn.I.T.[.D.#.+.T } ' j.b.m.v.L.,.L.L.*X .y.^._.).:.t h c v d.b k l b 9 Q }.J 8 v f.s.z c e ' D ;XbXbXbXkXcXcXcXnXcX",
"cXcXcXcXbXbXcXz.b.v.v...( d r Z _ ( ` ` ..` m.L.$.=XF.t.y.~. X.XZ h l z z z z z 0 i }.}.:.r q s l l q s $.( n.bXbXbXcXkXnXcXcXcX",
"cXcXcXcXbXbXbXn.+.b.g.` P y ; p { p g ( ' [ [ ` k.l.Z.y.r.~.~. XG.k 0 h h 0 q 9 i 1././.a.^ L i i 1 i T c.) T >XbXbXbXhXcXcXcXcX",
"cXcXcXcXbXbXbXiX+.j.j.] C f [ t Z g g ( U f x ' ..o.K.G.r.u.r.~.}.~.Q i t t ! K w.a.i.`.5.*.*.3.%.m J V ..D V n.bXbXbXhXcXcXcXcX",
"cXcXcXcXbXbXbXcXx.' ] Z t U ] g r f P P Y U g P C ) L.D.G.e.4.e.6.^.(.(.7.-.^ ^ w.a.q.-.;.^ K *.&.M a V C C C #XbXbXbXhXbXcXcXcX",
"cXcXcXcXcXbXbXbXuX( ( g P g r d 2 C F F G d t Z T #.L.L.S.C.9.0.3.-.3.5.-.^ 7.2.B n 7 N N n m ~ ~ n y y a g x.mXbXbXcXhXcXcXcXcX",
"cXcXcXcXmXcXbXbXnXB.f g U f r i ; C C Y ) z.C E ..v.L.*XE.I.A.F.6.3.;.;.^ 2.(.G.{ 3 # o o % 5 n N 4 6 ( g x xXbXbXbXhXkXcXcXcXcX",
"cXcXcXcXcXmXbXbXbXbX#XZ d C r 2 2 2 3 ( p O.) ( X.O.E.,X+XT.I.L.S.9.6.:.:.G.v.v. ._ C = # + @ - p n a x d f xXbXbXcXhXbXcXcXcXcX",
"cXcXcXcXcXcXcXbXbXbXbXiX' r > 2 3 , 3 a C H R ) h.v.E.!.[.J.S.I.L.K.S.Z.A.k.E g.v.( f 3 3 = = - 3 p , 3 F G jXbXbXcXkXnXcXcXcXcX",
"cXcXcXcXcXcXmXcXbXbXbXbXnXuXU , = = 2 , a S G ) +.h.S.%XR.H.J.J.Z.Z.k.L.{ Q I i f ; ; # = + + O - # @ 6 a _ kXbXbXbXkXcXnXcXcXcX",
"cXcXcXnXcXcXnXcXkXbXbXbXbXbXcX#Xn.f > , > S ..l.g.k.D.J.F.H.J.O.v.h.z.#.G C 2 - $ + + + O = a a f f a S H V ;XbXbXbXnXkXnXcXcXcX",
"cXcXcXcXcXcXcXcXcXkXkXbXbXbXbXbXbXiXP > , D { v.c.J.,.D.F.S.O.#.U.n.OXH _ < % % @ & > > # = f f _ _ _ _ S 4 V oXbXbXbXkXcXcXcXcX",
"cXcXcXcXcXcXcXcXcXcXcXkXcXbXbXbXbXbXbXm.D R } $.8.8.$.R.J.$.O.c.+.@.k.p 5 @ # @ 4 4 # @ O o X o       O # - > 3 xXbXbXbXkXcXcXcX",
"cXcXcXcXcXcXcXcXcXcXcXbXcXkXkXbXbXbXbX$XD ) O.8.,.} D.S.A.Z.D.O._ I V = o # # 3 C f F < 5 5 3 5 + X o @ = - , # m.bXbXbXkXcXcXcX",
"cXcXcXcXcXcXcXnXcXcXcXcXcXcXkXkXbXbXbX$XS A z.C.C.J.!.l.V.S.,._ { T C 5 S V J / R { #.o.+.@.z.` ( a + O $ - d p 3 dXbXbXcXkXcXcX",
"cXcXnXcXcXcXcXcXcXcXcXcXcXcXbXcXbXbXbXzXz.Y X.#.A.!.T.R.8.$.| } R G D O.A. .$.D.V.A.D.A.k.E.=XOXn.+.[ a - % y 2 , oXbXbXnXkXcXcX",
"cXcXcXcXnXcXcXcXcXnXcXcXcXcXcXcXcXbXbXbXjXh...) @.Z.!.D.$.8.8. .R } } 8.!.J.R.[.*XE.T.W.L.K.K.-X*XE.v.v.E p y < + U bXbXbXkXcXcX",
"cXcXcXcXcXcXcXcXcXcXcXcXcXcXcXcXcXcXbXbXbXdX+.) +.c.$.k.S.!.C. ./ | 8.F.[.[.4X<X4XQ.E.E.OXk.c.OX*X,X%XQ.C.T C C $ P bXbXbXhXcXcX",
"nXcXcXcXcXcXcXcXcXcXcXcXcXcXcXcXcXkXnXbXbXbX$XD D ..o.c.l.A.8.| H V.8.!.%X%X<X%X4X4XQ.l.v.L.W.+XW.+X!.%X). .G 3 $ uXbXbXbXhXcXcX",
"cXcXcXcXnXcXcXcXcXcXcXcXnXcXcXcXcXcXcXnXbXbXuXy p _ @.$.o.v.#.} #.v.J.U.%X5X<X&X%X*XE.V.c.T.!.Q.[.%X%X%XH.l.{ p ; dXbXbXcXhXbXcX",
"cXcXcXnXcXcXcXcXcXcXcXcXcXnXcXcXcXcXcXcXbXbXbXuXX.D d o.z.o.X.+.+.b.I.U.+X%X%X%X!.Q.,X%XQ.!.[.T.R.!.!.%XT.k.D p j.bXbXbXhXkXcXcX",
"cXcXcXcXcXcXcXcXnXcXcXcXcXcXcXcXcXcXcXcXbXbXbXbXbXxX` 3 I p Z ) _ #.L.I.W.T.[.].%X3X<X5X<X1X,XI.Y.W.-XE.L.g.T G gXbXbXnXhXcXcXcX",
"cXnXcXcXcXcXcXcXcXcXnXcXcXcXcXcXcXcXcXcXcXnXbXnXbXbXcXj.& % f C d z.b.v.K.c.V.].].4X6X<X3X9X+Xz.b.` +.v.@.) T ` hXbXbXkXkXbXcXcX",
"cXcXcXcXnXcXnXcXcXcXcXcXcXcXcXcXcXcXnXcXcXkXkXcXbXbXbXbX#Xi r r 3 ) h.( #.Z.c.A.,X,X+X2X1X@XU.` X._ ( ` _ z.uXdXbXbXbXkXkXcXcXcX",
"cXcXcXcXcXcXcXcXcXcXcXcXcXcXcXnXcXcXcXcXcXcXcXkXcXbXbXbXbXbXuXI P r 5 y T k.Z.K.*X=XE.L.OXv.X.( ' h.G G x.cXbXbXbXbXnXhXcXcXcXcX",
"cXcXcXnXcXcXcXcXcXcXcXcXcXcXcXcXcXcXcXcXcXcXnXnXcXkXbXbXbXbXbXnXnXuX( 3 V R D +.c.P.v.c.c.+.` R S @.n.;XlXbXbXbXbXcXpXmXcXcXcXcX",
"cXcXcXnXcXcXcXcXcXcXnXcXcXcXcXcXnXcXcXcXcXcXcXcXcXcXkXmXbXbXbXbXbXbXbXdXoXn.j.` _ O.{ ) G D C D I dXbXbXbXbXbXmXhXhXcXcXcXcXcXcX",
"cXcXcXcXcXcXcXnXcXnXcXcXcXcXcXcXcXcXcXcXnXcXcXnXcXnXnXmXkXmXcXnXbXbXbXbXbXbXbXuXx...) @.oXm.n.iXmXbXbXbXbXnXkXhXcXvXcXcXcXcXcXcX",
"cXcXcXcXcXnXcXcXcXcXcXcXcXcXcXcXcXcXcXcXcXcXcXcXcXcXcXnXcXmXkXkXcXcXbXbXbXbXbXbXbXmXlXvXbXbXbXbXbXbXbXcXkXhXkXnXcXcXcXcXcXcXcXcX",
"cXnXcXcXcXcXcXcXcXcXcXcXcXcXcXnXcXcXcXcXcXcXcXcXcXcXcXcXcXcXbXnXcXkXkXkXcXbXbXbXbXbXbXbXbXbXbXbXbXbXhXhXkXcXnXcXcXcXcXcXcXcXcXcX",
"cXcXcXcXcXnXcXcXcXnXcXcXcXcXcXcXcXcXcXcXcXcXnXcXcXcXcXcXcXcXcXcXcXcXcXcXkXkXkXcXnXbXbXbXcXcXcXkXhXhXkXcXnXcXcXcXcXcXcXcXcXcXcXnX",
"cXcXnXcXcXcXcXcXcXcXcXcXcXcXcXnXcXcXcXnXcXcXcXcXcXcXcXcXcXcXcXcXcXcXcXnXbXcXcXkXkXhXhXhXhXhXkXkXcXcXbXcXnXcXcXcXcXcXnXcXcXcXcXcX",
"cXcXcXcXcXcXnXcXcXcXcXcXcXcXcXcXcXcXnXcXcXcXcXcXcXcXcXcXcXcXcXcXcXcXcXcXcXcXcXcXbXcXcXcXbXcXcXnXcXcXcXcXcXcXcXcXcXcXcXcXnXcXcXcX",
"cXcXcXcXcXcXcXcXcXcXnXcXcXcXcXcXcXcXcXcXcXcXcXcXcXcXcXnXcXcXcXcXcXcXcXcXcXcXcXcXcXcXcXcXcXcXcXcXcXcXcXcXcXcXcXnXcXcXcXcXcXcXcXcX"
};