/* XPM */
static char *E0vHnY8XMAES2L3__1_1706043420[] = {
/* columns rows colors chars-per-pixel */
"64 64 256 2 ",
"   c #040200",
".  c #0B0302",
"X  c #0C0901",
"o  c #07080A",
"O  c #120B07",
"+  c #14130A",
"@  c #181609",
"#  c #070B12",
"$  c #191814",
"%  c #09140E",
"&  c #2A1E18",
"*  c #192414",
"=  c #28251A",
"-  c #302B1B",
";  c #0C1C24",
":  c #012637",
">  c #152E32",
",  c #272725",
"<  c #322B25",
"1  c #383729",
"2  c #373834",
"3  c #2A3130",
"4  c #2F1F29",
"5  c #45352C",
"6  c #483F36",
"7  c #6D3E38",
"8  c #3B4537",
"9  c #484839",
"0  c #514D39",
"q  c #7C4137",
"w  c #2E3C43",
"e  c #172A61",
"r  c #413E45",
"t  c #2F4A4F",
"y  c #2A5462",
"u  c #346475",
"i  c #134D5E",
"p  c #484A48",
"a  c #534A46",
"s  c #575547",
"d  c #585A58",
"f  c #495755",
"g  c #635B4A",
"h  c #655C55",
"j  c #6A4A4C",
"k  c #556252",
"l  c #696757",
"z  c #746D5C",
"x  c #6F6C53",
"c  c #4E5E64",
"v  c #516C71",
"b  c #676967",
"n  c #756D67",
"m  c #787968",
"M  c #7A7B78",
"N  c #6A7271",
"B  c #6C5F79",
"V  c #B81613",
"C  c #B52419",
"Z  c #B31E20",
"A  c #943537",
"S  c #B12C2A",
"D  c #932113",
"F  c #CB1517",
"G  c #D71212",
"H  c #D40C0B",
"J  c #E80907",
"K  c #F40302",
"L  c #FC0202",
"P  c #FF0903",
"I  c #FC040A",
"U  c #F8080A",
"Y  c #FD0712",
"T  c #E61012",
"R  c #C21C23",
"E  c #CD302F",
"W  c #C42016",
"Q  c #9E3745",
"!  c #854756",
"~  c #B5584B",
"^  c #B16B58",
"/  c #847B6B",
"(  c #8B7975",
")  c #995967",
"_  c #C5544D",
"`  c #CF7264",
"'  c #974036",
"]  c #7A8373",
"[  c #86836C",
"{  c #898677",
"}  c #938C7A",
"|  c #98937C",
" . c #8F8F77",
".. c #A89076",
"X. c #A8A07C",
"o. c #CE8776",
"O. c #322D91",
"+. c #342AB5",
"@. c #1E23AE",
"#. c #37798A",
"$. c #377D99",
"%. c #2E7289",
"&. c #2760B4",
"*. c #4F798E",
"=. c #737587",
"-. c #7269AF",
";. c #59629E",
":. c #261BC9",
">. c #2C1ED4",
",. c #3635D8",
"<. c #312ECF",
"1. c #3B35E6",
"2. c #1E21C8",
"3. c #4435D9",
"4. c #452FD4",
"5. c #453AE7",
"6. c #402EE2",
"7. c #3150CE",
"8. c #3578D5",
"9. c #2F73D5",
"0. c #1D54CB",
"q. c #4745CE",
"w. c #5C54EF",
"e. c #86768E",
"r. c #27859D",
"t. c #39839C",
"y. c #3F919C",
"u. c #168BBD",
"i. c #1C95BD",
"p. c #1C9ABD",
"a. c #1799BA",
"s. c #138DAC",
"d. c #2989A7",
"f. c #3789A8",
"g. c #288CB9",
"h. c #358CB5",
"j. c #2295BC",
"k. c #2996B9",
"l. c #3793B6",
"z. c #3293AC",
"x. c #2998A4",
"c. c #458899",
"v. c #528796",
"b. c #748D93",
"n. c #468BA6",
"m. c #4695B6",
"M. c #5191AE",
"N. c #6B95AB",
"B. c #67A7BC",
"V. c #70A4AD",
"C. c #4BA5B6",
"Z. c #198DC4",
"A. c #1D95C4",
"S. c #169BC4",
"D. c #1B99C4",
"F. c #1595CB",
"G. c #1E96C9",
"H. c #159ACA",
"J. c #1A99CA",
"K. c #1593C3",
"L. c #1C95D2",
"P. c #149AD2",
"I. c #1A98D4",
"U. c #1293C7",
"Y. c #278DC9",
"T. c #2295C4",
"R. c #249AC3",
"E. c #2294CB",
"W. c #2A94CC",
"Q. c #239BCB",
"!. c #2B98C6",
"~. c #3399C4",
"^. c #2293D2",
"/. c #2798D4",
"(. c #318ED4",
"). c #1BA2CC",
"_. c #27A1CD",
"`. c #328DE3",
"'. c #689ACE",
"]. c #6BCDD8",
"[. c #9A9687",
"{. c #989897",
"}. c #8B8F8E",
"|. c #A59C89",
" X c #A49B94",
".X c #B39387",
"XX c #9DA292",
"oX c #A7A48C",
"OX c #AAA897",
"+X c #B3AB98",
"@X c #B7B39C",
"#X c #B2AB90",
"$X c #9298AC",
"%X c #A59EAC",
"&X c #9BA5A8",
"*X c #8AADB1",
"=X c #A8AAAA",
"-X c #B9B7A6",
";X c #B8BAB8",
":X c #ADAFAE",
">X c #D0988B",
",X c #CBAE98",
"<X c #C5BBA9",
"1X c #C8BAB0",
"2X c #F6B6AA",
"3X c #F2A090",
"4X c #BCC2A8",
"5X c #B8C4B5",
"6X c #9FC7BE",
"7X c #C7C5AC",
"8X c #CDCBBA",
"9X c #C8C6B5",
"0X c #D3CEBA",
"qX c #D7CAB6",
"wX c #CCD3B8",
"eX c #D4D2BD",
"rX c #D7D4BA",
"tX c #D3C7AB",
"yX c #E7D1BB",
"uX c #E2E1BA",
"iX c #8FB6C9",
"pX c #B8B9C8",
"aX c #AAB3CF",
"sX c #B6B7F3",
"dX c #9491DD",
"fX c #C2B4E8",
"gX c #8AC7D5",
"hX c #B6C7C9",
"jX c #ACCBD4",
"kX c #B3CBE9",
"lX c #B1E0EC",
"zX c #C7C8C6",
"xX c #DBD5C3",
"cX c #DCDAC5",
"vX c #DDDCCA",
"bX c #D5D6C6",
"nX c #D8DBD5",
"mX c #CDCFD1",
"MX c #E3DDCB",
"NX c #E4DAC6",
"BX c #E3DED3",
"VX c #F5D7C7",
"CX c #DEE2D4",
"ZX c #D9E3C7",
"AX c #E4E3CD",
"SX c #E6E4CA",
"DX c #E5E2D2",
"FX c #EBE4D4",
"GX c #ECEBDC",
"HX c #E8E9D7",
"JX c #F2E8D9",
"KX c #F4F2D9",
"LX c #CFD4EF",
"PX c #D5EFF0",
"IX c #E7E9E5",
"UX c #F4F3ED",
/* pixels */
"G.G.G.G.G.G.G.G.D.T.G.G.T.G.G.D.S.S.J.L.E.E.j.p.D.S.H.P.P.L.^.E.T.G.L.J.K.p.T.T.j.j.I.I.I.L.R.j.T.G.G.G.G.G.G.G.G.G.G.G.D.G.G.G.",
"G.G.T.G.T.G.G.G.G.G.G.G.G.G.G.G.D.G.G.G.E.E.T.j.D.D.H.P.L.L.E.E.Q.T.H.J.T.R.Y.W.g.T.L.I.L.G.R.j.T.G.T.G.T.D.G.T.G.G.G.G.T.G.G.T.",
"G.G.G.G.G.G.G.G.G.T.G.G.G.G.G.T.E.E.T.A.A.j.T.E.W.W.^.G.G.T.j.j.T.E.H.H.T.(.8.0.9.W.L.L.J.K.D.S.D.G.G.G.G.G.G.G.G.G.T.G.G.G.G.G.",
"G.G.G.G.G.G.G.G.G.G.G.G.G.G.G.Q.W.E.T.D.p.p.T.T.Y.Y.^.^.T.R.p.j.!.Z.H.J.Y.(.8.@.9.`.^.F.G.p.D.H.G.G.G.G.G.G.G.T.G.G.G.G.T.G.G.G.",
"T.G.G.G.G.T.G.T.G.G.G.G.G.G.A.T.E.E.A.S.S.S.J.E.^.^.^.L.G.G.G.G.W.Z.L.`.8.7.<.2.0.`.^.G.T.p.S.H.G.G.G.G.D.T.G.G.G.G.G.G.G.G.G.G.",
"G.G.G.G.G.G.G.G.G.G.G.T.G.G.G.T.E.T.G.D.H.F.J.J.G.E.G.G.G.G.T.D.u.^.`.9.7.7.,.7.0.`.`.F.R.p.S.H.D.G.G.G.G.G.G.G.R.G.G.G.G.G.G.G.",
"G.A.T.G.G.G.D.G.D.T.G.G.G.G.G.T.T.Y.W.E.G.J.J.H.H.H.S.D.p.j.x.k.g.(.9.7.7.3.,.0.0.Y.(.T.R.j.G.G.G.G.G.G.G.T.G.G.G.G.T.G.G.G.G.R.",
"G.G.G.G.G.G.T.G.G.G.G.G.G.G.G.G.T.T.W.E.E.^.P.H.H.D.p.d.f.f.y.n.'.8.<.1.w.3.:.<.@.9.(.T.R.j.G.Q.E.G.G.G.G.G.G.G.G.G.G.G.D.G.G.G.",
"G.T.G.G.G.G.G.G.G.G.G.G.G.G.D.G.H.S.K.G.A.F.I.I./.(.$.M.N.}.&XaX'.@.2.5.6.>.>.3.+.7.~.h.k.j.T.^.G.G.G.R.G.G.G.G.G.G.G.T.G.G.G.G.",
"G.G.G.G.T.G.G.G.G.T.G.G.G.G.G.D.U.).a.i.W.E.L.J.E.$.N.=.e.%XLX-.@.<.<.1.6.>.4.4.+.&.'.m.x.k.Q.J.G.G.G.G.G.G.G.T.G.A.A.G.G.G.G.G.",
"G.G.D.T.G.G.G.G.G.G.G.T.G.G.G.G.F.Q.T.T.T.A.^.W.l.u e a %XfX-.O.+.1.,.1.6.:.4.3.3.q.sXgXv.y.S.P.J.G.G.G.T.G.G.A.G.T.G.G.G.T.D.T.",
"G.G.G.G.G.G.T.G.G.G.G.G.G.G.G.Q./.Z.W.W.Z.T.!.d.#.y f j e.;.+.4.6.,.1.1.:.:.4.4.4.+.sXkXgXn.a.H.D.G.G.G.G.G.G.G.G.G.G.G.G.G.G.G.",
"G.G.G.G.D.T.G.G.G.G.T.D.G.T.G.G.Q.Z./.J.A.k.x.y.*X] > XX$Xe :.6.6.>.1.>.:.:.,.4.5.+.dXLXfX$Xr.).A.G.G.G.G.G.G.G.G.G.G.G.G.G.G.G.",
"G.T.G.G.G.G.G.G.G.G.G.G.G.A.G.G.Q.K.J.G.R.x.v.jX}.0 XXnXsXO.+.:.6.5.>.:.:.2.<.7.5.+.-.UXmX=X#.d.j.G.G.G.G.G.G.G.G.G.T.G.G.G.T.G.",
"G.G.G.G.G.G.G.G.T.G.G.G.G.G.G.D.D.K.J.Q.h.c.*XSX[ ,XZX;XaXkXsXdXq.6.>.:.>.>.,.<.3.@.e LXIXmX*X$.k.G.T.G.G.G.G.G.G.G.G.G.G.G.G.G.",
"E.T.D.D.G.G.Q.G.G.G.G.G.T.T.T.G.G.Q.Q.k.d.*XHXX...<X8XlXaXpXmXLXdX@.<.>.:.>.<.5.5.+.O.fXIXLXmXN.z.D.T.E.Q.G.G.D.T.D.G.E.G.G.T.D.",
"E.G.D.S.T.E.E.^.I.J.p.j.j.T.G.L.I.G.j.z.V.ZX@X| [.-X-XmXzX:XzXLXkXO.O.3.@.+.5.5.5.:.O.dXLXnXHXgXd.D.R.!.E.L.F.H.D.j.E.E.L.L.A.p.",
"E.G.p.D.R.T.^.^.L.F.D.j.k.j.G.J./.u.~.c.6XwX.X..[.;X1XbX1X,XzXpXkXdXdXdX@.+.4.,.4.@.O.-.pXDXSXhXC.d.g.T./.J.J.D.D.R.E.E.L.L.A.p.",
"G.J.D.S.T.E.^.^.L.H.D.j.j.T.J.P.I.W.$.B.*X . .x / OX-XqXNXxXzX{.pXmXaXdX-.dX-.O.O.e -.zXIXrXtXKXV.n.~.s._.I.G.W.T.G.G.G.G.G.E.G.",
"E.J.D.S.T.T.Y.^.G.J.S.p.T.T.J.I.F.!.m.V.m x 0 1 [ +X<X1XxXxXbX=X-X&X=XaXaXjXsXaXaXfXLXpX4XuXuXbXjX#.z.!.J.u.T.W.E.E.D.S.p.G.E.L.",
"G.J.S.p.D.T.W.E.G.J.S.S.G.G.J.J.A.s.N.v 8 m 8 * [ oX,XqXcXrXvXbX-XXX;XhXhX%XhX=XfXpXpXzXbXNXMXBXIX*Xy.s.a.j.E.E.E.E.S.p.a.D.^.I.",
"L.J.D.D.p.T.E.Y.G.J.H.D.G.G.L.T.~.r.] b 8  .k % m #XtXrXMXZXSXrXCXnXnXzX-X:XzX=X%X-X1XzX9X8XvXBXHXPXjXC.z.k.W.G.^.G.D.p.p.D.I.L.",
"G.J.D.S.j.T.!.Y.E.J.S.S.D.J.G.Y.l.#.*X[.] #X- * [.7XNXNXrXbXSXSXBXBXJXIXDXbX7X8X4X<X9XzXxXBXBXnXHXnXPXPXB.t._.J.J.G.T.j.G.G.E.L.",
"G.J.S.G.A.T.j.T.G.J.H.H.H.G.E.Y.$.*X4X .@X] % k |.[.#XrXGXCXyXNXMXBX1X|.-XSXZXAXAX9X9X<X8XJXBXvXnXnXbXHXPXC.h.G.H.D.A.R.G.G.G.G.",
"G.J.J.J.A.j.T.!.T.G.F.).K.K.~.f.v.b.k #X0Xz % N a O X - [.OXOXm h 9 - 0 | oX<XrXrXrXtX| rXcXrXvXbXvXyXqXCXlXd.p.J.K.G./.E.G.G.i.",
"G.G.G.G.D.T.T.T.T.Z.F.).D.T.~.c.b.c ] 7X#X0 & X = l ] $   X ( n . O 0 qXNXSXoX .7XrXrX@X[ SXqXrXzXAXVXyXrXmXgXr.i.I.I.Z.Y.G.i.p.",
"T.G.G.S.J.G.T.T.E.Q.F.P.D.k.f.#.f 8 ] 4XwXl $   < { s @   O =XUX(   @ @ < h [.n |.xXBX8X .1X-XqXxXcXSXtXtXZXPXC.d.Q.I.U.W.T.i.!.",
"T.G.G.G.J.D.T.T.E.^.J.H.p.g.c.u k * k uXX.- & . o   * s h < 1XUXzXz l { n [.n n  X9XMX7X[.@X-X .<XAX0XNXtXOXnXjXh.!.L.L.Q.T.j.T.",
"T.E.E.J.J.J.G.T.Y.E.I.S.j.z.*.c k % [.s 1 0 O X 3 9 /  X7X{ bXCXDXCX-X[ 9XUXUXvXxXAXMX@X .+X@X,X<X<X-X0XqX#XOXjXB.h.A.J.D.G.Q.p.",
"T.T.E.L.F.J.G.E.Y.G.I.K.j.f.u y b 9 l s g s   1 }.:XOX|.tX,XZXIXnXHXSX9XzXxXBXJXKXrXcX7X9X[ 9 @XrX/ +X| 7XVX|.=XiXn.g.I.U.K.Q.i.",
"T.T.E.G.I.P.G.E.W.G.L.G.k.r.t 3 k f = & 5 - O { 5X;X0XtX,XX.SXCXbXbXZXSXbXDXIXBXNXtXrX/ [.{.| oX@X .[ [ +X7X1XXX$XM.f.W.P.P.J.G.",
"T.T.E.E.J.J.E.E.W.Z.F.A.k.r.t , N m 1 5 / 0 . 1 9X5XeXuX[ X.UXKXHXbXvXrXFXGXBXJXcXtXoX[  Xa l 7X[.oXg | oXOX=X[.b.v.h.T.P.P.D.R.",
"I.K.T.R.J.U./.Y.W.Z.T.T.W.i w p | g 5 ( {.2   $ oXZXZX4Xs 1 xXbX5XIX-X-XHXAXDXMXxX7X-Xl oX/ 0 [ OX} x m | #X[.&Xv.c.k.J.L.I.E.j.",
"P.G._.j.u.U.(.(.~.h.l.~.l.%.y p 9 & 5 z a ,   & @XwX@X=Xd   4 1 X h GX7X-XKXFXFXcXvX#Xl |.+X+X0 g 0 ] } z n ( }.c.y.j.H.L.G.T.R.",
"F.G.Q.A.a.).~.$.$.$.#.*.f.n.u >   $ g 1 9 $   + [ @XXXOXp . .     0 =X9XbX9XcXvXvX7X{ / @X-X@X<X0 9 g |.g / m v.c.d.k.J.J.G.Q.T.",
"G.G.T.j.).R.l.i : : : : : #.%.: % % < 1 3 $ $ . 1 x 8 2 o & & 1 -   1 n  X4XAXxX0XrXOX| |.9X| -Xx 9 |.[  .b d v c.z.j.J.L.G.G.G.",
"J.T.Q.T.p.d.B.e # ; # # # u m.%.: ; * d m 2 % $ + & + = = 2 1 1 < + 9 s s s { 0X9XoX<XAX7X<X| [.x m / / s f t c.f.k.R.J.J.J.G.G.",
"G.A.W.E.j.l.B.t # $ % $ # y m.h.%.; c M m 8 2 + 6 O % , o   X   X $ X < s 1 b @X@Xz 9XbX0XxX<X|.l m x s 1 t c.n.h.g.T.G.J.J.G.G.",
"S.D.F.!.~.B.$Xt   X   % o t M.h.t.y t 9 < 1 # O . O o # %   X =     . + = s } +X9X( oXoX8XcX-X .l s m 9 p y %.z.Y.!.T.D.J.J.J.G.",
"D.T.Z.T.l.iX}.a   @ % X   t M.n.f.%.> < 8 $ X O . . O o . X 8 g = + .     O < [.OX@X|.-X9X9XbX|.s 0 X $ 8 i d.!.W.W.W.T.D.K.J.L.",
"R.G.a.!.f.N.%Xa O O ; 8 $ 3 jX'.f.c.v 3 8 - % X . O     O + 8 * , s = X @ O @ 1  .BX9X<X1X-XeX0Xk @ X > t #.z.Q.E.E.T.T.K.D.J.L.",
"T.i.).k.n.jXUX1X4 r c v $ w jXv.f.$.v 2 @ 8 k $ + O < e.{.[.s 1 n 2 p = a O - s oXcXAXrXxX9XxX9X{ *   w #.f.g.K.L.^.E.A.R.S.J.L.",
"Y.Y.j.s.B.PXLXe.O w f c # w hX*.m.%.u p m +Xs 1 , 9 s  .{ -Xm m {.m }.[.{ m n OX@X9XKXMXNXvXDX8X@X8   w t.z.T.I.L.L.E.T.G.D.J.J.",
"(.Y.p.x.].:XB a o # ; 3   , =X=.$.$.; , OX| h }.p [.wXOX;X<X:X-XbXbXFXDX-X9XoX-X-X<XFXMXvXNXFXBX-X] > u t.z.G.J.L.J.E.T.T.G.J.F.",
"Y.W.a.x.lXLXmXpX, $ o # # , b.b.f.r.t d oXz [.-X[  .X.#XoX .OXHXbXBXGXvXvXMX9X7X8XvXAXMXxXxXBXFXzX5Xv y.l.R.G.F.J.J.G.E.T.G.D.H.",
"(.i.a.z.lXPXIX=X+ O O # $ $ d }.t.t.c OX .g [.}.]  .oXwX#X8XzX5X-XHXHXDXvXAX9X-X0XGXHXAXvXMXJXBXGXnXv.f.h.T.E.Q.J.G.T.E.G.E.D.S.",
"/.Z.a.].LXe.f 2 . X O # # $ 3 b.n.$.b.{ 0 [ ( =XZXX.tX7X@X|.OXXX[.bXAXxXcXxXAXeX8XvXJXJXJXDXJXBXDXnXV.f.T.A.E.A.G.G.G.E.E.G.D.S.",
"^./.s.C.gXe.f M 0 = . $ # 4 & b.*.n.}.a g m ( { oX@X7X#X} <X}.[.bXMXSXAX0XxXMXAX0X7XHXKXKXvXGXFXcXCXgXm.g.A./.T.D.D.G.G.E.T.J.H.",
"^.L.u.k.n.kXnXUXUX5 o # o 3 4 d c.*.N.}.l n m @X@X9X4X4XbXbXzX-X0XSXJXSXNXMXBXvXCXbXHXKXKXSXSXHXZX4XgXl.!.E.Y.W.A.T.^.E.G.A.J.P.",
"^.L.J.T.z.lXPX{.h 4 $ 4 3 ; < B *.*.=.} N l x oX[.eX#X4X1XOXOX;X+XNXqX0XNXMXxXDXCXHXZXHXHXGX7XbXKX@X$XM.g.Q./.E.T.T.^.^.A.S.J.L.",
"G.G./.R.d.B.*X, 5 < 2 3 f b { {.N N q q x ] [ ] [ qXtX7X..oX@XoX4XrX7XZXBXbXCXCXCXGXnXFXGXKX1X2X3X^ ) *.g.S._.S.D.G.W.E.A.p.J.L.",
"G.G.G.T.~.m.N.b.{.p r p =.:X1X:Xz 7 D _ ^ x ] X.} @XqX<X/ | oXoXwXZXwXCXDXxXGXHXZXbXBXVXJXxXBX2XE Z A e.z.S.D.a.H.J.Y.W.p.S.G.G.",
"Q.F.Q.Z.~.l.B.lXhXN n =.{.pXmX Xq C W W D ^ .XoXOXOX.X[ / } } X.@XHXwX5XDXbXGXFXGXBXNXqXVX>X,X_ R T F A *.D.p.D.F.G.Y.!.p.a.R.E.",
"T.u./.Z.Z.g.f.B.*XaX&X}.{.:XzX.X' C J J V ` >X%X4XOX( ( [.oX<X@X7XwX5XZXBXNXFXJXyXVX,X3X2X` _ Z T Y H Z =.l.j.K.J.L.!.T.a.a.D.T.",
"A.p.Q.F.L.W.~.z.gXkX=X&X{.}.}.} ' V H J H W ^ 1XwXoX[.+XOX-XwXwXbX;X4XSXtXxXVXyXVX2X_ S E F G T Y I K F ! -.d.A.L.^.Q.D.S.a.D.T.",
"i.Q.Z.L./.L.A.g.C.B.pX%Xe.}.b h A C H K Y J S >X,X<X,X.X[.<X@X9X9XxX+X<X>XyXyX3X^ S Z F G J K P Y L L T A e.f.E.^.^.G.S.S.p.T.T.",
"j.p.G.L.P.I.F.j.f.M.*X$X X=.d j A C J P L U T S ^ o.o.>X,X .[ X.#X,XVXo.^ _ E E F G T J K K L L L L L J R ) M.G.^.(.G.S.G.J.G.A.",
"T.A.E.L.P.I.P.G.l.v.*X=X}.d p s A R J L L K Y T C C C S ` 3X>X>X~ ` o._ R V H T U U K K L L L L L L K K T Q ;.W.(.Y.G.D.G.E.T.T.",
"T.T.E.G.P.I.P.H.k.f.iXaX}.d p j Q R J L L L L K J G T H F E E E W V G H T T U J K K L L L L L K L K L L J S ;.~.Y.E.T.G.^.^.E.T.",
"T.T.A.J.P.P.P.F.!.f.B.aX=X=.c j A R J L L L L L P P K U U J T H J J K L L L I L L L L L L L L L P L L I K Z B m.Y.Y.G.G.Y.Y.E.J.",
"E.E.T.G.J.H.P.L.!.z.M.iXhX{.b j A R J L K K K K P P K P I K Y K L K P P L K L L L L L L I L I L L L L I K F j -.h.T.G.T.W.Y.^.J.",
"Y.G.A.p.p.S.H.G.W.g.M.iXjX=Xb j A S T K J K K K K K P K K I K I K L L L L L L L L L L L L L L L L L L L L F Q =.h.T.S.T.Y.E.J.J.",
"W.T.T.i.S.D.J.G.W.h.M.iXjX&Xb j ' S G L K K Y Y U L P K I Y K K K I I L L L L L L K L L L L L L L L I L Y T Z ) M.A.D.p.Q.G.J.F.",
"/./.!.R.R.).Q././.k.M.iXiX%Xn j j S T U U U Y Y I Y L P Y K P I I I I L I Y L I P U P L I L I L I I I L Y Y Z ) M.Q.).R.Q.Q._.J."
};