/* XPM */
/* XPM */
static char *comunismo__1_1706043010[] = {
/* columns rows colors chars-per-pixel */
"64 64 235 2 ",
"   c #450100",
".  c #4D0201",
"X  c #540200",
"o  c #5C0201",
"O  c #5A070A",
"+  c #640202",
"@  c #6C0202",
"#  c #66070A",
"$  c #730202",
"%  c #7C0202",
"&  c #7A1300",
"*  c #741E00",
"=  c #722B00",
"-  c #7A2807",
";  c #840102",
":  c #8C0202",
">  c #840B01",
",  c #8D0B00",
"<  c #8C0209",
"1  c #940102",
"2  c #9C0102",
"3  c #940C00",
"4  c #9D0C00",
"5  c #93000A",
"6  c #9A0109",
"7  c #980808",
"8  c #8C1400",
"9  c #841D00",
"0  c #8C1A00",
"q  c #951201",
"w  c #9D1401",
"e  c #951B00",
"r  c #9C1A01",
"t  c #97180B",
"y  c #A30101",
"u  c #AC0201",
"i  c #A50C01",
"p  c #AC0B02",
"a  c #A40209",
"s  c #AD010A",
"d  c #AB0B0B",
"f  c #B30202",
"g  c #BB0202",
"h  c #B40B01",
"j  c #BC0A03",
"k  c #B4020B",
"l  c #BC020A",
"z  c #B40A0B",
"x  c #BB0A0A",
"c  c #A41200",
"v  c #AB1401",
"b  c #A31803",
"n  c #A91A07",
"m  c #B41403",
"M  c #B81506",
"N  c #AF0311",
"B  c #B50310",
"V  c #B80811",
"C  c #A91713",
"Z  c #8B2600",
"A  c #852E00",
"S  c #852905",
"D  c #992401",
"F  c #942B01",
"G  c #952200",
"H  c #883302",
"J  c #983400",
"K  c #9B2E16",
"L  c #872D12",
"P  c #A52401",
"I  c #AA2202",
"U  c #A92A0D",
"Y  c #B72707",
"T  c #AB3400",
"R  c #A82812",
"E  c #B23418",
"W  c #BA360F",
"Q  c #B43F2E",
"!  c #C30102",
"~  c #CA0003",
"^  c #C30B03",
"/  c #C3000A",
"(  c #CC010B",
")  c #C40C0B",
"_  c #CA0B0B",
"`  c #D2030B",
"'  c #C3150E",
"]  c #C90214",
"[  c #CA1212",
"{  c #D20612",
"}  c #C4391C",
"|  c #9B4900",
" . c #9C4100",
".. c #985201",
"X. c #955112",
"o. c #8D4D17",
"O. c #A94701",
"+. c #A85702",
"@. c #B85706",
"#. c #A64812",
"$. c #B4471B",
"%. c #B75516",
"&. c #B14F0E",
"*. c #8D7A01",
"=. c #987708",
"-. c #897B1C",
";. c #926F1A",
":. c #A56300",
">. c #AF720E",
",. c #965628",
"<. c #905A38",
"1. c #AB5026",
"2. c #866624",
"3. c #976825",
"4. c #8C7829",
"5. c #977525",
"6. c #9D653B",
"7. c #8C723F",
"8. c #967B36",
"9. c #B6672B",
"0. c #B67925",
"q. c #A56D35",
"w. c #AC6633",
"e. c #B96835",
"r. c #A67F3A",
"t. c #BA7A38",
"y. c #A46B26",
"u. c #CB580C",
"i. c #C24215",
"p. c #C26B01",
"a. c #C86218",
"s. c #CF7119",
"d. c #D96E0D",
"f. c #E07815",
"g. c #D05124",
"h. c #C76B27",
"j. c #D27733",
"k. c #F0683E",
"l. c #E67334",
"z. c #8C7643",
"x. c #957448",
"c. c #AB7C53",
"v. c #AB7A4F",
"b. c #FD7B59",
"n. c #808214",
"m. c #9F8111",
"M. c #9D991B",
"N. c #AD8211",
"B. c #BE8116",
"V. c #AD910A",
"C. c #BAA611",
"Z. c #8C8725",
"A. c #978B30",
"S. c #BA863C",
"D. c #A89C39",
"F. c #B38E2E",
"G. c #95A03A",
"H. c #D6840A",
"J. c #E8961C",
"K. c #D8B317",
"L. c #C88528",
"P. c #D68F28",
"I. c #C79626",
"U. c #C58538",
"Y. c #DB8A3A",
"T. c #CF9D37",
"R. c #D09F38",
"E. c #E78D2F",
"W. c #EC9838",
"Q. c #D5A42D",
"!. c #CCA033",
"~. c #D4AE3A",
"^. c #D9A732",
"/. c #CBB02C",
"(. c #E7A92D",
"). c #E5B62C",
"_. c #F9BC2A",
"`. c #E9A93C",
"'. c #F8A439",
"]. c #E6B93C",
"[. c #FFBA3B",
"{. c #FFD70D",
"}. c #FFC31C",
"|. c #FFD81C",
" X c #FCD829",
".X c #FAC73E",
"XX c #EEDE31",
"oX c #FCD23B",
"OX c #FED738",
"+X c #E8CC2C",
"@X c #FCE130",
"#X c #FFE52B",
"$X c #9B8240",
"%X c #9B8150",
"&X c #AC8B47",
"*X c #A8874B",
"=X c #A99B46",
"-X c #B7954B",
";X c #B89755",
":X c #B38A4E",
">X c #B5AF4F",
",X c #AEA349",
"<X c #D99945",
"1X c #CA934D",
"2X c #EA9D41",
"3X c #FF9E41",
"4X c #EB8846",
"5X c #D8AD4F",
"6X c #D9AE50",
"7X c #D5B150",
"8X c #FBB542",
"9X c #FFBC54",
"0X c #F5BD50",
"qX c #EBAC4C",
"wX c #E49E60",
"eX c #FF9C7C",
"rX c #FABA66",
"tX c #FFC342",
"yX c #F6C944",
"uX c #FFDC44",
"iX c #FED14D",
"pX c #F9D949",
"aX c #EEC750",
"sX c #FEC453",
"dX c #FFCD51",
"fX c #FFC25C",
"gX c #FFCD5B",
"hX c #FFD65F",
"jX c #FFE340",
"kX c #FFE75F",
"lX c #FFCC63",
"zX c #FFCB6E",
"xX c #FFD761",
"cX c #FFCF71",
"vX c #FFE66A",
/* pixels */
"X o + # + X X X X O + $ $ % % % % ; ; ; : 1 2 2 2 y y a 7 a 7 1 ; ; : : : 7 1 1 1 < : ; % $ @ @ o o @ @ $ $ # o X .         X . ",
"X X + + + o X o o o @ $ % % ; ; ; : : : : 1 2 2 y y y y y 6 1 : : : 1 : 1 2 6 2 1 1 < ; % % $ @ + + @ $ % # @ + O .       . O X ",
"X o # # + o o + o + @ % ; ; < < : 1 : 1 1 1 2 2 y y y a y 6 1 1 1 3 1 2 2 y y 2 2 6 7 , : % % % @ @ $ % % % $ @ # X X . . X O O ",
"X o # @ @ + + # + $ $ ; < 5 1 < 1 1 2 2 2 2 2 y y y u y a y 2 2 2 2 2 y y u y y y y 6 2 1 : ; ; $ $ % % < % % @ # o X X X O # O ",
"o o # # $ $ # $ $ $ ; : 6 6 2 2 y y y y y y y y u u u u s a a 6 y y y y u u u u u y y 2 1 1 : : % ; ; ; ; ; % $ % + o o X o # + ",
"X o + $ $ $ $ # % ; : 2 y y y y y u u a y y y u u u s u s u u a y u u u u f f u f u u y 2 1 1 : > ; ; ; : < ; % % @ + + o o + @ ",
"X o + @ $ $ $ % % > 1 2 y u u u u f f u u u u u u f f f f k u u u u u f f f f f f f u y y 2 2 1 : : ; : < : ; ; % $ @ @ + + @ @ ",
"X X + @ $ $ % % ; : 2 u u f f f u f u u u u u f f f f g k g f f u u f f f f g f f f u u u i 2 2 : : : : : 1 < : ; % $ @ @ @ $ @ ",
". X # $ $ $ % % % : 2 u f g f f f u u u u u f f l f g l g l f l u u f l f f g f f f f u a y 6 6 : : : : 1 5 3 < ; ; % $ $ $ @ $ ",
". o # % % % % % ; 1 2 u f f f f f f f u f f f f f g g ! g g [ u u f u y f g l f f f k s y y 2 2 1 : 1 : : 1 1 1 : < > % ; % % $ ",
"X o @ & % % % > : 1 y f f g f f f u p f f f g g _ g ! g _ ) u j f z x h h f f u f f f u y y 2 2 1 : : 1 1 7 1 1 < : : : ; ; ; % ",
"X o + % ; ; ; , : 1 y u f f g f f f h f h f g g g g g g g f h u u u f h l f u g f u u u y 2 2 2 1 1 : 1 1 2 6 2 1 1 1 1 , : : > ",
"o + $ % ; : : : 1 2 y f f f f f f f f g g g g g g _ g j M p y p h u f u f g f f f f f u u y 2 2 1 1 1 1 2 2 2 2 2 2 2 1 1 1 : ; ",
"+ + % ; < : : 3 1 2 y u g f f f f f g g g g g g ! f g u c ' v 4 u u ' h u j f f f u u u u y y 2 2 1 1 1 1 2 2 2 a a 2 2 6 6 1 : ",
"@ @ % < 1 1 : 1 2 2 u f f g f f f g g g ! ! ! ! ! g j M 1 } b.} p y j h u j g f f f u f u u y y 4 2 1 2 2 2 y y y u y y 2 2 1 1 ",
"+ @ $ < 7 1 2 2 2 y y f f k f k g g g g ! ! ! ! f j f u m 2 U eXk.b 2 h h g f f g f u u u y y y y 2 2 2 y y y y u y y y y y 2 2 ",
"@ $ % ; 5 1 6 y a u u u f f f f f g g g ! ~ / g h f k k ^ f i e rXW.0 c u u j f g g h u u y u s a y 2 y y y u u u u u y y y 2 2 ",
"$ % % < : 1 6 y y y y f f f f f g g g l ~ ( / l j j f l g ! z r  .sX4X> Y f u f g ! g u i u k k u y y y u u u u u y y y y 2 y 2 ",
"% $ % ; : 1 2 y a y u u k f f f g g ! / / / / l g g ~ ` ~ ~ ! f 4 d.zX@.3 z h g ! g l k f u u f u u u u u z h u y u y y 2 y 2 2 ",
"% % % ; : 1 6 y u y y f u f f f k g / / / ! ! ! ^ g ~ ~ ` ! ! g g 7 '.9XF 4 u ^ ! ! / l h f f f u u u u f p f f u u y y 2 2 2 2 ",
"$ % % ; : 1 2 y y y u u f f f f l l ! ! ! ! ! ^ ! g ~ ` { l h j f 3 | hXE.0 u l ! ! ! l g f f f u f u f f f f u y u y y 2 2 2 1 ",
"$ % % : 1 1 2 y y u u f f f f g k g ~ ! ^ g ! ~ ! ` ` ( y 4 3 D E 0 * P.dXO.v f l ! / ! g g f f f f f f f h f u u u a y 2 2 2 1 ",
"% % % ; 1 1 2 y y u u h k f f g k k ! ! g ! ( ( ! ] ] h u.J.(.~.y.,.- A .XJ.q z l / ! g g g f f h f f g f h f f u u y y 2 2 1 1 ",
"% % ; ; : 2 a d y u f h k f g l k k ! ! ! l l ] ] l V r 8X@XpXM.Z.;X1.0 H.tXT 4 f ! l g g f f f g g g f g g f f u y y y 2 1 1 1 ",
"$ % > 1 1 2 2 y u u f f f g g l k g ! ! ! ! j ! l ^ w a.OXXX/.n.G.;XQ w O.sXj., h l l l g g g f ! g g g g h g g f u y 2 2 y 7 1 ",
"% % > : 2 2 y y u u u f g g g g l l ! ! ~ ! g h ^ u D [. XXXM.Z.>X:Xn m e 3XqXF v ! l ! ^ g l l l g g g g g g f u u y y y 6 6 1 ",
"% ; : 1 1 6 y u u u f f g g g ! ! / ! / / / h h y n d.|.#XK.*.D.qX$.y ' 2 l.9X| i g / ! g g g l ! g g g g f g f f u y y y y y 2 ",
"; ; ; : 6 y u u u u f g g g ! ! ~ ( / / / ! f p m P }.{. XV.=.lX4Xc k ^ h g.fX:.w ! ( / g g ! ! ! g g g g g g g f u u y i a 2 2 ",
"% ; : 1 2 a s u u f f g g ! ! ~ ~ ! ! / ! g j p q f. X|.K.=.;.wXi.u ^ g h W 0XB.c ! ~ ~ l f g ! g g h g g g g h f f u u u y y 2 ",
"; ; : 1 6 u f f f f f g g ! ! ! ~ ! g g g ! g m T 8X@X X=.5.-X9., j ^ ! f I qXL.c / ! / l g g g g g g f g g g g g f u u u a y y ",
"; : 1 1 y y u k f f g g ! ! ! ~ ! ! g h g ! ! h u.gXoXC.A.4.D.6XJ v j ^ j r ~.I.m ( / ! g f f f g g f g f g f g f f u f u u y y ",
"; : 1 6 y u f f f g g g ! ! ! ! ! g g g g ! ~ ! q 2XxX*.D.A.n.7XY.> h h j w !.!.v / l l g g h u f f f f g f g g g f f u f u y y ",
": : 1 2 u u f g f f l l ! ! ! ! / ! ! ! g ! ~ ! y #.1X4.,X=X2.S.sX+.q V ) 4 <Xt.I h f l ! g h u p h f f f f f f f u f u u u y y ",
"; : 1 2 u f g g g g k g l ! ! ! / ! g g ! ! ~ ! M : H q.1X3.= e.Q.8X0 p V i 1XU.I h f g ! ! f u f f f u u f f f f u f u u y y y ",
"; : 1 y u z g f f f f l g g ! ! g g g g ! ! ! / _ h 1 q J F D $.L.lXs.8 i C e.U.I l ! ! ! ! f u f f f u f f f f u u u u u u y 2 ",
"; : 1 2 u f f g f f f g g ! ! ! g h g ! ! ! / l f ^ l z c d u 4 9.<XgXO.: R S.t.n l ! ! / l g f f u f f u u f u f u u u u y y y ",
"; : 1 2 u f k f f f f f g g ! ! g g ! ! ! ! / / _ g g g ! l / x K t.yX).* H -Xq.b g g ! l l g f f u f u f u z f u u u y y y y y ",
"; : 1 y u h h f f f f f g l ! ! ! g ! ! g l / / ! g h f g ( { f t 1.^.jX:...&X6.w h g / f f l g f f f f f f u z u u y y y y 2 2 ",
"; : 1 2 a u u f u u s f g g ! ! g ! ! ! k j l / f h 3 E R y l / p D L.7X).>.8.6.w f g k k f g f f f u u u f f u y y y y y y y 2 ",
"; : 1 2 u u f f u u u k g g g g l g ! g f k l l f v & j.e.0 u j z q #.!.jXV.5.,.4 h k z s s g f u u f u u u u u y y y 2 y 2 2 2 ",
"; : 1 2 i u u u u u u f f g g g g u j j f f u k h v s.0.&X,., i h v - 9.).oXN.S p g x u s z u u f f u u u u u y y 2 y y i 2 2 2 ",
": < 1 2 y u u u u u y u f g g g k f u u f j j j f Y 9XN.4.*Xw.9 e q - o.I..X^.S p g x f l k u u u u u u u d u y y 2 2 y 6 2 1 2 ",
"; < 1 2 y u u u y y y u u g g l k l u u g ! ! g u P 8XQ.8.z.:Xr.X.o.c.*X;.~.kXp.2 ) u ^ f f h u f u u u u y y 2 2 2 2 2 6 2 2 1 ",
": : 1 6 2 y y y y y y u u k g g l ! f h ^ g ~ j m O.sX`.q.c.8.=X;X;X%Xz.2.A.yXtXT i i j f g l u u u u u u i y 2 2 2 2 2 2 2 1 2 ",
"; : : 2 y y y y y y u u u f g g ! g f h g g ~ h G '.lXY.Z L x.A.4.$Xz.x.x.3.Q.iXE.3 m y g / f g u u u u u d y 2 2 1 2 2 6 2 1 1 ",
": : 1 2 2 y y y y y a i f f g g ! f g f f l h w H.dXL.& w q - q.t.q.c.<.- = I.].iX@.3 p f f f f f u u y u i 2 2 2 2 1 1 2 7 1 1 ",
"; : 1 1 2 y y y y y a u u f g g g u h u B d 3 O.oX_.%.t 2 y M 4 P K K > 8 0 X.!. X_.r C i u k f u u u y y y 2 2 1 1 1 1 1 7 6 1 ",
"; ; : 1 2 y 2 y y y y y u u f f h y u y N 2 Z `.OXK.F 7 u [ u g f p 4 C a i * 0.+XOXj.; n u k f u u u y y y 2 1 2 2 6 2 1 2 1 : ",
"; ; : : 2 y 2 y 2 y y d u u u f u u u s u q +.iX.X>.q m k f g g g h p i u f v F I.aXzXH 4 h k u u y y y y 2 y 2 2 2 2 2 1 1 1 < ",
"% ; : : 1 6 y 2 y y u u u u u u u u s B y q >.vX).| 3 z k k f g ! g p d k g h w %.5XcX#.b u f V s u y y 2 y y y y y 2 1 6 1 < < ",
"% % ; : 1 6 2 2 2 y y i y u u u y y a N u 4 &.rXY.Z c f u B f f g g s s k g u 3 - T.rXO.i u k u y y 2 2 2 y y 2 2 y 2 2 5 1 : : ",
"% % % : 1 2 6 2 2 y y y u u u u u 2 y s k 2 D a.%., h f k x u h g f f u k g f 4 Z 1.h.0 2 h f y y y y 2 2 2 y y y 2 2 2 1 1 : : ",
"$ $ % ; : 1 2 2 2 y i a y u u i i y y u k u 1 w b 2 f u k k u f f f f k f f f i q 0 0 , i h u s y y 2 2 2 2 2 i 2 y 2 6 1 : : ; ",
"@ $ % % : 1 1 1 2 2 y y y u u u 2 i y u u f y i 2 p f f k u y u g g k f f f f u 4 : 3 i i y 2 u y 2 2 2 2 2 2 y y 2 2 2 6 1 : : ",
"@ @ $ % < < 1 1 1 2 y y y y u i y y y y s k s k f k k k k u y u f f f h f f u u y d d a y u 2 2 y 2 2 2 2 4 y 4 2 y 2 2 1 1 : ; ",
"+ @ $ % ; < < 7 1 2 y a y y u u y 2 y a u k u k V u u k y u u u k f f f h f f u k k a s 2 d y 2 y y 2 2 2 2 2 y y 2 2 6 1 : : ; ",
"+ @ $ % ; ; < 5 2 2 2 y y y u u u y 2 y y y u u u y y u u y a u u f f u f u u u k k B s a 2 2 y y 2 2 2 2 2 i y 2 2 2 1 1 1 ; ; ",
"+ @ @ % % ; : 1 1 1 6 y 6 y u a a y 2 2 y 2 y y u y y y u y a a u u f u u u u u f k B s y y 4 2 2 y 2 2 2 2 6 2 y 2 6 1 5 < ; ; ",
"+ + @ $ % ; < < : 1 1 2 2 6 y a a 6 2 2 1 1 2 2 2 2 2 4 y y a y y y u u y u y u u s s s a 2 2 2 2 y 2 2 2 1 1 2 6 1 1 1 < < ; ; ",
"O + # $ % % ; < : < 1 1 2 2 2 6 6 6 2 2 1 : 1 4 2 2 3 1 6 y y 2 y y y y y i y y y a a u y 6 2 1 2 2 2 2 1 1 1 1 7 1 : : < % % % ",
"o o o @ $ $ % ; : < : : 1 1 1 2 6 2 2 2 1 : 1 2 1 3 1 7 2 y 6 2 2 y 2 y i y y 2 2 2 6 6 6 1 1 1 1 6 2 1 : : 1 : : ; ; ; % % $ @ ",
"X X o + @ $ % % ; ; > ; ; : : 1 3 1 2 6 1 : : 2 1 2 1 1 6 2 1 1 2 2 2 1 6 6 6 7 1 1 1 1 6 5 1 1 5 1 1 : : ; : : ; ; % $ $ @ @ + ",
". . o o @ @ $ $ % % % ; ; ; : , : , 2 6 1 < 5 5 5 5 5 5 6 2 3 : 2 2 1 : 5 6 1 1 : > : : 1 1 5 < 5 1 : ; ; ; ; ; ; % % $ $ @ + o ",
". X X + # @ $ % % % % % % ; ; , > ; 1 6 < : 1 5 5 5 5 5 2 2 : > 2 1 1 : 1 5 1 : > ; ; : 1 1 < 5 < : < : ; ; ; ; % % $ $ @ + o o "
};
