/* XPM */
static char *_d2e42c9470b494dd0d044c5ae36790b1cDDYpH06yn469ZR[] = {
/* columns rows colors chars-per-pixel */
"64 64 255 2 ",
"   c #161B29",
".  c #1B2E34",
"X  c #25272A",
"o  c #372B2A",
"O  c #292A36",
"+  c #343134",
"@  c #37373A",
"#  c #463A3A",
"$  c #513530",
"%  c #693820",
"&  c #31493E",
"*  c #47443D",
"=  c #544C34",
"-  c #54453E",
";  c #66463A",
":  c #774835",
">  c #714D34",
",  c #5C6137",
"<  c #0E2F56",
"1  c #29394B",
"2  c #373B46",
"3  c #0B3A6C",
"4  c #4B3B48",
"5  c #643F4C",
"6  c #1B4D4D",
"7  c #2A4946",
"8  c #3B4448",
"9  c #324B54",
"0  c #184164",
"q  c #33506F",
"w  c #484648",
"e  c #584A44",
"r  c #534C4C",
"t  c #45514C",
"y  c #5A5348",
"u  c #5C534B",
"i  c #484B55",
"p  c #554E54",
"a  c #4C5457",
"s  c #555353",
"d  c #595859",
"f  c #654C46",
"g  c #6A564A",
"h  c #765647",
"j  c #6B4755",
"k  c #645C54",
"l  c #685857",
"z  c #635C5B",
"x  c #765B56",
"c  c #556458",
"v  c #776548",
"b  c #736E4F",
"n  c #696359",
"m  c #786758",
"M  c #495567",
"N  c #4E566E",
"B  c #595C65",
"V  c #665C63",
"C  c #755462",
"Z  c #5D6368",
"A  c #526C70",
"S  c #596878",
"D  c #646364",
"F  c #6B6563",
"G  c #64656B",
"H  c #686868",
"J  c #6D6B6B",
"K  c #776A66",
"L  c #736C6B",
"P  c #6B746C",
"I  c #74726D",
"U  c #7C7369",
"Y  c #646B73",
"T  c #6A6C74",
"R  c #686C7A",
"E  c #746B73",
"W  c #6B7479",
"Q  c #7C7474",
"!  c #777877",
"~  c #7C7B7C",
"^  c #90342E",
"/  c #BB6817",
"(  c #8A4E31",
")  c #865537",
"_  c #985937",
"`  c #A05928",
"'  c #A55E37",
"]  c #A1602A",
"[  c #B86C2A",
"{  c #A66637",
"}  c #AE6A30",
"|  c #B76838",
" . c #CB6B17",
".. c #C87133",
"X. c #875B46",
"o. c #8C5850",
"O. c #A65E4B",
"+. c #866349",
"@. c #98644B",
"#. c #876858",
"$. c #976955",
"%. c #8C765C",
"&. c #9B775C",
"*. c #A56B4A",
"=. c #A66E4D",
"-. c #B7754A",
";. c #A7745A",
":. c #B77953",
">. c #865C6A",
",. c #856B65",
"<. c #82756C",
"1. c #887868",
"2. c #977867",
"3. c #8A6D70",
"4. c #837B74",
"5. c #8A7C74",
"6. c #857A78",
"7. c #967C76",
"8. c #A47B65",
"9. c #B47D64",
"0. c #A87C74",
"q. c #C67A53",
"w. c #C07B62",
"e. c #7B8478",
"r. c #A08F26",
"t. c #8F8753",
"y. c #B2855B",
"u. c #8E8169",
"i. c #97846B",
"p. c #8C8274",
"a. c #88867B",
"s. c #8C847B",
"d. c #988777",
"f. c #948B7B",
"g. c #9D917B",
"h. c #A48769",
"j. c #A68A77",
"k. c #B78D70",
"l. c #A7957B",
"z. c #B6987B",
"x. c #B6A27E",
"c. c #C98452",
"v. c #C88C6B",
"b. c #355B8A",
"n. c #356A8B",
"m. c #2263A3",
"M. c #50708B",
"N. c #686987",
"B. c #687785",
"V. c #767986",
"C. c #7B7C82",
"Z. c #6761A0",
"A. c #8F6F86",
"S. c #877D84",
"D. c #A47788",
"F. c #2498B6",
"G. c #798388",
"H. c #6E8B95",
"J. c #778692",
"K. c #619B9D",
"L. c #5E86AD",
"P. c #6686AB",
"I. c #738EAE",
"U. c #7993AE",
"Y. c #6186B1",
"T. c #638BB3",
"R. c #6B8DB3",
"E. c #6B93B5",
"W. c #7392B4",
"Q. c #7B97B6",
"!. c #4EB4B6",
"~. c #2DC3B8",
"^. c #2A9ECA",
"/. c #61ADC0",
"(. c #3BCAC3",
"). c #52CCCA",
"_. c #68CDCE",
"`. c #838484",
"'. c #888788",
"]. c #8B8B8C",
"[. c #968A85",
"{. c #938C8B",
"}. c #8C918A",
"|. c #989489",
" X c #878A93",
".X c #938D94",
"XX c #8C9293",
"oX c #899599",
"OX c #949493",
"+X c #9C9492",
"@X c #9C9B93",
"#X c #96989C",
"$X c #9C9C9C",
"%X c #A79987",
"&X c #AA928D",
"*X c #B59886",
"=X c #A79C97",
"-X c #99A489",
";X c #97A398",
":X c #ABA288",
">X c #B6A589",
",X c #A8A499",
"<X c #ACA49B",
"1X c #B6A898",
"2X c #BAB29B",
"3X c #8897A9",
"4X c #949BA4",
"5X c #989BA4",
"6X c #9191AA",
"7X c #839BB5",
"8X c #879CB7",
"9X c #A69CA3",
"0X c #99A3A8",
"qX c #8CA2B8",
"wX c #97A7B8",
"eX c #8EB0B3",
"rX c #A4A3A3",
"tX c #A7A9A7",
"yX c #ABACAC",
"uX c #B5ACA7",
"iX c #AAB2AB",
"pX c #B7B4A8",
"aX c #A4ACB7",
"sX c #B3ACB5",
"dX c #A9B3B7",
"fX c #B7B8B7",
"gX c #CA9B87",
"hX c #CBAA93",
"jX c #C7B89A",
"kX c #E2B198",
"lX c #CBB2A3",
"zX c #C3B7AA",
"xX c #C4BBB8",
"cX c #A0C2B6",
"vX c #D2C4A8",
"bX c #C8C4BB",
"nX c #E4D4B6",
"mX c #98AEC2",
"MX c #A6AFC0",
"NX c #AAB9C5",
"BX c #B5BAC5",
"VX c #C5BCC3",
"CX c #96CFCF",
"ZX c #BBC4CA",
"AX c #B4C9D2",
"SX c #C7C8C7",
"DX c #D4CBC6",
"FX c #D5D2CA",
"GX c #C8CED3",
"HX c #CCD1D5",
"JX c #DAD9D6",
"KX c #E3DAC9",
"LX c #DFE1DC",
"PX c #E1E3DE",
"IX c #E3E4E0",
/* pixels */
"w.f 2 B C.9XyX&X[.OXSXIXJXJXPXPXPXIXIXPXIXIXIXIXPXPXPXPXPXPXPXPXPXPXPXPXPXPXPXPXPXPXPXIXIXIXIXIXIXIXIXIXIXIXIXIXIXIXIXIXIXIXIXIX",
"q.h 1 B B '.rX=X=XS.4XJXJXJXIXPXPXIXIXIXIXIXIXIXPXPXPXPXPXPXPXPXPXPXPXPXPXPXPXPXPXPXPXIXPXIXIXIXIXIXIXIXIXIXIXIXIXIXIXIXIXIXIXIX",
"$.u O Z p L  XJ. X'.OXSXLXJXIXIXIXIXPXIXIXIXIXIXIXPXPXPXPXPXPXPXPXPXPXPXPXPXPXPXPXPXPXIXPXIXIXIXIXIXIXIXIXIXIXIXIXIXPXJXJXIXIXIX",
"{.l w T ~ {.B.M.G.$XtXJXPXJXIXIXIXIXPXIXIXIXIXIXIXIXPXPXPXPXPXPXPXPXPXPXPXPXPXPXPXPXPXIXIXIXIXIXIXIXIXIXIXIXIXPXJXJXHXHXGXHXHXHX",
"6.l 2 T $XpXP.M.tXyXfXJXJXFXDXSXSXGXGXHXGXGXSXZXGXPXIXPXPXPXPXPXPXPXPXPXPXPXPXPXPXPXPXPXPXIXIXIXPXPXPXPXIXIXJXHXHXHXGXGXGXGXGXGX",
"+XQ a T '..XOXC.[.+X[.{.aX5X0X XoXoXoX4XwXNXmXwXwXZXLXPXPXPXPXPXPXPXPXPXPXPXPXPXPXPXPXPXPXIXIXIXPXPXPXPXIXJXHXGXHXHXHXHXHXHXHXGX",
"#X+X&XQ Q ,X[.z K <.Q ~ NX0XBXV.0X0XtX0XwXwXwXqXmXmXZXPXPXPXPXPXPXPXPXPXPXPXPXPXPXPXPXPXPXPXPXIXPXIXPXIXHXaX8XqXaXMXMXaXBXGXHXHX",
"yX1X*Xw Z pX6.d z V d Y NXZXZX0XdXdXaX4X3X3X3X3XqXNXmXNXJXPXPXPXPXPXPXPXPXPXPXPXPXPXPXPXIXPXPXIXPXSXDXLXsXU.P.L.P.P.P.P.P.Q.wXBX",
"yX<X<Xp G {.C.! M M d D 5XaXaXaX4X6X3X X XJ.J.U.3X3X4XqXwXfXbXxXSXJXLXPXPXPXPXPXPXPXPXPXPXGXBXJXJXxXfXSXyX3XU.P.L.P.Y.P.L.L.L.P.",
"aXyX9XC.C.W |.>X>X1X:Xj.0.7.A.[.].`.G.G.].OXXXV.qXqXwXAXNXNXSXSXbXLXLXPXPXPXPXPXPXPXPXLXfX4X4X0XtX0XU.7X7XW.W.W.R.T.I.U.I.I.Y.P.",
"C.! E V d S ,XvXjXjXjXbXbXzX*Xk.k.&XsXyXfX=XuX#.|.=X1XzXuX1X1XzXxXSXHXHXJXJXLXPXPXIXPXxX5X4X4X3X3X3XU.W.U.W.R.W.Q.R.W.W.R.R.R.R.",
"].OX`.T B q B.DXuX|.pXJXFXsXsXyX&X7.[.+XtX&XuXy.q.y.:.:.-.| -.k.j.rXZXZXZXSXGXHXJXJXxX9XrX4X3XU.U.7X7XW.Q.W.R.W.W.T.Q.W.R.Y.R.I.",
" XtXoXG.T 2 W DXpXiXbXJXbX X X X XOX.X{..XS..Xi.v 1.7.1.m ,.,.Q `.dXSXSXSXZXZXGXSXSXrX4X4X3XU.U.U.W.8X8XW.W.W.T.Q.Q.W.R.Y.Y.W.I.",
"M E W  Xp.8 G.DXbXDXFXFXxXpXpXuX+XtXrX#X XA R 4.f.s.d.5.<.<.K OX#X$XBXdXBXZXZXNXoXoX3X3X3X7X7XU.Q.Q.W.8XqX7XR.T.Q.W.R.Y.W.I.I.I.",
"w e r H d.K {.xXxXbXxXxXxXzXzXzX1XbXfXyXfXaX4Xa a.5.<.<.U K z .XJ.H.oXc W 0XZXyXoX3X3X3X3X7X8X7XQ.7XQ.7X7XW.T.T.T.T.R.T.7X7XW.W.",
"5.5.p.h.;.-.:.p.f.f.5.4.|.1X1X>X>XzXbXsXfXdX4X7 c `.a.~ ~ ~ G #XG.7 7 7 7 W pX1XtXyX0X0XqXqXqX7XQ.7X7XqX7X7XE.W.Q.R.7XQ.7XW.W.T.",
"l.l.5.l.c...[ i.tX@X! ! ;XFXJXKXnXbXrX5XwXaXJ.7 0 q b.M.M.b.n.'.! . . 7 7 7 P lXpXzXfXaXwXwXwX8XqX8XQ.7XqXqXqXqXQ.T.W.W.R.T.Y.T.",
"l.l.1.l.|  ...h.pX2X@X|.pXJXJXKXnXzXiX~ V F V l r l V z l j C 7.4.k d a 7 . 9 %XlXzXxXaXwXwXwXaXaXqX7XqX7X7XwX7XE.T.E.T.T.T.T.Y.",
"d.d.p.d.y...| i.2XpXuX<XfXJXKXnXvXxXyX5.( ' ' ) ' | | | $.x 4 0.d.:.v.j.a 7 7 7 H a.uXpXaXaXaXwXqXqXqX7X7XqXqXQ.qX8XQ.E.T.E.W.T.",
"q B k 1.&.&.g.%X>X1X2XpX<XzXjX>Xz.1XC.u ( _ ' ( ' | ....8.{.J.0.U 1.j.*XJ.q 0 9 a & P zXxXxXxXfXwXwXqXQ.qXqX8X8XqXwXQ.W.Q.7XW.W.",
"q B.}.;Xg.g.-X,XtXfX3XpX@X,X+X=X<X'.d 4 ) _ _ : _ ' _ | 2.5.[.&.E 6.h 9.{.R Y F U * a 1XzXfXfXfXdXwXqXwXwXwXwXwXwXqXQ.E.Q.W.W.T.",
"K.!.).).(.(.~.;XwXtXL.wX3XfXT oXfX@XZ # : ) _ : _ { +.2.oXJ.oXJ.S R m 2.s.-X1X0.j.v g *XpXfXfXdXaXwXwXwXaXaXwXqX8XQ.Q.Q.7XW.W.T.",
"iXCX).!._.!.~.;XbXbXpXiX].+X'.OX<XOXZ @ f g g - h #.S m.^.^.F.^.F.q 7.&X1X|.D.o.o.O.O.o.>.>.A.V.P.0XaXdXfXfXdXwXwXmXwX8X7XR.R.T.",
"~ K.)._.CX/.!.;XSXFXSXpX&.,.$XuX[.Q s w F K 4.I s.g.<.[.OX;X0XeX0X<.7.[..Xx j 5 5 j j j C j x E G.{.OX'.=XrXrXdXBXVXBXfXwXQ.E.Q.",
"H G./.tXpXcXdX;X{.uX=XZ b ( 2.i.2.2.,.F H Q I [.%X%Xh.c.v u.+XbXbX@.$.8.C.L z + . w w B N.Q #.#.X.l <.d X.U #XsXBXVXVXxXBXMX8X8X",
"g.%X>X>Xl.%X%Xg.}.=Xd.g.+X=X[.$.=.; X.K `.pX<Xp.p.4.&.y.b |.OXfXtXl l p.|.K F e # f f g K 3.3.2.( ; $.l X.,.D.sXsXxXDXDXVXaXwXMX",
"%X:X1X>X%X:Xl.l.OX}.1.z.a.`.S.G $.f $.=X,XxX{.K U k n f e I T T ~ Z R 4Xd.h x h h h X.X.: h <.d.: : O.; ) X.^ 3.S.sXxXxXsX8X3X8X",
"g 2.2.2.2.2.d.|.].OXI [.J '.$X{.[.%Xl.1X<X<Xf.n u u d e - s T T V.G.W V.I F <.|.,X,X,X,X=X,X,X4.$ 4 l K 5.{.3.,.x .XwXMXMXwXaXqX",
"m gX7.hXkXkXlXfXfXtX|.|.rXdX0X<X5.6.[.s.+X|.F H f.f.~ 5.d.F W W W  XG. X].U o.1XfXfXxXbXbXbXfX].b b p s.&XsX0X9X,.R I.fXfXsXsXBX",
"K gX*XhXhXgXhXpXfXG.#X{.4XaXfX=X2.8.j $ 2.x # z a.[.5.d k d XX0XoXwX0X5XC.z 3.#XM.M.aXbXbXSXsX{.b , p 6.=XyX0X X+X7.|.g.g.%Xd.9X",
"F *XhXgX,.l D T H B H ! R S  X#Xk.v.$.X.*.- 2 1 i ! {.U s w '.0X#X0X0X#XN 3 q b.b.M.5XxXbXSXfX.X{.`.'.OX4X5XaX5X[.Q G.XX@X2Xj.9X",
"n z.gXv.e @ @ 8 @ @ 8 G.W Y V.G.9.9.:.=.X.# 8 2 i F U n s w F G.].].G.C.B.J.`.V +.j.=X1X@X+Xa.J '.`.C.[.&X&X=XG.G Z 1 0 N %Xp.9X",
"w 2.v.+.X X X @ a D I {.5.{.f.<.5.L J I L # r D D G T T XX5X].XX$X#X5X#XXXiX,Xs...-.*.y.#.<.s.L Q F # _ : _ *.M H <.Q D L 5.5.6.",
"D x #.+ @ 8 a s Q s.=XpXfXfXuX*Xf.`.J.G.}.; K oX XH.G.G.oXdXfXG.dX4XdXZXrXsX<X$...-.-.y.k.&X=X#.j.m o % $ % @.m ,.d.,X=X|.p.<.<.",
"6.6.J z z s s r d v _ X.1.%XpXbXbX<X].G.~ $ F oXwX4XY '.#X XaXG.fXoX4XfX$X,X&XX.*.*.=.:.k.j.j.h 4.<.+ $ $ $ X.@.@.2.z.>X|.s.d.4.",
"$ g r + y g v y o ; ( ) ) ( X.#.|.*Xd.5.1.m K Z 6X.XY V.G p Q C.'.B V.=X,.#.1.g +.%.%.%.5.[.7.f J m # V Q K 4.{.a.j.gX>Xg.J L B ",
"( h 2 $ b %.%.v > ] [ { { } { _ #.$X2.k.=Xk.$.#.i d k k s r w p B B S.6.m _ #.#.*.2.:.c.=XuX%X<.`.K # L [.<.OXiX6.x m x n B w w ",
"k.,.i k g m #.g ) ] [ _ ] } [ [ h.dX%Xz.,X8.# ) o ; h U +XI z Q #XrXdXyX5.h g X.) g *.:.7.[.j.7.XXj r J Q F {.yXa.m 1.,.[.D 2 w ",
"U k @ @ n i.%Xi._ ] [ { } [ [ [ &.gXz.v.k.8.h X.$ ( _ h.rX8 i N.A.A. XdX%Xh m h =.;.*.-.j.j.2.x [.[.|.=XpX1X2X=X2X=X+X@XtXY q q ",
"E 4.F w k m n g ] /  .] /  ./ / _ :.=.@.> $.c.| g f Z 4.F 2 R V.V. X].$X4.e g g x =.@.=.0.j.,.m d.%X:X%XhX>X>Xl.z.2XuX,XrX9 < q ",
"~ 4.s @ * e * e ; h v g v v +.+.1.{.OX$XOXp.k.%.k w N a w $ : #.=.=.=.-.*.=.-.-.; O.w.9.9.2.2.m i.i.u.1.d.l.z.z.>X<X=X@XS q q M.",
"i s H L U *XU :X1X5.g.1X2X2X2X:XiXBXZXZXZXyX0XH D d D a.I > ( $.v.v.k.k.#.#.z.z.e g 1.U p.5.8.%.l.i.>X>Xx.%XhXlXvXzX1X@Xt 2 i w ",
"# n |.<.d l.%X%X1X>.>.:X:X%X%Xd.}.0XfXdXfXB.b.b.q S @X X@X; $ l v.1.U J 2 z ;.v.k ~ 0X0X$X*X&.%.1.r l.z.i.i %XvXvXxX<X[.@ X O o ",
"l B M.q 9 Z N D |.=Xl.%X%X%X%Xg.}.0XdX=X=Xd 1 n.M.s.%Xp.=X1.: X.v.1.Q  XB 4.5.d.s `.dXdXfX1X1.m i.m i.2.i.m j.jXvXzXpX[.W Z.Z.x ",
"E q < < 9 8 1 w n n n U 1.p.p.<.n I Q n n F I I U d.a.{.;X[.: @.:.=.7.e.v 0 3 3 9 '.fXuXuX`.L y y b m #.u.%.i.>XjXpX<X|.l 5 N u ",
"e 2 w s k k <.p.f.d.w w u n n n J ~ OX,XiXfXfXfXyXpXrXrXyX=X#.2.;.$.,.U p.! Y Y I f.'.Q I G k # X X + g g v %.h.b 1.a.z g f $ $ ",
"@.e k d.*Xs.a.>X4.d.u f.1X2X>Xl.%XG.}.G.@X}.}.@XtXiX$XXXoXXX~ '.7.#.+.2.2.2.8.j.j.4.y 1.`.K - # e * - u V h.k.z.s.{.! x ;.h #.d.",
";.# # 1.*X5.t.x.I <.n f.>X:Xl.g.g.Z ~ n f.n n m n d i i 6 d F 6.6.6.<.H m @./ _ 9.5.+.;.%Xg # 2 * - e n E %.y.k.6.T i u - - j.l.",
"o.- w %X1Xs.e.g.m ; w k 1.1.1.j.p.D D d P s 8 n n 2 i D a D k w s i D M k ` / _ v.S.9.*.,.f @ i p l K %X%Xp.l.%X[.]..X[.Q n Q :X",
"3.u s p.K d w @ + o + r k g g 1.jXjX2X>X>X%X|.z.%X{.,XuXpX2XK 2 D B C.A a.:./ ` -.K $.) # w F f.d.g.[.%X1X:X[.I K z ~  X`.].4.d ",
"S.w * r k n 2 H d d + @ n #.m 1.%X:X:X:Xl.f.%X>X:X|.@X|.a.~ D R OXuXuXfXfX,X#.#.U n ,.x l @ L I q Z v <.m V w O r d q m.Z {.<.+ ",
"'.n n L %X4.a {.d d + 8 k m i.1.[.|.f.s.p.s.p.U n I ~ ].~ '.~ OX,X@X}.].a.~ ~ d Z = #.m f $ l C.N t r.@XX.X.O @ p a 0 m.B J E w ",
"H Q W |.%X[.U j.m ,.K w y y n 1.2X2Xn D |.1X>Xp.Q `.#X0XW G.a.].'.! XXoXtX,XF w d n m x g f k d G i n  X_ O.1 9 i s r D V.W G #.",
"! I d s e > > > h n s 8 n k y e f.1.B J <.g.l.1.[.$X0X Xi C [.;X0XXXtXJ.tX}.! Z w @ # # p @   2 V.J.#X=X{ 2.H T Q F * r E Y i # ",
"M.H.Z B $ % % % ) w 9 9 n @ + # K u 2 d 5.g.i.m s.tXXXH @ # F  XXXG.0X0XdXXX8 @ o X o O B 9 O i 0XtXyX@Xk f #.$.$.f * L sXoXS @ ",
"L.H.B.Y o e e h m r @ O 8 O X + * * @ * u k y w d ! Z a r 8 t 8 2 w Z I D n w d 5.p.p.<.s.D s G aXyXyX}.# $ K ;.x d r V tXJ.B.'.",
"H.H.J.S 1 2 8 8 D S M.M.K.n.6 8 i.u.1.i.d.g.d.i.i.5.r + r e w 8 * @ e r # e e V [.[.%X%X%XQ D Z #XXXXX`.S.S..X=X=X9X=X$X,X5X.Xx ",
"4X3X0XS 1 @ * w n.!.!.!.!.!.A n >Xf.4.%XjXvXvXvXhX1.Z r p H.E.M.s w # w w k V  X9X].W J ~ S.oX4XW w r B ~ ~ XXOX}.! H G d T C.u ",
"G.B.%X].H K 1.s.H.oXXX`.! I K 1.%.2.L a.,X2XpXjXz.f r w a H.H.M.i a B B p G W Q Q ~ Z 2 R 5XdXoXY s # @ w   + 2 O     2 1  XXXG ",
"1.d.x.h.h.k.x.i.j.>Xi.* w X @ ;.h ;.w d P 1.:XjXz.X.d.d.d.i.l 2 9 N V.V l Y C.l u I $X.XrXyXfX0XC.Q '.'.F + 4 i M S 9 M  XXXH X ",
"#.i.x.+.; &.l.7.[.:Xm @ D 2 @ ;.g 2.z D > : j.*X*X&.j.j.l.l.5.O M S N.N >.R T p B Y rXyXyX@XaXGXrX~ '.].%Xz.6.V.V.V.B Y OXOXJ   ",
"2.1.j.+.h h.%Xp.|.pXm n n # e +X3XG.8 w f K d.&.=.@.$.;.;.8.p.u w r i 2 w a 8 O @ 4 D G L K d.&X[.+XwX4Xp.u.6.T T d G rXyXiX6.4 ",
"j.%Xh.X.#.h.l.=X=X1Xm e h X.X.e.P t O r {.pX1X*X$.=.;.@.8.&X Xa o $ o o o + + # 4 l p p x  . ...aXAXCXeXG.Q d B i w 4 +XH ! '.].",
"z.1X*Xl.>Xk.zXxXpXuX+X6.#.; = * F 4 4 {.,X%X%Xg.j.$.@.$.[.mX/.b.K #.#.#.o.x K L S.#X5.`.1. . ...dXCXCXeX;X{.E S.R p # I 2 @ p s "
};